<svg width="1600" height="905" viewBox="0 0 1600 905" fill="none" xmlns="http://www.w3.org/2000/svg">
<g opacity="0.1">
<path d="M405.031 132.811C405.172 132.917 405.266 133.077 405.292 133.255C405.318 133.432 405.274 133.614 405.169 133.759C405.063 133.902 404.906 133.998 404.732 134.024C404.559 134.051 404.382 134.007 404.24 133.901L401.649 131.945C401.579 131.892 401.52 131.826 401.476 131.751C401.431 131.675 401.402 131.591 401.39 131.503C401.377 131.415 401.381 131.326 401.403 131.24C401.424 131.154 401.462 131.073 401.513 131.002C401.619 130.858 401.775 130.763 401.948 130.736C402.121 130.709 402.297 130.753 402.438 130.858L405.031 132.811Z" fill="#80AFCF"/>
<path d="M404.813 128.295C404.883 128.347 404.942 128.413 404.987 128.489C405.032 128.565 405.061 128.649 405.074 128.737C405.087 128.825 405.082 128.914 405.061 129C405.039 129.087 405.001 129.167 404.949 129.239C404.897 129.31 404.832 129.37 404.757 129.416C404.683 129.462 404.6 129.492 404.514 129.506C404.428 129.519 404.341 129.515 404.257 129.494C404.173 129.472 404.093 129.434 404.024 129.382L401.432 127.429C401.362 127.377 401.303 127.31 401.259 127.235C401.214 127.159 401.185 127.075 401.172 126.987C401.16 126.899 401.164 126.81 401.186 126.724C401.207 126.638 401.244 126.557 401.296 126.486C401.348 126.414 401.413 126.353 401.487 126.307C401.562 126.261 401.644 126.23 401.73 126.216C401.816 126.203 401.904 126.206 401.988 126.227C402.072 126.248 402.152 126.286 402.222 126.339L404.813 128.295Z" fill="#80AFCF"/>
<path d="M404.874 123.734C404.944 123.786 405.004 123.852 405.048 123.928C405.093 124.004 405.123 124.088 405.136 124.175C405.149 124.263 405.145 124.353 405.124 124.439C405.103 124.525 405.065 124.606 405.013 124.678C404.907 124.821 404.751 124.917 404.577 124.943C404.403 124.97 404.226 124.926 404.085 124.821L401.496 122.868C401.426 122.816 401.367 122.749 401.322 122.673C401.278 122.597 401.248 122.513 401.236 122.425C401.223 122.336 401.228 122.247 401.249 122.16C401.271 122.074 401.309 121.993 401.362 121.921C401.413 121.85 401.478 121.79 401.553 121.744C401.627 121.698 401.71 121.668 401.796 121.654C401.882 121.641 401.969 121.645 402.053 121.666C402.138 121.687 402.217 121.725 402.286 121.778L404.874 123.734Z" fill="#80AFCF"/>
<path d="M419.263 113.211C419.333 113.263 419.412 113.301 419.496 113.322C419.581 113.343 419.668 113.347 419.754 113.333C419.84 113.319 419.923 113.288 419.997 113.242C420.072 113.196 420.137 113.135 420.188 113.064C420.292 112.919 420.336 112.739 420.311 112.562C420.285 112.386 420.193 112.227 420.053 112.12L417.461 110.167C417.391 110.114 417.312 110.076 417.227 110.054C417.143 110.033 417.055 110.028 416.968 110.042C416.882 110.055 416.799 110.085 416.724 110.132C416.649 110.178 416.584 110.238 416.532 110.31C416.48 110.382 416.443 110.463 416.422 110.549C416.401 110.635 416.397 110.725 416.41 110.813C416.423 110.9 416.452 110.984 416.497 111.06C416.542 111.136 416.601 111.202 416.671 111.254L419.263 113.211Z" fill="#80AFCF"/>
<path d="M414.958 114.319C415.027 114.372 415.106 114.411 415.191 114.432C415.275 114.454 415.363 114.458 415.449 114.445C415.535 114.431 415.617 114.401 415.692 114.355C415.766 114.309 415.831 114.248 415.883 114.176C415.935 114.105 415.972 114.024 415.994 113.938C416.015 113.852 416.019 113.762 416.007 113.675C415.994 113.587 415.965 113.503 415.92 113.427C415.876 113.351 415.817 113.285 415.748 113.233L413.157 111.265C413.087 111.213 413.008 111.175 412.924 111.154C412.839 111.133 412.752 111.129 412.666 111.143C412.58 111.157 412.497 111.187 412.423 111.234C412.348 111.28 412.284 111.341 412.232 111.412C412.128 111.557 412.084 111.737 412.11 111.913C412.135 112.09 412.227 112.249 412.367 112.356L414.958 114.319Z" fill="#80AFCF"/>
<path d="M410.696 115.716C410.765 115.769 410.845 115.808 410.929 115.829C411.014 115.851 411.102 115.855 411.188 115.842C411.274 115.829 411.357 115.798 411.432 115.752C411.507 115.706 411.572 115.645 411.624 115.573C411.676 115.502 411.713 115.42 411.734 115.334C411.756 115.248 411.76 115.158 411.747 115.071C411.734 114.983 411.704 114.899 411.659 114.823C411.614 114.748 411.555 114.682 411.485 114.629L408.894 112.673C408.824 112.621 408.744 112.583 408.66 112.562C408.576 112.541 408.488 112.537 408.402 112.551C408.316 112.564 408.234 112.595 408.159 112.641C408.085 112.688 408.02 112.748 407.968 112.82C407.916 112.891 407.879 112.972 407.857 113.058C407.836 113.144 407.832 113.234 407.844 113.321C407.857 113.409 407.886 113.493 407.931 113.569C407.975 113.645 408.034 113.711 408.104 113.763L410.696 115.716Z" fill="#80AFCF"/>
<path d="M423.493 112.272L410.519 119.818L404.445 115.241L421.135 110.494L423.493 112.272Z" fill="#80AFCF"/>
<path d="M405.389 137.207L408.674 122.354L402.604 117.778L403.031 135.432L405.389 137.207Z" fill="#80AFCF"/>
<path d="M422.243 128.702C423.27 129.475 423.96 130.289 423.196 131.345C422.434 132.394 421.465 131.956 420.439 131.183L398.309 115.781C397.283 115.004 396.587 113.163 397.35 112.11L397.591 111.766C398.354 110.714 400.29 110.852 401.313 111.629L422.243 128.702Z" fill="#80AFCF"/>
<path d="M420.812 135.385L421.313 131.255L418.275 128.968L419.635 134.498L420.812 135.385Z" fill="#80AFCF"/>
<path d="M426.294 127.837L422.562 129.534L419.526 127.244L425.113 126.95L426.294 127.837Z" fill="#80AFCF"/>
</g>
<g opacity="0.1">
<path d="M16.3338 174.521C16.0994 174.778 15.7699 174.932 15.4175 174.95C15.0651 174.967 14.7187 174.847 14.4545 174.615C14.1937 174.38 14.0364 174.055 14.0166 173.71C13.9969 173.365 14.1163 173.027 14.349 172.77L18.6613 168.062C18.7771 167.936 18.9173 167.833 19.074 167.76C19.2307 167.688 19.4007 167.646 19.5744 167.638C19.7481 167.629 19.9221 167.655 20.0864 167.713C20.2507 167.77 20.4021 167.859 20.5319 167.974C20.7925 168.207 20.95 168.531 20.97 168.875C20.9901 169.219 20.8711 169.556 20.639 169.812L16.3338 174.521Z" fill="#80AFCF"/>
<path d="M25.2082 174.941C25.093 175.068 24.953 175.172 24.7963 175.245C24.6396 175.319 24.4693 175.361 24.2953 175.369C24.1213 175.377 23.9471 175.351 23.7827 175.293C23.6183 175.235 23.4671 175.145 23.3377 175.029C23.2078 174.915 23.102 174.776 23.0263 174.621C22.9506 174.467 22.9065 174.3 22.8965 174.129C22.8866 173.958 22.911 173.788 22.9683 173.627C23.0256 173.466 23.1147 173.318 23.2305 173.192L27.5358 168.483C27.6515 168.356 27.7917 168.253 27.9484 168.181C28.1051 168.108 28.2751 168.066 28.4488 168.058C28.6225 168.05 28.7965 168.075 28.9608 168.133C29.1251 168.191 29.2765 168.279 29.4063 168.394C29.5369 168.509 29.6436 168.647 29.72 168.801C29.7965 168.956 29.8413 169.123 29.8519 169.294C29.8625 169.465 29.8387 169.636 29.7819 169.797C29.725 169.958 29.6362 170.107 29.5206 170.233L25.2082 174.941Z" fill="#80AFCF"/>
<path d="M34.1195 175.915C34.0042 176.042 33.8643 176.145 33.7077 176.219C33.5512 176.293 33.381 176.335 33.2071 176.344C33.0332 176.353 32.8589 176.328 32.6942 176.271C32.5295 176.213 32.3776 176.125 32.2473 176.01C31.9865 175.776 31.8292 175.451 31.8095 175.106C31.7898 174.76 31.9091 174.423 32.1418 174.166L36.4454 169.463C36.5614 169.336 36.7021 169.233 36.8595 169.159C37.0168 169.086 37.1877 169.044 37.3623 169.036C37.5368 169.028 37.7116 169.054 37.8765 169.112C38.0414 169.171 38.1932 169.261 38.3231 169.377C38.453 169.492 38.5588 169.63 38.6345 169.785C38.7102 169.939 38.7543 170.107 38.7642 170.277C38.7742 170.448 38.7498 170.618 38.6925 170.779C38.6352 170.94 38.546 171.088 38.4302 171.214L34.1195 175.915Z" fill="#80AFCF"/>
<path d="M52.0113 206.055C51.8957 206.181 51.8068 206.33 51.75 206.491C51.6931 206.652 51.6693 206.823 51.68 206.994C51.6906 207.165 51.7354 207.332 51.8119 207.486C51.8883 207.641 51.9949 207.779 52.1256 207.894C52.3886 208.124 52.7326 208.244 53.0829 208.227C53.4331 208.211 53.7613 208.059 53.9961 207.805L58.3014 203.096C58.4184 202.97 58.5085 202.821 58.5666 202.66C58.6247 202.499 58.6495 202.327 58.6397 202.156C58.6299 201.984 58.5856 201.816 58.5095 201.661C58.4333 201.506 58.3267 201.367 58.1959 201.252C58.0655 201.137 57.9137 201.048 57.749 200.991C57.5843 200.934 57.41 200.909 57.2361 200.918C57.0622 200.926 56.892 200.969 56.7355 201.043C56.5789 201.116 56.439 201.22 56.3237 201.347L52.0113 206.055Z" fill="#80AFCF"/>
<path d="M50.6481 197.419C50.5314 197.545 50.4415 197.693 50.3836 197.854C50.3258 198.014 50.3011 198.185 50.3111 198.356C50.3211 198.527 50.3655 198.695 50.4417 198.849C50.518 199.004 50.6245 199.142 50.7553 199.256C50.8851 199.371 51.0365 199.46 51.2008 199.518C51.3651 199.576 51.539 199.601 51.7127 199.593C51.8864 199.585 52.0565 199.543 52.2132 199.47C52.3698 199.397 52.51 199.295 52.6258 199.168L56.9595 194.465C57.0752 194.339 57.164 194.19 57.2209 194.029C57.2777 193.868 57.3015 193.697 57.2909 193.526C57.2803 193.355 57.2355 193.188 57.159 193.033C57.0825 192.879 56.9759 192.741 56.8453 192.626C56.5822 192.396 56.2382 192.276 55.888 192.293C55.5378 192.309 55.2096 192.461 54.9747 192.715L50.6481 197.419Z" fill="#80AFCF"/>
<path d="M48.714 188.813C48.597 188.939 48.5068 189.088 48.4488 189.249C48.3907 189.41 48.3658 189.582 48.3756 189.753C48.3855 189.925 48.4297 190.093 48.5059 190.248C48.5821 190.403 48.6887 190.542 48.8195 190.657C48.9498 190.772 49.1017 190.861 49.2664 190.918C49.4311 190.975 49.6054 191 49.7793 190.991C49.9532 190.983 50.1233 190.94 50.2799 190.866C50.4364 190.793 50.5764 190.689 50.6917 190.562L55.004 185.854C55.1196 185.727 55.2084 185.579 55.2653 185.418C55.3222 185.257 55.346 185.086 55.3353 184.915C55.3247 184.744 55.2799 184.577 55.2034 184.422C55.127 184.268 55.0204 184.13 54.8897 184.015C54.7599 183.9 54.6085 183.811 54.4442 183.754C54.2799 183.696 54.106 183.67 53.9323 183.679C53.7586 183.687 53.5885 183.729 53.4318 183.801C53.2752 183.874 53.135 183.977 53.0192 184.103L48.714 188.813Z" fill="#80AFCF"/>
<path d="M53.0548 214.512L40.7227 187.699L50.8139 176.665L56.9752 210.229L53.0548 214.512Z" fill="#80AFCF"/>
<path d="M7.6681 174.4L36.1067 183.613L46.1964 172.585L11.5814 170.115L7.6681 174.4Z" fill="#80AFCF"/>
<path d="M21.1498 208.989C19.4454 210.854 17.7231 212.053 15.7998 210.361C13.8909 208.672 14.929 206.857 16.6334 204.991L50.9055 164.551C52.617 162.687 56.3506 161.669 58.2667 163.359L58.8941 163.896C60.8102 165.586 60.1763 169.351 58.4664 171.208L21.1498 208.989Z" fill="#80AFCF"/>
<path d="M8.34367 204.936L16.3293 206.689L21.3714 201.171L10.2995 202.797L8.34367 204.936Z" fill="#80AFCF"/>
<path d="M22.0825 217.082L19.4614 209.458L24.5106 203.942L24.0399 214.936L22.0825 217.082Z" fill="#80AFCF"/>
</g>
<g opacity="0.1">
<path d="M1256.38 166.581C1256.66 166.653 1256.9 166.833 1257.04 167.083C1257.19 167.332 1257.24 167.63 1257.17 167.91C1257.1 168.19 1256.92 168.428 1256.68 168.574C1256.44 168.721 1256.14 168.763 1255.87 168.692L1250.8 167.359C1250.67 167.323 1250.54 167.26 1250.43 167.174C1250.31 167.088 1250.22 166.981 1250.15 166.858C1250.07 166.735 1250.03 166.599 1250 166.457C1249.98 166.316 1249.99 166.172 1250.02 166.034C1250.09 165.755 1250.27 165.517 1250.51 165.371C1250.75 165.225 1251.04 165.183 1251.32 165.253L1256.38 166.581Z" fill="#80AFCF"/>
<path d="M1253.29 159.973C1253.43 160.008 1253.56 160.07 1253.67 160.156C1253.79 160.242 1253.88 160.35 1253.95 160.473C1254.03 160.596 1254.07 160.732 1254.09 160.874C1254.11 161.016 1254.11 161.16 1254.07 161.298C1254.04 161.437 1253.98 161.566 1253.9 161.68C1253.81 161.795 1253.71 161.89 1253.59 161.963C1253.47 162.035 1253.33 162.083 1253.2 162.103C1253.06 162.123 1252.92 162.114 1252.78 162.078L1247.72 160.751C1247.58 160.715 1247.45 160.653 1247.34 160.567C1247.23 160.481 1247.13 160.373 1247.06 160.25C1246.99 160.127 1246.94 159.991 1246.92 159.849C1246.9 159.708 1246.9 159.564 1246.94 159.426C1246.97 159.287 1247.03 159.157 1247.11 159.042C1247.2 158.928 1247.3 158.831 1247.42 158.758C1247.54 158.685 1247.67 158.637 1247.81 158.617C1247.95 158.596 1248.09 158.604 1248.23 158.64L1253.29 159.973Z" fill="#80AFCF"/>
<path d="M1250.59 153.127C1250.73 153.162 1250.86 153.224 1250.97 153.31C1251.09 153.395 1251.18 153.503 1251.25 153.626C1251.33 153.749 1251.38 153.885 1251.4 154.026C1251.42 154.168 1251.41 154.312 1251.38 154.451C1251.31 154.73 1251.13 154.968 1250.89 155.114C1250.65 155.261 1250.36 155.303 1250.08 155.232L1245.02 153.903C1244.89 153.868 1244.76 153.805 1244.64 153.719C1244.53 153.632 1244.43 153.524 1244.36 153.401C1244.29 153.277 1244.24 153.14 1244.22 152.998C1244.2 152.856 1244.21 152.711 1244.24 152.572C1244.28 152.434 1244.34 152.304 1244.42 152.19C1244.5 152.076 1244.61 151.98 1244.73 151.908C1244.85 151.835 1244.98 151.788 1245.12 151.768C1245.26 151.748 1245.4 151.756 1245.53 151.792L1250.59 153.127Z" fill="#80AFCF"/>
<path d="M1265.63 128.608C1265.77 128.643 1265.91 128.651 1266.05 128.631C1266.19 128.611 1266.32 128.563 1266.44 128.49C1266.56 128.417 1266.67 128.32 1266.75 128.205C1266.83 128.091 1266.89 127.961 1266.92 127.822C1266.99 127.543 1266.95 127.247 1266.8 126.999C1266.65 126.751 1266.42 126.57 1266.15 126.497L1261.08 125.169C1260.94 125.132 1260.8 125.124 1260.66 125.143C1260.52 125.163 1260.39 125.21 1260.27 125.283C1260.15 125.355 1260.04 125.452 1259.96 125.567C1259.88 125.681 1259.82 125.812 1259.78 125.951C1259.75 126.089 1259.74 126.234 1259.76 126.375C1259.79 126.517 1259.83 126.653 1259.91 126.776C1259.98 126.899 1260.08 127.006 1260.19 127.092C1260.3 127.177 1260.43 127.239 1260.57 127.275L1265.63 128.608Z" fill="#80AFCF"/>
<path d="M1259.89 132.899C1260.02 132.936 1260.16 132.945 1260.3 132.925C1260.44 132.906 1260.57 132.859 1260.69 132.786C1260.82 132.713 1260.92 132.617 1261 132.503C1261.09 132.388 1261.15 132.258 1261.18 132.119C1261.21 131.981 1261.22 131.837 1261.2 131.696C1261.18 131.554 1261.13 131.418 1261.06 131.295C1260.98 131.172 1260.89 131.064 1260.78 130.978C1260.66 130.892 1260.54 130.83 1260.4 130.794L1255.33 129.443C1255.19 129.408 1255.05 129.4 1254.91 129.42C1254.77 129.44 1254.64 129.488 1254.52 129.561C1254.4 129.635 1254.3 129.731 1254.21 129.846C1254.13 129.96 1254.07 130.091 1254.04 130.229C1253.97 130.508 1254.02 130.804 1254.16 131.052C1254.31 131.3 1254.54 131.481 1254.82 131.554L1259.89 132.899Z" fill="#80AFCF"/>
<path d="M1254.38 137.594C1254.51 137.631 1254.66 137.639 1254.8 137.62C1254.94 137.6 1255.07 137.553 1255.19 137.48C1255.31 137.408 1255.42 137.311 1255.5 137.197C1255.58 137.082 1255.64 136.951 1255.68 136.812C1255.71 136.674 1255.72 136.53 1255.7 136.388C1255.67 136.246 1255.63 136.11 1255.55 135.987C1255.48 135.864 1255.38 135.757 1255.27 135.671C1255.16 135.586 1255.03 135.524 1254.89 135.489L1249.83 134.155C1249.69 134.12 1249.55 134.112 1249.41 134.132C1249.27 134.153 1249.14 134.201 1249.02 134.274C1248.9 134.347 1248.79 134.443 1248.71 134.558C1248.63 134.672 1248.57 134.803 1248.54 134.941C1248.5 135.08 1248.49 135.223 1248.52 135.365C1248.54 135.506 1248.58 135.642 1248.66 135.765C1248.73 135.889 1248.82 135.996 1248.94 136.082C1249.05 136.168 1249.18 136.231 1249.31 136.266L1254.38 137.594Z" fill="#80AFCF"/>
<path d="M1271.37 124.617L1256.62 143.825L1244.76 140.712L1266.77 123.406L1271.37 124.617Z" fill="#80AFCF"/>
<path d="M1259.61 172.922L1255.42 148.741L1243.56 145.626L1255 171.717L1259.61 172.922Z" fill="#80AFCF"/>
<path d="M1279.56 149.907C1281.57 150.432 1283.09 151.225 1282.6 153.269C1282.1 155.302 1280.39 155.241 1278.38 154.716L1235.93 145.276C1233.92 144.745 1231.76 142.422 1232.25 140.384L1232.4 139.723C1232.89 137.685 1235.87 136.706 1237.87 137.238L1279.56 149.907Z" fill="#80AFCF"/>
<path d="M1281.51 160.76L1279.73 154.288L1273.8 152.734L1279.21 160.156L1281.51 160.76Z" fill="#80AFCF"/>
<path d="M1285.08 146.136L1280.55 150.954L1274.61 149.394L1282.77 145.534L1285.08 146.136Z" fill="#80AFCF"/>
</g>
<path d="M-150 669.87C-105.447 585.599 -0.130545 541.784 100.797 540.906C201.724 540.028 299.497 575.186 392.004 614.611C484.512 654.036 575.866 698.69 674.81 719.086C773.754 739.481 884.135 732.374 963.751 675.413C1018.54 636.217 1057.86 574.83 1123.82 555.429C1183.49 537.891 1247.8 559.879 1307.95 577.977C1368.09 596.075 1437.76 609.43 1490.18 577.86C1543.4 545.791 1558.68 475.567 1540.05 418.086C1521.41 360.605 1669.19 336.849 1621 296.948C1572.81 257.046 1729.24 312.11 1688.5 265.435C1647.76 218.759 1698.6 323.895 1711 265.434C1723.4 206.974 1676.05 236.912 1738 251.929" stroke="#1D71B8" stroke-opacity="0.1" stroke-width="1.63" stroke-miterlimit="10" stroke-linecap="round" stroke-dasharray="3.41 6.4"/>
</svg>
