<svg width="1444" height="884" viewBox="0 0 1444 884" fill="none" xmlns="http://www.w3.org/2000/svg">
<g opacity="0.1">
<path d="M1404.17 186.49C1403.97 186.664 1403.71 186.753 1403.44 186.736C1403.18 186.72 1402.93 186.6 1402.75 186.403C1402.57 186.205 1402.48 185.947 1402.49 185.685C1402.51 185.423 1402.62 185.179 1402.82 185.005L1406.46 181.819C1406.56 181.733 1406.68 181.667 1406.8 181.626C1406.92 181.584 1407.06 181.567 1407.19 181.575C1407.32 181.583 1407.45 181.617 1407.57 181.674C1407.69 181.732 1407.79 181.811 1407.88 181.909C1408.06 182.106 1408.15 182.363 1408.14 182.624C1408.12 182.885 1408 183.128 1407.81 183.302L1404.17 186.49Z" fill="#80AFCF"/>
<path d="M1410.82 187.549C1410.72 187.635 1410.61 187.702 1410.49 187.744C1410.36 187.786 1410.23 187.803 1410.1 187.795C1409.97 187.787 1409.84 187.753 1409.72 187.695C1409.6 187.637 1409.49 187.557 1409.4 187.459C1409.32 187.362 1409.25 187.248 1409.2 187.126C1409.16 187.003 1409.14 186.873 1409.15 186.744C1409.15 186.614 1409.19 186.488 1409.24 186.372C1409.3 186.255 1409.38 186.151 1409.48 186.066L1413.11 182.878C1413.21 182.792 1413.33 182.727 1413.45 182.685C1413.58 182.643 1413.71 182.626 1413.84 182.634C1413.97 182.642 1414.1 182.676 1414.22 182.733C1414.34 182.791 1414.44 182.87 1414.53 182.968C1414.62 183.065 1414.69 183.178 1414.73 183.301C1414.78 183.423 1414.8 183.553 1414.79 183.683C1414.79 183.813 1414.75 183.939 1414.7 184.056C1414.64 184.173 1414.56 184.277 1414.46 184.363L1410.82 187.549Z" fill="#80AFCF"/>
<path d="M1417.45 189.029C1417.36 189.115 1417.24 189.181 1417.12 189.223C1416.99 189.266 1416.86 189.284 1416.73 189.276C1416.6 189.268 1416.47 189.234 1416.35 189.177C1416.23 189.12 1416.12 189.041 1416.04 188.944C1415.86 188.745 1415.77 188.487 1415.78 188.226C1415.8 187.964 1415.91 187.719 1416.11 187.545L1419.75 184.362C1419.84 184.276 1419.96 184.21 1420.08 184.168C1420.21 184.126 1420.34 184.108 1420.47 184.117C1420.6 184.126 1420.73 184.16 1420.85 184.218C1420.97 184.275 1421.08 184.356 1421.17 184.454C1421.26 184.552 1421.32 184.665 1421.37 184.788C1421.41 184.91 1421.43 185.04 1421.42 185.17C1421.42 185.299 1421.39 185.425 1421.33 185.542C1421.27 185.658 1421.19 185.762 1421.09 185.848L1417.45 189.029Z" fill="#80AFCF"/>
<path d="M1428.41 213.234C1428.32 213.32 1428.24 213.425 1428.18 213.541C1428.12 213.658 1428.09 213.785 1428.09 213.914C1428.08 214.044 1428.1 214.174 1428.14 214.297C1428.19 214.419 1428.26 214.533 1428.35 214.63C1428.53 214.825 1428.77 214.944 1429.04 214.961C1429.31 214.978 1429.57 214.891 1429.76 214.72L1433.4 211.532C1433.5 211.446 1433.58 211.342 1433.64 211.225C1433.69 211.109 1433.73 210.982 1433.73 210.852C1433.74 210.722 1433.72 210.591 1433.68 210.468C1433.63 210.345 1433.56 210.231 1433.48 210.133C1433.39 210.036 1433.28 209.956 1433.16 209.899C1433.04 209.842 1432.91 209.809 1432.78 209.801C1432.65 209.793 1432.52 209.811 1432.39 209.853C1432.27 209.896 1432.15 209.962 1432.06 210.048L1428.41 213.234Z" fill="#80AFCF"/>
<path d="M1428.11 206.614C1428.01 206.699 1427.93 206.803 1427.87 206.919C1427.82 207.035 1427.78 207.162 1427.78 207.292C1427.77 207.421 1427.79 207.551 1427.83 207.674C1427.88 207.797 1427.95 207.91 1428.04 208.007C1428.12 208.105 1428.23 208.184 1428.35 208.242C1428.47 208.299 1428.6 208.333 1428.73 208.341C1428.86 208.349 1428.99 208.332 1429.12 208.29C1429.24 208.248 1429.36 208.183 1429.45 208.097L1433.11 204.917C1433.21 204.831 1433.29 204.726 1433.35 204.61C1433.4 204.493 1433.43 204.366 1433.44 204.237C1433.45 204.107 1433.43 203.977 1433.38 203.854C1433.34 203.732 1433.27 203.619 1433.18 203.521C1433 203.326 1432.75 203.207 1432.49 203.19C1432.22 203.173 1431.96 203.26 1431.76 203.431L1428.11 206.614Z" fill="#80AFCF"/>
<path d="M1427.37 199.968C1427.27 200.053 1427.19 200.157 1427.14 200.274C1427.08 200.391 1427.05 200.518 1427.04 200.648C1427.03 200.778 1427.05 200.908 1427.1 201.032C1427.14 201.155 1427.21 201.269 1427.3 201.366C1427.39 201.464 1427.49 201.543 1427.61 201.6C1427.73 201.657 1427.86 201.69 1427.99 201.698C1428.12 201.706 1428.26 201.688 1428.38 201.646C1428.5 201.604 1428.62 201.537 1428.72 201.451L1432.36 198.265C1432.46 198.179 1432.54 198.075 1432.59 197.958C1432.65 197.841 1432.68 197.715 1432.69 197.585C1432.69 197.455 1432.67 197.325 1432.63 197.203C1432.58 197.08 1432.51 196.967 1432.43 196.87C1432.34 196.772 1432.23 196.693 1432.11 196.635C1431.99 196.578 1431.86 196.544 1431.73 196.536C1431.6 196.528 1431.47 196.545 1431.35 196.587C1431.22 196.628 1431.11 196.694 1431.01 196.78L1427.37 199.968Z" fill="#80AFCF"/>
<path d="M1428.49 219.694L1421.44 198.46L1429.97 190.991L1431.81 216.795L1428.49 219.694Z" fill="#80AFCF"/>
<path d="M1397.65 185.674L1418.31 194.995L1426.83 187.53L1400.96 182.773L1397.65 185.674Z" fill="#80AFCF"/>
<path d="M1404.92 212.863C1403.48 214.126 1402.08 214.885 1400.77 213.449C1399.47 212.016 1400.41 210.736 1401.85 209.473L1431.05 181.871C1432.5 180.61 1435.4 180.155 1436.7 181.589L1437.13 182.046C1438.43 183.48 1437.64 186.264 1436.19 187.52L1404.92 212.863Z" fill="#80AFCF"/>
<path d="M1395.61 208.737L1401.48 210.727L1405.74 206.991L1397.26 207.289L1395.61 208.737Z" fill="#80AFCF"/>
<path d="M1404.94 219.038L1403.61 213.075L1407.87 209.341L1406.6 217.586L1404.94 219.038Z" fill="#80AFCF"/>
</g>
<g opacity="0.1">
<path d="M413.031 181.953C413.172 182.059 413.266 182.219 413.292 182.396C413.318 182.574 413.274 182.755 413.169 182.901C413.063 183.044 412.906 183.139 412.732 183.166C412.559 183.193 412.382 183.149 412.24 183.043L409.649 181.087C409.579 181.034 409.52 180.968 409.476 180.892C409.431 180.817 409.402 180.733 409.39 180.645C409.377 180.557 409.381 180.468 409.403 180.382C409.424 180.296 409.462 180.215 409.513 180.144C409.619 180 409.775 179.905 409.948 179.878C410.121 179.851 410.297 179.895 410.438 180L413.031 181.953Z" fill="#80AFCF"/>
<path d="M412.813 177.437C412.883 177.489 412.942 177.555 412.987 177.631C413.032 177.707 413.061 177.791 413.074 177.879C413.087 177.967 413.082 178.056 413.06 178.142C413.039 178.228 413.001 178.309 412.949 178.381C412.897 178.452 412.832 178.512 412.757 178.558C412.683 178.604 412.6 178.634 412.514 178.648C412.428 178.661 412.341 178.657 412.257 178.636C412.172 178.614 412.093 178.576 412.024 178.524L409.432 176.571C409.362 176.519 409.303 176.452 409.259 176.377C409.214 176.301 409.185 176.217 409.172 176.129C409.16 176.041 409.164 175.952 409.185 175.866C409.207 175.78 409.244 175.699 409.296 175.628C409.348 175.556 409.413 175.495 409.487 175.449C409.562 175.403 409.644 175.372 409.73 175.358C409.816 175.345 409.904 175.349 409.988 175.37C410.072 175.391 410.152 175.428 410.222 175.481L412.813 177.437Z" fill="#80AFCF"/>
<path d="M412.874 172.876C412.944 172.928 413.004 172.994 413.048 173.07C413.093 173.145 413.123 173.23 413.136 173.317C413.149 173.405 413.145 173.494 413.124 173.581C413.103 173.667 413.065 173.748 413.013 173.82C412.907 173.963 412.75 174.059 412.577 174.085C412.403 174.112 412.226 174.068 412.085 173.962L409.496 172.01C409.426 171.958 409.367 171.891 409.322 171.815C409.278 171.739 409.248 171.654 409.236 171.566C409.223 171.478 409.228 171.389 409.249 171.302C409.271 171.216 409.309 171.135 409.362 171.063C409.413 170.992 409.478 170.932 409.553 170.886C409.627 170.84 409.71 170.809 409.796 170.796C409.882 170.783 409.969 170.787 410.053 170.808C410.138 170.829 410.217 170.867 410.286 170.92L412.874 172.876Z" fill="#80AFCF"/>
<path d="M427.263 162.352C427.333 162.405 427.412 162.443 427.496 162.464C427.581 162.485 427.668 162.488 427.754 162.475C427.84 162.461 427.923 162.43 427.997 162.384C428.072 162.338 428.137 162.277 428.188 162.205C428.292 162.061 428.336 161.881 428.311 161.704C428.285 161.528 428.193 161.369 428.053 161.262L425.461 159.309C425.391 159.256 425.312 159.218 425.227 159.196C425.143 159.175 425.055 159.17 424.968 159.184C424.882 159.197 424.799 159.227 424.724 159.273C424.649 159.32 424.584 159.38 424.532 159.452C424.48 159.524 424.443 159.605 424.422 159.691C424.401 159.777 424.397 159.867 424.41 159.955C424.423 160.042 424.452 160.126 424.497 160.202C424.542 160.278 424.601 160.344 424.671 160.396L427.263 162.352Z" fill="#80AFCF"/>
<path d="M422.958 163.461C423.027 163.514 423.106 163.553 423.191 163.574C423.275 163.596 423.363 163.6 423.449 163.587C423.535 163.573 423.617 163.543 423.692 163.497C423.766 163.45 423.831 163.39 423.883 163.318C423.935 163.247 423.972 163.166 423.994 163.08C424.015 162.994 424.019 162.904 424.007 162.817C423.994 162.729 423.965 162.645 423.92 162.569C423.876 162.493 423.817 162.427 423.748 162.375L421.157 160.407C421.087 160.355 421.008 160.317 420.924 160.296C420.839 160.275 420.752 160.271 420.666 160.285C420.58 160.299 420.497 160.329 420.423 160.376C420.348 160.422 420.284 160.482 420.232 160.554C420.128 160.699 420.084 160.879 420.11 161.055C420.135 161.232 420.227 161.391 420.367 161.497L422.958 163.461Z" fill="#80AFCF"/>
<path d="M418.696 164.858C418.765 164.911 418.845 164.95 418.929 164.971C419.014 164.993 419.102 164.997 419.188 164.984C419.274 164.97 419.357 164.94 419.432 164.894C419.507 164.848 419.572 164.787 419.624 164.715C419.676 164.644 419.713 164.562 419.734 164.476C419.755 164.39 419.76 164.3 419.747 164.213C419.734 164.125 419.704 164.041 419.659 163.965C419.614 163.889 419.555 163.824 419.485 163.771L416.894 161.815C416.824 161.763 416.744 161.725 416.66 161.704C416.576 161.683 416.488 161.679 416.402 161.693C416.316 161.706 416.234 161.737 416.159 161.783C416.085 161.83 416.02 161.89 415.968 161.962C415.916 162.033 415.879 162.114 415.857 162.2C415.836 162.286 415.832 162.376 415.844 162.463C415.857 162.551 415.886 162.635 415.931 162.711C415.975 162.787 416.034 162.853 416.104 162.905L418.696 164.858Z" fill="#80AFCF"/>
<path d="M431.493 161.414L418.519 168.96L412.445 164.383L429.135 159.636L431.493 161.414Z" fill="#80AFCF"/>
<path d="M413.389 186.349L416.674 171.496L410.604 166.919L411.031 184.574L413.389 186.349Z" fill="#80AFCF"/>
<path d="M430.243 177.844C431.27 178.617 431.96 179.431 431.196 180.487C430.434 181.536 429.465 181.098 428.439 180.325L406.309 164.923C405.283 164.146 404.587 162.304 405.35 161.252L405.591 160.908C406.354 159.856 408.29 159.994 409.313 160.77L430.243 177.844Z" fill="#80AFCF"/>
<path d="M428.812 184.527L429.313 180.397L426.275 178.11L427.635 183.64L428.812 184.527Z" fill="#80AFCF"/>
<path d="M434.294 176.979L430.562 178.676L427.526 176.386L433.113 176.092L434.294 176.979Z" fill="#80AFCF"/>
</g>
<g opacity="0.1">
<path d="M3.33382 234.667C3.09946 234.925 2.76988 235.079 2.41748 235.096C2.06508 235.114 1.71871 234.993 1.4545 234.761C1.1937 234.527 1.03641 234.202 1.01667 233.857C0.99692 233.511 1.11631 233.174 1.34899 232.917L5.66136 228.209C5.77713 228.082 5.91735 227.98 6.07402 227.907C6.23069 227.834 6.40073 227.792 6.57444 227.784C6.74815 227.776 6.92213 227.801 7.08642 227.859C7.2507 227.917 7.40209 228.006 7.53192 228.121C7.79254 228.354 7.94997 228.677 7.97003 229.021C7.99009 229.365 7.87115 229.702 7.63904 229.958L3.33382 234.667Z" fill="#80AFCF"/>
<path d="M12.2082 235.088C12.093 235.215 11.953 235.318 11.7963 235.392C11.6396 235.465 11.4693 235.507 11.2953 235.515C11.1214 235.524 10.9471 235.498 10.7827 235.44C10.6183 235.381 10.4671 235.292 10.3377 235.176C10.2078 235.061 10.102 234.922 10.0263 234.768C9.95061 234.613 9.90651 234.446 9.89656 234.275C9.88662 234.105 9.911 233.934 9.9683 233.773C10.0256 233.613 10.1147 233.465 10.2305 233.338L14.5358 228.629C14.6515 228.503 14.7918 228.4 14.9484 228.327C15.1051 228.254 15.2751 228.212 15.4488 228.204C15.6226 228.196 15.7965 228.222 15.9608 228.279C16.1251 228.337 16.2765 228.426 16.4063 228.541C16.537 228.655 16.6436 228.794 16.72 228.948C16.7965 229.102 16.8413 229.27 16.8519 229.441C16.8626 229.611 16.8388 229.782 16.7819 229.944C16.725 230.105 16.6362 230.253 16.5206 230.38L12.2082 235.088Z" fill="#80AFCF"/>
<path d="M21.1195 236.061C21.0042 236.188 20.8643 236.292 20.7077 236.365C20.5512 236.439 20.3811 236.482 20.2071 236.49C20.0332 236.499 19.8589 236.474 19.6942 236.417C19.5295 236.36 19.3777 236.271 19.2473 236.156C18.9865 235.922 18.8293 235.597 18.8095 235.252C18.7898 234.907 18.9092 234.569 19.1419 234.312L23.4454 229.61C23.5614 229.482 23.7021 229.379 23.8595 229.306C24.0168 229.232 24.1877 229.19 24.3623 229.182C24.5369 229.174 24.7116 229.2 24.8765 229.259C25.0414 229.317 25.1932 229.407 25.3231 229.523C25.453 229.638 25.5588 229.777 25.6345 229.931C25.7102 230.086 25.7543 230.253 25.7642 230.424C25.7742 230.594 25.7498 230.765 25.6925 230.925C25.6352 231.086 25.5461 231.234 25.4302 231.361L21.1195 236.061Z" fill="#80AFCF"/>
<path d="M39.0113 266.201C38.8957 266.328 38.8069 266.476 38.75 266.637C38.6931 266.799 38.6694 266.969 38.68 267.14C38.6906 267.311 38.7354 267.479 38.8119 267.633C38.8883 267.787 38.9949 267.926 39.1256 268.04C39.3886 268.27 39.7326 268.39 40.0829 268.374C40.4331 268.357 40.7613 268.206 40.9961 267.952L45.3014 263.242C45.4184 263.116 45.5086 262.968 45.5666 262.806C45.6247 262.645 45.6495 262.474 45.6397 262.302C45.6299 262.131 45.5857 261.963 45.5095 261.807C45.4333 261.652 45.3267 261.513 45.1959 261.398C45.0655 261.283 44.9137 261.195 44.749 261.137C44.5843 261.08 44.41 261.055 44.2361 261.064C44.0622 261.073 43.8921 261.115 43.7355 261.189C43.5789 261.263 43.439 261.366 43.3237 261.493L39.0113 266.201Z" fill="#80AFCF"/>
<path d="M37.6482 257.565C37.5314 257.691 37.4415 257.839 37.3837 258C37.3258 258.161 37.3012 258.332 37.3111 258.502C37.3211 258.673 37.3655 258.841 37.4417 258.995C37.518 259.15 37.6246 259.288 37.7553 259.403C37.8851 259.518 38.0365 259.607 38.2008 259.664C38.3651 259.722 38.539 259.748 38.7127 259.739C38.8865 259.731 39.0565 259.689 39.2132 259.616C39.3699 259.544 39.5101 259.441 39.6258 259.315L43.9596 254.612C44.0752 254.485 44.164 254.337 44.2209 254.175C44.2777 254.014 44.3015 253.843 44.2909 253.673C44.2803 253.502 44.2355 253.334 44.159 253.18C44.0826 253.025 43.9759 252.887 43.8453 252.773C43.5822 252.542 43.2382 252.423 42.888 252.439C42.5378 252.456 42.2096 252.607 41.9748 252.861L37.6482 257.565Z" fill="#80AFCF"/>
<path d="M35.714 248.959C35.597 249.086 35.5069 249.234 35.4488 249.395C35.3907 249.557 35.3659 249.728 35.3757 249.9C35.3855 250.071 35.4298 250.239 35.5059 250.394C35.5821 250.55 35.6887 250.689 35.8195 250.804C35.9498 250.918 36.1017 251.007 36.2664 251.064C36.4311 251.122 36.6054 251.147 36.7793 251.138C36.9532 251.129 37.1233 251.086 37.2799 251.013C37.4365 250.939 37.5764 250.836 37.6917 250.709L42.004 246.001C42.1197 245.874 42.2085 245.725 42.2653 245.564C42.3222 245.403 42.346 245.232 42.3354 245.061C42.3248 244.891 42.2799 244.723 42.2035 244.569C42.127 244.414 42.0204 244.276 41.8897 244.162C41.7599 244.047 41.6085 243.958 41.4443 243.9C41.28 243.842 41.106 243.817 40.9323 243.825C40.7586 243.833 40.5885 243.875 40.4319 243.948C40.2752 244.021 40.135 244.123 40.0192 244.25L35.714 248.959Z" fill="#80AFCF"/>
<path d="M40.0548 274.659L27.7227 247.846L37.814 236.811L43.9753 270.376L40.0548 274.659Z" fill="#80AFCF"/>
<path d="M-5.33188 234.547L23.1067 243.759L33.1964 232.732L-1.41859 230.262L-5.33188 234.547Z" fill="#80AFCF"/>
<path d="M8.14979 269.135C6.44541 271.001 4.72307 272.199 2.79985 270.507C0.890911 268.818 1.92906 267.004 3.63344 265.138L37.9055 224.697C39.617 222.833 43.3506 221.815 45.2667 223.506L45.8941 224.042C47.8102 225.733 47.1763 229.498 45.4664 231.355L8.14979 269.135Z" fill="#80AFCF"/>
<path d="M-4.65632 265.082L3.32931 266.835L8.37137 261.317L-2.70049 262.943L-4.65632 265.082Z" fill="#80AFCF"/>
<path d="M9.08248 277.228L6.46141 269.604L11.5106 264.088L11.0399 275.082L9.08248 277.228Z" fill="#80AFCF"/>
</g>
<path d="M1065.27 733.599C1033.37 668.87 959.247 634.527 888.559 633.011C817.871 631.495 749.694 657.526 685.24 686.859C620.787 716.192 557.184 749.527 488.063 764.274C418.942 779.021 341.583 772.669 285.35 728.503C246.655 698.111 218.6 650.901 172.246 635.532C130.314 621.639 85.4578 637.892 43.4918 651.209C1.52581 664.527 -47.1547 674.142 -84.13 649.594C-121.665 624.657 -132.96 570.901 -120.389 527.16C-107.818 483.419 -76.3512 448.205 -42.9363 418.137C-9.5214 388.069 27.0832 361.118 55.22 325.814C83.3568 290.51 102.502 244.192 93.3257 199.443C84.1491 154.695 39.1615 116.541 -4.0957 127.49" stroke="#1D71B8" stroke-opacity="0.1" stroke-width="1.63" stroke-miterlimit="10" stroke-linecap="round" stroke-dasharray="3.41 6.4"/>
</svg>
