<svg width="1600" height="1096" viewBox="0 0 1600 1096" fill="none" xmlns="http://www.w3.org/2000/svg">
<g opacity="0.1">
<path d="M1399.9 432.994C1399.74 433.133 1399.53 433.205 1399.32 433.192C1399.11 433.179 1398.91 433.084 1398.76 432.926V432.926C1398.62 432.768 1398.55 432.562 1398.56 432.352C1398.57 432.143 1398.66 431.947 1398.82 431.808L1401.73 429.257C1401.81 429.188 1401.9 429.135 1402 429.102C1402.1 429.068 1402.2 429.054 1402.31 429.061C1402.41 429.068 1402.52 429.094 1402.61 429.14C1402.71 429.186 1402.79 429.249 1402.86 429.327C1403 429.485 1403.08 429.69 1403.07 429.899C1403.06 430.107 1402.96 430.302 1402.81 430.441L1399.9 432.994Z" fill="#80AFCF"/>
<path d="M1405.22 433.834C1405.14 433.903 1405.05 433.956 1404.95 433.99C1404.85 434.024 1404.75 434.038 1404.64 434.032C1404.54 434.025 1404.43 433.998 1404.34 433.952C1404.24 433.906 1404.16 433.842 1404.09 433.764V433.764C1404.02 433.686 1403.96 433.595 1403.93 433.497C1403.89 433.399 1403.88 433.295 1403.88 433.192C1403.89 433.089 1403.91 432.987 1403.96 432.894C1404 432.801 1404.07 432.718 1404.14 432.649L1407.05 430.097C1407.13 430.028 1407.22 429.976 1407.32 429.942C1407.42 429.908 1407.52 429.895 1407.63 429.901C1407.73 429.908 1407.84 429.935 1407.93 429.98C1408.03 430.026 1408.11 430.089 1408.18 430.167V430.167C1408.25 430.245 1408.31 430.335 1408.34 430.433C1408.38 430.531 1408.4 430.635 1408.39 430.739C1408.39 430.842 1408.36 430.944 1408.32 431.037C1408.27 431.131 1408.21 431.214 1408.13 431.283L1405.22 433.834Z" fill="#80AFCF"/>
<path d="M1410.53 435.01C1410.45 435.079 1410.36 435.132 1410.26 435.166C1410.16 435.2 1410.05 435.214 1409.95 435.208C1409.84 435.202 1409.74 435.176 1409.64 435.13C1409.55 435.085 1409.46 435.021 1409.39 434.944V434.944C1409.25 434.785 1409.18 434.579 1409.19 434.37C1409.2 434.16 1409.29 433.965 1409.45 433.825L1412.35 431.277C1412.43 431.207 1412.52 431.155 1412.62 431.121C1412.72 431.087 1412.83 431.073 1412.93 431.08C1413.04 431.086 1413.14 431.114 1413.24 431.16C1413.33 431.206 1413.42 431.27 1413.49 431.349V431.349C1413.56 431.426 1413.62 431.517 1413.65 431.615C1413.69 431.713 1413.7 431.817 1413.7 431.92C1413.69 432.024 1413.66 432.125 1413.62 432.218C1413.57 432.311 1413.51 432.394 1413.43 432.463L1410.53 435.01Z" fill="#80AFCF"/>
<path d="M1419.31 454.353C1419.24 454.421 1419.17 454.505 1419.13 454.598C1419.08 454.692 1419.06 454.793 1419.05 454.897C1419.05 455 1419.06 455.104 1419.1 455.202C1419.14 455.3 1419.19 455.391 1419.26 455.468V455.468C1419.4 455.624 1419.6 455.719 1419.82 455.733C1420.03 455.746 1420.24 455.676 1420.39 455.539L1423.3 452.986C1423.38 452.918 1423.44 452.834 1423.49 452.741C1423.53 452.647 1423.56 452.546 1423.57 452.442C1423.57 452.338 1423.56 452.234 1423.52 452.135C1423.48 452.037 1423.43 451.946 1423.36 451.868V451.868C1423.29 451.79 1423.2 451.727 1423.11 451.681C1423.01 451.636 1422.91 451.609 1422.8 451.603C1422.7 451.597 1422.59 451.611 1422.49 451.645C1422.39 451.679 1422.3 451.732 1422.22 451.801L1419.31 454.353Z" fill="#80AFCF"/>
<path d="M1419.06 449.06C1418.98 449.128 1418.92 449.211 1418.88 449.304C1418.83 449.397 1418.8 449.498 1418.8 449.602C1418.79 449.706 1418.81 449.81 1418.84 449.908C1418.88 450.006 1418.94 450.096 1419.01 450.174V450.174C1419.08 450.252 1419.16 450.315 1419.26 450.361C1419.35 450.406 1419.46 450.433 1419.56 450.44C1419.67 450.446 1419.77 450.433 1419.87 450.399C1419.97 450.365 1420.06 450.313 1420.14 450.244L1423.06 447.697C1423.14 447.629 1423.2 447.545 1423.25 447.452C1423.29 447.358 1423.32 447.257 1423.32 447.153C1423.33 447.05 1423.31 446.946 1423.28 446.848C1423.24 446.75 1423.18 446.659 1423.11 446.582V446.582C1422.97 446.426 1422.77 446.331 1422.56 446.317C1422.35 446.304 1422.14 446.374 1421.98 446.511L1419.06 449.06Z" fill="#80AFCF"/>
<path d="M1418.47 443.746C1418.39 443.815 1418.32 443.898 1418.28 443.991C1418.23 444.085 1418.21 444.186 1418.2 444.29C1418.2 444.394 1418.21 444.499 1418.25 444.597C1418.28 444.696 1418.34 444.786 1418.41 444.864V444.864C1418.48 444.942 1418.56 445.006 1418.66 445.051C1418.76 445.096 1418.86 445.123 1418.96 445.129C1419.07 445.135 1419.18 445.121 1419.27 445.087C1419.37 445.053 1419.46 445 1419.54 444.931L1422.45 442.38C1422.53 442.311 1422.59 442.227 1422.64 442.134C1422.68 442.041 1422.71 441.939 1422.71 441.836C1422.72 441.732 1422.7 441.628 1422.67 441.53C1422.63 441.432 1422.58 441.341 1422.5 441.264V441.264C1422.43 441.186 1422.35 441.123 1422.25 441.077C1422.16 441.031 1422.05 441.004 1421.95 440.998C1421.84 440.991 1421.74 441.005 1421.64 441.039C1421.54 441.072 1421.45 441.125 1421.37 441.193L1418.47 443.746Z" fill="#80AFCF"/>
<path d="M1419.38 459.518L1413.73 442.547L1420.53 436.566L1422.03 457.196L1419.38 459.518Z" fill="#80AFCF"/>
<path d="M1394.69 432.348L1411.21 439.78L1418.02 433.802L1397.33 430.026L1394.69 432.348Z" fill="#80AFCF"/>
<path d="M1400.53 454.08C1399.38 455.091 1398.26 455.7 1397.21 454.553C1396.17 453.409 1396.92 452.384 1398.07 451.373L1421.39 429.273C1422.54 428.263 1424.86 427.897 1425.9 429.042L1426.25 429.407C1427.29 430.552 1426.66 432.778 1425.51 433.784L1400.53 454.08Z" fill="#80AFCF"/>
<path d="M1393.08 450.791L1397.77 452.376L1401.18 449.384L1394.4 449.632L1393.08 450.791Z" fill="#80AFCF"/>
<path d="M1400.55 459.018L1399.48 454.251L1402.88 451.261L1401.87 457.854L1400.55 459.018Z" fill="#80AFCF"/>
</g>
<g opacity="0.1">
<path d="M956.615 342.136C956.414 342.25 956.174 342.28 955.947 342.219C955.72 342.158 955.526 342.01 955.406 341.809V341.809C955.289 341.607 955.256 341.369 955.314 341.146C955.372 340.923 955.517 340.734 955.718 340.619L959.416 338.523C959.515 338.467 959.625 338.43 959.739 338.416C959.853 338.402 959.97 338.411 960.081 338.441C960.193 338.472 960.298 338.524 960.39 338.594C960.482 338.664 960.56 338.752 960.619 338.851C960.736 339.052 960.769 339.29 960.711 339.512C960.653 339.734 960.509 339.923 960.309 340.037L956.615 342.136Z" fill="#80AFCF"/>
<path d="M962.151 344.226C962.052 344.283 961.942 344.319 961.828 344.334C961.713 344.348 961.597 344.34 961.485 344.309C961.373 344.279 961.268 344.226 961.176 344.156C961.084 344.085 961.006 343.997 960.948 343.897V343.897C960.889 343.798 960.851 343.688 960.834 343.575C960.818 343.461 960.825 343.346 960.853 343.236C960.882 343.126 960.932 343.023 961.002 342.933C961.071 342.843 961.158 342.768 961.257 342.711L964.951 340.612C965.05 340.556 965.16 340.52 965.275 340.506C965.389 340.492 965.505 340.5 965.617 340.531C965.728 340.561 965.833 340.613 965.926 340.684C966.018 340.754 966.095 340.841 966.154 340.941V340.941C966.213 341.04 966.253 341.15 966.269 341.263C966.286 341.377 966.28 341.492 966.252 341.602C966.223 341.713 966.173 341.816 966.104 341.907C966.035 341.997 965.948 342.073 965.849 342.129L962.151 344.226Z" fill="#80AFCF"/>
<path d="M967.596 346.673C967.497 346.73 967.387 346.767 967.273 346.781C967.158 346.796 967.042 346.788 966.93 346.758C966.818 346.727 966.713 346.676 966.62 346.606C966.528 346.536 966.449 346.448 966.39 346.349V346.349C966.273 346.147 966.24 345.909 966.299 345.686C966.357 345.463 966.502 345.274 966.702 345.159L970.394 343.064C970.493 343.007 970.604 342.971 970.718 342.957C970.833 342.942 970.95 342.951 971.062 342.982C971.175 343.012 971.28 343.065 971.372 343.136C971.465 343.207 971.543 343.295 971.601 343.395V343.395C971.66 343.494 971.698 343.604 971.714 343.717C971.731 343.831 971.724 343.946 971.696 344.056C971.667 344.166 971.616 344.269 971.547 344.359C971.478 344.449 971.391 344.525 971.292 344.581L967.596 346.673Z" fill="#80AFCF"/>
<path d="M972.743 369.441C972.643 369.498 972.557 369.574 972.487 369.664C972.418 369.754 972.368 369.858 972.34 369.968C972.311 370.079 972.305 370.194 972.322 370.307C972.339 370.421 972.378 370.53 972.437 370.63V370.63C972.557 370.83 972.75 370.976 972.975 371.038C973.201 371.099 973.44 371.071 973.64 370.958L977.334 368.859C977.434 368.803 977.522 368.728 977.592 368.638C977.662 368.547 977.713 368.444 977.742 368.333C977.771 368.223 977.777 368.107 977.761 367.993C977.744 367.879 977.705 367.769 977.646 367.669V367.669C977.587 367.57 977.509 367.483 977.417 367.412C977.324 367.342 977.219 367.291 977.107 367.261C976.995 367.23 976.878 367.222 976.764 367.237C976.65 367.251 976.54 367.288 976.441 367.345L972.743 369.441Z" fill="#80AFCF"/>
<path d="M973.652 363.691C973.552 363.747 973.465 363.822 973.395 363.912C973.325 364.002 973.274 364.105 973.246 364.215C973.217 364.326 973.211 364.441 973.227 364.555C973.244 364.668 973.283 364.778 973.342 364.877V364.877C973.401 364.976 973.479 365.064 973.571 365.134C973.663 365.204 973.768 365.256 973.88 365.287C973.991 365.317 974.108 365.326 974.222 365.312C974.336 365.298 974.446 365.262 974.545 365.205L978.256 363.117C978.355 363.06 978.442 362.984 978.511 362.894C978.58 362.804 978.63 362.7 978.659 362.59C978.687 362.479 978.693 362.364 978.676 362.251C978.659 362.137 978.62 362.028 978.561 361.928V361.928C978.442 361.728 978.248 361.582 978.023 361.52C977.798 361.459 977.559 361.487 977.358 361.6L973.652 363.691Z" fill="#80AFCF"/>
<path d="M974.193 357.842C974.093 357.898 974.006 357.974 973.936 358.064C973.866 358.154 973.815 358.258 973.786 358.368C973.757 358.479 973.75 358.595 973.767 358.709C973.783 358.823 973.822 358.933 973.881 359.032V359.032C973.94 359.132 974.018 359.219 974.111 359.289C974.203 359.359 974.309 359.411 974.421 359.441C974.533 359.471 974.649 359.479 974.763 359.465C974.878 359.45 974.988 359.414 975.087 359.357L978.785 357.26C978.884 357.204 978.971 357.128 979.04 357.038C979.109 356.947 979.159 356.844 979.188 356.733C979.216 356.623 979.222 356.508 979.205 356.394C979.188 356.281 979.149 356.171 979.09 356.072V356.072C979.031 355.972 978.954 355.885 978.862 355.815C978.769 355.744 978.664 355.692 978.553 355.662C978.441 355.631 978.325 355.623 978.21 355.637C978.096 355.651 977.986 355.687 977.887 355.743L974.193 357.842Z" fill="#80AFCF"/>
<path d="M971.667 375.013L969.36 355.495L978.017 350.578L975.03 373.106L971.667 375.013Z" fill="#80AFCF"/>
<path d="M951.151 340.279L967.274 351.958L975.93 347.045L954.509 338.369L951.151 340.279Z" fill="#80AFCF"/>
<path d="M952.591 364.959C951.128 365.791 949.791 366.196 948.92 364.729C948.058 363.267 949.088 362.331 950.55 361.499L980.562 342.923C982.029 342.094 984.603 342.216 985.47 343.681L985.757 344.15C986.624 345.614 985.449 347.869 983.985 348.694L952.591 364.959Z" fill="#80AFCF"/>
<path d="M945.311 359.761L950.009 362.512L954.336 360.053L946.989 358.808L945.311 359.761Z" fill="#80AFCF"/>
<path d="M951.52 370.278L951.425 364.91L955.756 362.453L953.2 369.32L951.52 370.278Z" fill="#80AFCF"/>
</g>
<g clip-path="url(#clip0_606_380)">
<path fill-rule="evenodd" clip-rule="evenodd" d="M757.66 828.909C754.211 822.072 750.619 815.3 747.008 808.547C746.387 807.475 745.618 806.495 744.726 805.637C744.317 805.283 743.786 805.103 743.247 805.137C742.707 805.172 742.203 805.416 741.841 805.819C741.228 806.462 740.716 807.195 740.324 807.994C739.28 810.449 738.379 812.975 737.374 815.45C736.654 817.188 736.415 819.168 734.781 820.926C734.184 819.995 733.659 819.317 733.283 818.569C729.672 811.406 726.151 804.204 722.45 797.08C721.269 794.887 719.925 792.787 718.43 790.797C717.853 789.989 716.841 789.495 715.674 788.576C714.806 790.458 714.021 792.021 713.353 793.623C708.867 804.367 705.904 815.56 703.629 826.949C703.268 828.225 702.835 829.48 702.332 830.706C700.387 828.258 699.525 825.901 698.384 823.713C696.808 820.717 695.395 817.631 693.748 814.681C693.307 813.887 692.27 813.431 691.155 812.526C690.208 816.303 689.151 819.526 688.633 822.834C687.719 828.642 687.2 834.515 686.396 840.35C685.138 849.537 683.932 858.738 682.422 867.88C681.287 874.737 679.679 881.516 678.357 888.34C678.033 889.895 677.93 891.489 678.052 893.074C678.11 893.725 679.083 894.454 679.796 894.714C680.131 894.738 680.467 894.68 680.775 894.545C681.084 894.41 681.355 894.202 681.566 893.94C682.383 892.794 682.947 891.459 683.654 890.228C683.926 889.8 684.229 889.393 684.561 889.01L688.088 888.359C688.788 889.088 688.886 890.313 690.526 889.661C691.615 886.959 692.788 883.99 694.007 881.047C695.304 877.954 696.601 874.88 697.897 871.748L694.98 869.502C696.024 866.155 697.067 862.782 697.904 860.106L694.941 855.131C695.479 852.845 695.913 850.983 696.348 849.153C695.116 848.717 694.215 850.228 693.281 849.153V849.173C693.774 850.944 693.819 851.256 692.801 851.901C692.614 852.09 692.394 852.245 692.153 852.357C692.153 852.357 692.153 852.429 692.153 852.461L692.951 854.61L692.374 854.753C692.309 853.998 692.237 853.242 692.153 852.461L692.095 852.311L692.782 851.901C693.482 851.185 693.352 850.182 693.262 849.173C693.265 849.14 693.265 849.108 693.262 849.075L693.294 849.108C694.014 846.568 694.759 844.055 695.479 841.535C695.493 841.453 695.489 841.37 695.468 841.29C695.447 841.21 695.408 841.136 695.356 841.072C695.278 840.981 695.084 840.975 694.792 840.89C694.215 842.121 693.696 843.417 693.015 844.615C692.652 845.266 692.198 846.151 690.928 845.52C692.004 842.264 693.08 839.08 694.085 835.876C694.37 835.139 694.472 834.343 694.38 833.558C694.289 832.772 694.007 832.021 693.56 831.37C692.302 829.417 692.717 827.346 694.105 824.95C695.012 826.649 695.855 828.167 696.653 829.71C699.991 836.221 703.285 842.7 706.663 849.16C707.81 851.361 709.023 853.568 711.311 854.818L715.357 854.167C716.005 855.007 716.478 855.691 716.932 856.316C717.438 856.173 717.885 856.192 718.08 855.977C720.673 853.132 721.931 849.642 722.793 846.002C722.942 845.351 722.313 844.511 721.918 843.397L718.19 846.002C718.151 846.002 718.248 846.132 718.132 846.06C718.583 845.094 718.947 844.09 719.221 843.058C719.728 839.53 720.88 836.126 722.618 833.018C722.929 832.49 722.787 831.715 722.897 830.621C721.995 830.798 721.08 830.9 720.161 830.927C719.315 830.795 718.482 830.588 717.671 830.309C718.365 824.448 719.02 818.933 719.681 813.379L716.971 812.728C716.974 812.778 716.974 812.828 716.971 812.877C717.047 812.932 717.109 813.003 717.153 813.086C717.185 813.17 717.088 813.307 717.055 813.418C717.055 813.242 716.997 813.06 716.971 812.877L716.841 812.773C718.443 810.781 718.994 808.404 719.48 805.956C718.56 805.467 717.827 805.077 716.965 804.608C717.431 802.746 717.295 800.733 719.059 798.858C719.966 800.72 720.777 802.244 721.471 803.826C726.45 815.078 731.403 826.337 737.51 837.035C738.05 838.162 738.667 839.25 739.358 840.291C739.601 840.516 739.886 840.689 740.197 840.801C740.507 840.913 740.837 840.961 741.167 840.942C741.408 840.862 741.626 840.723 741.799 840.536C741.972 840.349 742.096 840.122 742.159 839.874C742.425 837.413 742.574 834.945 742.71 832.471C742.71 832.236 742.353 831.989 742.159 831.748C741.394 831.403 740.655 832.985 739.76 831.598C739.915 828.746 743.449 826.311 741.361 822.482L737.977 825.809C738.285 824.706 738.651 823.619 739.073 822.554C740.505 819.695 742.023 816.902 742.061 813.535C742.034 813.255 742.066 812.971 742.154 812.704C742.242 812.436 742.384 812.19 742.572 811.98C742.76 811.771 742.989 811.603 743.245 811.487C743.501 811.371 743.778 811.31 744.058 811.308C744.707 812.252 745.433 813.262 746.003 814.31C748.175 818.399 750.224 822.56 752.435 826.63C753.874 829.287 755.482 831.839 757.109 834.398C757.394 834.834 758.159 834.965 758.937 835.355C759.618 832.718 758.587 830.745 757.66 828.909ZM707.395 839.933C705.541 838.429 706.539 837.328 707.201 836.078C709.204 837.257 708.653 838.435 707.395 839.933ZM710.825 844.107C710.531 844.484 710.191 844.823 709.814 845.116C709.509 844.758 709.165 844.537 709.126 844.27C709.016 843.618 709.891 842.967 710.423 843.286C710.702 843.423 710.916 843.964 710.825 844.107ZM712.705 851.061C711.973 849.186 712.102 848.222 714.358 846.881L712.705 851.061Z" fill="#1D71B8" fill-opacity="0.05"/>
<path fill-rule="evenodd" clip-rule="evenodd" d="M692.853 888.327C692.759 889.079 692.759 889.84 692.853 890.593C695.447 889.941 695.673 887.76 696.387 886.113C700.497 876.638 701.262 873.923 700.666 871.598C698.844 874.079 694.007 884.374 692.853 888.327Z" fill="#1D71B8" fill-opacity="0.05"/>
<path fill-rule="evenodd" clip-rule="evenodd" d="M732.985 877.446C733.452 877.211 733.905 877.133 734.067 876.873C735.033 875.369 736.012 873.845 736.842 872.269C738.139 869.86 739.371 867.392 740.654 864.963C740.992 864.312 741.439 863.746 741.808 863.186C741.973 863.189 742.135 863.225 742.285 863.293C742.435 863.361 742.569 863.459 742.68 863.581C742.791 863.703 742.876 863.846 742.93 864.002C742.984 864.158 743.006 864.323 742.995 864.488C742.995 866.48 743.916 868.141 744.765 869.834C744.992 870.283 745.076 870.784 745.413 871.787L743.403 869.834C742.165 872.093 744.259 873.539 744.356 875.232C743.825 876.052 743.384 875.115 742.93 875.317C742.82 875.46 742.599 875.61 742.606 875.746C742.69 877.211 742.774 878.676 742.937 880.135C742.969 880.286 743.041 880.426 743.145 880.54C743.248 880.654 743.38 880.739 743.527 880.786C743.72 880.801 743.914 880.775 744.097 880.712C744.279 880.648 744.447 880.547 744.59 880.415C745.01 879.796 745.385 879.148 745.711 878.475C749.336 872.132 752.273 865.452 755.222 858.784C755.637 857.846 756.117 856.947 756.655 855.84C757.699 856.954 757.621 858.146 757.894 859.253L756.409 860.047C756.587 861.503 757.122 862.892 757.965 864.091C757.94 864.111 757.916 864.132 757.894 864.156C757.894 864.26 757.894 864.364 757.842 864.475C757.842 864.41 757.764 864.325 757.783 864.279C757.807 864.228 757.845 864.185 757.894 864.156V864.058L756.286 864.449C756.675 867.705 757.07 871.006 757.479 874.477C756.999 874.64 756.507 874.762 756.007 874.841C755.46 874.827 754.916 874.766 754.38 874.659C754.444 875.31 754.38 875.766 754.548 876.078C755.578 877.921 756.26 879.938 756.558 882.03C756.719 882.641 756.936 883.236 757.206 883.808C757.135 883.853 757.206 883.808 757.174 883.808L754.957 882.251C754.73 882.902 754.354 883.391 754.444 883.775C754.853 885.957 755.816 887.995 757.239 889.694C757.349 889.818 757.615 889.811 757.887 889.896L758.821 888.594L761.226 888.971C762.581 888.235 763.301 886.927 763.981 885.624C765.978 881.789 767.936 877.934 769.914 874.092C770.387 873.174 770.88 872.276 771.424 871.266C772.248 872.686 772.494 873.923 771.748 875.076C771.482 875.461 771.314 875.906 771.26 876.371C771.206 876.837 771.267 877.309 771.437 877.745C772.034 879.647 772.669 881.528 773.311 883.462C772.552 883.84 772.286 883.3 772.072 882.922C771.664 882.212 771.359 881.444 771.016 880.721C770.841 880.767 770.73 880.773 770.685 880.825C770.654 880.863 770.631 880.907 770.618 880.954C770.605 881.001 770.601 881.05 770.607 881.099C771.035 882.596 771.476 884.081 771.904 885.592C771.904 885.592 771.904 885.592 771.904 885.65C771.828 885.924 771.814 886.211 771.864 886.49C771.913 886.77 772.024 887.035 772.189 887.265C772.299 887.337 772.429 887.415 772.598 887.506L772.559 887.597C772.507 888.06 772.468 888.509 772.429 888.958L772.085 888.874C772.248 888.444 772.403 888.021 772.559 887.571C772.562 887.552 772.562 887.532 772.559 887.513C772.419 887.444 772.291 887.352 772.183 887.239C771.573 886.855 771.606 886.673 771.897 885.624V885.585C771.34 886.236 770.808 885.338 770.082 885.585C770.335 886.673 770.594 887.773 770.912 889.127L769.161 892.077L770.893 897.651L769.161 898.953C769.946 900.809 770.73 902.632 771.489 904.469C772.248 906.305 772.909 907.972 773.551 909.574C774.523 909.99 774.582 909.248 774.996 908.818L777.091 909.216C777.283 909.445 777.461 909.686 777.622 909.938C778.044 910.668 778.374 911.456 778.861 912.139C778.986 912.294 779.147 912.417 779.33 912.496C779.513 912.576 779.712 912.61 779.911 912.595C780.339 912.445 780.909 911.996 780.948 911.625C781.017 910.685 780.956 909.741 780.767 908.818C779.982 904.768 779.029 900.757 778.355 896.687C777.46 891.27 776.747 885.813 775.995 880.369C775.522 876.912 775.217 873.428 774.698 869.984C774.394 868.03 773.765 866.077 773.207 863.869C772.559 864.41 771.91 864.677 771.658 865.172C770.685 866.923 769.842 868.746 768.909 870.524C768.282 871.988 767.497 873.379 766.568 874.672C766.277 873.945 766.028 873.201 765.823 872.445C764.55 865.684 762.615 859.067 760.046 852.689C759.644 851.738 759.184 850.814 758.665 849.694C758.071 850.061 757.523 850.498 757.031 850.996C756.149 852.178 755.354 853.423 754.652 854.721C752.467 858.947 750.373 863.218 748.233 867.464C748.007 867.906 747.695 868.31 747.339 868.857C746.373 867.815 746.237 866.643 745.809 865.601C745.206 864.143 744.674 862.645 744.058 861.186C743.828 860.707 743.524 860.268 743.157 859.884C742.943 859.646 742.645 859.502 742.327 859.481C742.008 859.46 741.695 859.565 741.452 859.773C740.92 860.28 740.464 860.862 740.097 861.499C737.957 865.504 735.824 869.515 733.782 873.571C733.225 874.685 732.615 875.87 732.985 877.446ZM763.69 877.849C764.085 878.598 764.675 879.243 763.573 880.135C762.827 879.243 762.497 878.546 763.69 877.823V877.849ZM761.745 882.121C762.075 881.919 762.587 882.303 762.529 882.707C762.529 882.863 762.302 882.994 762.121 883.209C761.898 883.032 761.696 882.831 761.518 882.609C761.485 882.518 761.634 882.199 761.764 882.121H761.745ZM759.424 884.25C760.766 885.045 760.837 885.618 760.403 886.731C760.072 885.839 759.864 885.312 759.443 884.25H759.424Z" fill="#1D71B8" fill-opacity="0.05"/>
<path fill-rule="evenodd" clip-rule="evenodd" d="M772.196 908.825C772.249 909.271 772.249 909.721 772.196 910.166C770.659 909.769 770.523 908.486 770.102 907.51C767.664 901.897 767.21 900.282 767.567 898.908C768.643 900.373 771.508 906.474 772.196 908.825Z" fill="#1D71B8" fill-opacity="0.05"/>
</g>
<g opacity="0.1">
<path d="M862.275 600.99C862.171 601.145 862.007 601.253 861.821 601.291C861.635 601.328 861.441 601.291 861.282 601.189C861.125 601.085 861.015 600.924 860.978 600.742C860.94 600.56 860.976 600.371 861.08 600.216L863.001 597.368C863.053 597.292 863.12 597.226 863.197 597.175C863.275 597.124 863.362 597.088 863.454 597.07C863.545 597.052 863.64 597.051 863.732 597.069C863.824 597.087 863.912 597.122 863.99 597.173C864.147 597.276 864.256 597.436 864.294 597.617C864.332 597.799 864.296 597.987 864.193 598.142L862.275 600.99Z" fill="#80AFCF"/>
<path d="M867.031 600.509C866.98 600.586 866.913 600.652 866.836 600.704C866.758 600.755 866.671 600.791 866.579 600.809C866.487 600.828 866.392 600.828 866.3 600.81C866.208 600.792 866.121 600.756 866.043 600.705C865.964 600.654 865.897 600.589 865.844 600.512C865.792 600.436 865.755 600.351 865.736 600.261C865.718 600.171 865.717 600.078 865.735 599.988C865.753 599.898 865.788 599.812 865.84 599.736L867.757 596.888C867.809 596.812 867.875 596.746 867.953 596.695C868.031 596.643 868.118 596.608 868.21 596.59C868.301 596.571 868.396 596.571 868.488 596.589C868.58 596.607 868.668 596.642 868.746 596.693C868.824 596.743 868.892 596.808 868.945 596.884C868.998 596.961 869.035 597.046 869.054 597.136C869.073 597.226 869.074 597.319 869.057 597.409C869.039 597.5 869.004 597.586 868.952 597.662L867.031 600.509Z" fill="#80AFCF"/>
<path d="M871.85 600.32C871.799 600.397 871.733 600.463 871.655 600.515C871.578 600.566 871.49 600.603 871.399 600.621C871.307 600.64 871.212 600.64 871.12 600.623C871.028 600.605 870.94 600.57 870.861 600.52C870.704 600.415 870.595 600.255 870.557 600.073C870.519 599.891 870.556 599.702 870.659 599.546L872.576 596.703C872.628 596.626 872.695 596.56 872.773 596.508C872.85 596.456 872.938 596.421 873.03 596.402C873.123 596.384 873.218 596.384 873.31 596.402C873.402 596.42 873.49 596.456 873.569 596.508C873.647 596.558 873.714 596.624 873.767 596.7C873.819 596.776 873.856 596.862 873.875 596.952C873.894 597.042 873.894 597.134 873.876 597.225C873.859 597.315 873.823 597.4 873.771 597.477L871.85 600.32Z" fill="#80AFCF"/>
<path d="M883.761 614.939C883.709 615.016 883.674 615.102 883.656 615.192C883.639 615.282 883.64 615.375 883.659 615.465C883.678 615.555 883.715 615.641 883.768 615.717C883.821 615.793 883.889 615.858 883.967 615.909C884.126 616.01 884.318 616.047 884.503 616.01C884.688 615.974 884.851 615.867 884.956 615.713L886.873 612.866C886.926 612.789 886.962 612.703 886.98 612.612C886.998 612.522 886.998 612.429 886.979 612.338C886.96 612.248 886.923 612.162 886.87 612.085C886.818 612.009 886.75 611.943 886.671 611.892C886.593 611.842 886.505 611.807 886.413 611.789C886.32 611.772 886.226 611.772 886.134 611.791C886.042 611.809 885.955 611.845 885.877 611.897C885.8 611.949 885.734 612.015 885.682 612.092L883.761 614.939Z" fill="#80AFCF"/>
<path d="M882.351 610.452C882.298 610.528 882.262 610.614 882.244 610.704C882.226 610.794 882.227 610.887 882.246 610.977C882.264 611.068 882.301 611.153 882.354 611.229C882.407 611.306 882.475 611.371 882.553 611.421C882.631 611.472 882.719 611.507 882.811 611.525C882.903 611.543 882.998 611.542 883.089 611.524C883.181 611.506 883.268 611.47 883.346 611.419C883.424 611.368 883.49 611.302 883.542 611.226L885.475 608.379C885.526 608.303 885.562 608.217 885.579 608.126C885.597 608.036 885.596 607.943 885.577 607.853C885.558 607.763 885.521 607.678 885.468 607.602C885.415 607.526 885.347 607.46 885.268 607.41C885.11 607.308 884.918 607.272 884.732 607.308C884.547 607.345 884.385 607.452 884.28 607.605L882.351 610.452Z" fill="#80AFCF"/>
<path d="M880.639 606.026C880.587 606.103 880.551 606.189 880.533 606.279C880.514 606.37 880.515 606.463 880.534 606.553C880.552 606.644 880.589 606.73 880.642 606.806C880.695 606.883 880.763 606.948 880.841 606.999C880.92 607.05 881.008 607.085 881.1 607.102C881.192 607.12 881.287 607.119 881.379 607.101C881.471 607.082 881.558 607.046 881.635 606.994C881.713 606.943 881.779 606.877 881.83 606.8L883.752 603.952C883.803 603.876 883.839 603.79 883.856 603.699C883.874 603.609 883.873 603.516 883.854 603.426C883.834 603.336 883.797 603.251 883.744 603.175C883.691 603.098 883.624 603.033 883.545 602.983C883.467 602.932 883.379 602.897 883.287 602.879C883.195 602.861 883.101 602.862 883.009 602.88C882.917 602.898 882.83 602.934 882.752 602.985C882.675 603.036 882.608 603.102 882.557 603.178L880.639 606.026Z" fill="#80AFCF"/>
<path d="M884.987 619.358L876.298 606.068L880.793 599.395L886.733 616.767L884.987 619.358Z" fill="#80AFCF"/>
<path d="M857.654 601.613L873.518 604.259L878.013 597.59L859.397 599.023L857.654 601.613Z" fill="#80AFCF"/>
<path d="M867.571 618.95C866.812 620.078 865.99 620.852 864.833 620.104C863.683 619.357 864.091 618.309 864.85 617.181L879.882 592.941C880.645 591.813 882.551 590.975 883.704 591.723L884.081 591.958C885.234 592.706 885.196 594.76 884.433 595.884L867.571 618.95Z" fill="#80AFCF"/>
<path d="M860.435 617.809L864.823 618.108L867.069 614.772L861.306 616.516L860.435 617.809Z" fill="#80AFCF"/>
<path d="M868.709 623.182L866.709 619.334L868.959 615.998L869.58 621.885L868.709 623.182Z" fill="#80AFCF"/>
</g>
<g opacity="0.1">
<path d="M733.381 455.626C733.657 455.698 733.895 455.878 734.043 456.127C734.19 456.377 734.235 456.674 734.167 456.955C734.097 457.234 733.921 457.473 733.678 457.619C733.435 457.765 733.145 457.808 732.869 457.737L727.803 456.403C727.667 456.368 727.539 456.305 727.426 456.219C727.314 456.133 727.218 456.026 727.146 455.902C727.074 455.779 727.026 455.643 727.005 455.502C726.984 455.36 726.99 455.216 727.024 455.078C727.094 454.8 727.268 454.562 727.51 454.416C727.753 454.27 728.042 454.227 728.317 454.298L733.381 455.626Z" fill="#80AFCF"/>
<path d="M730.294 449.018C730.431 449.053 730.559 449.115 730.672 449.201C730.786 449.287 730.881 449.394 730.954 449.517C731.026 449.641 731.074 449.777 731.094 449.919C731.115 450.061 731.108 450.205 731.073 450.343C731.039 450.481 730.979 450.611 730.896 450.725C730.813 450.839 730.708 450.935 730.588 451.008C730.468 451.08 730.335 451.128 730.196 451.147C730.058 451.167 729.916 451.159 729.78 451.123L724.716 449.796C724.58 449.76 724.452 449.697 724.339 449.611C724.226 449.525 724.131 449.418 724.059 449.295C723.986 449.172 723.938 449.035 723.918 448.894C723.897 448.753 723.903 448.609 723.937 448.47C723.97 448.332 724.03 448.201 724.113 448.087C724.196 447.972 724.3 447.876 724.42 447.803C724.54 447.73 724.673 447.682 724.812 447.661C724.95 447.641 725.092 447.649 725.228 447.684L730.294 449.018Z" fill="#80AFCF"/>
<path d="M727.594 442.172C727.731 442.207 727.859 442.269 727.973 442.355C728.086 442.44 728.182 442.548 728.255 442.671C728.328 442.794 728.376 442.93 728.398 443.071C728.419 443.213 728.413 443.357 728.379 443.496C728.309 443.775 728.133 444.013 727.89 444.16C727.647 444.306 727.356 444.348 727.081 444.277L722.022 442.948C721.885 442.913 721.757 442.85 721.643 442.764C721.53 442.677 721.434 442.569 721.362 442.446C721.289 442.322 721.241 442.185 721.22 442.043C721.2 441.901 721.207 441.756 721.242 441.617C721.275 441.479 721.336 441.349 721.419 441.235C721.502 441.121 721.607 441.025 721.727 440.953C721.847 440.88 721.98 440.833 722.118 440.813C722.257 440.793 722.398 440.801 722.534 440.837L727.594 442.172Z" fill="#80AFCF"/>
<path d="M742.633 417.653C742.77 417.688 742.911 417.696 743.05 417.676C743.189 417.655 743.322 417.607 743.442 417.534C743.562 417.461 743.666 417.365 743.749 417.25C743.832 417.136 743.891 417.005 743.925 416.867C743.991 416.588 743.947 416.292 743.801 416.044C743.655 415.796 743.419 415.615 743.145 415.542L738.081 414.214C737.945 414.177 737.803 414.168 737.663 414.188C737.524 414.207 737.39 414.255 737.269 414.328C737.149 414.4 737.044 414.497 736.96 414.611C736.877 414.726 736.816 414.857 736.783 414.996C736.749 415.134 736.743 415.278 736.764 415.42C736.786 415.562 736.834 415.698 736.907 415.821C736.98 415.944 737.076 416.051 737.189 416.137C737.303 416.222 737.431 416.284 737.568 416.319L742.633 417.653Z" fill="#80AFCF"/>
<path d="M736.886 421.944C737.022 421.981 737.164 421.99 737.302 421.97C737.441 421.951 737.575 421.903 737.695 421.831C737.815 421.758 737.92 421.662 738.003 421.548C738.086 421.433 738.146 421.303 738.179 421.164C738.212 421.026 738.219 420.882 738.198 420.74C738.177 420.599 738.129 420.463 738.057 420.34C737.985 420.217 737.889 420.109 737.777 420.023C737.664 419.937 737.536 419.875 737.4 419.839L732.329 418.488C732.193 418.452 732.052 418.445 731.913 418.465C731.774 418.485 731.641 418.533 731.521 418.606C731.401 418.679 731.297 418.776 731.214 418.89C731.131 419.005 731.071 419.135 731.038 419.274C730.972 419.553 731.016 419.849 731.162 420.097C731.308 420.345 731.543 420.526 731.817 420.599L736.886 421.944Z" fill="#80AFCF"/>
<path d="M731.378 426.639C731.515 426.675 731.657 426.684 731.796 426.665C731.935 426.645 732.069 426.598 732.19 426.525C732.311 426.453 732.416 426.356 732.499 426.241C732.583 426.127 732.643 425.996 732.677 425.857C732.71 425.719 732.716 425.574 732.695 425.433C732.674 425.291 732.625 425.155 732.552 425.032C732.479 424.909 732.384 424.802 732.27 424.716C732.157 424.631 732.028 424.569 731.892 424.533L726.826 423.2C726.69 423.165 726.548 423.157 726.41 423.177C726.271 423.197 726.138 423.245 726.018 423.318C725.898 423.391 725.794 423.488 725.711 423.603C725.628 423.717 725.568 423.847 725.535 423.986C725.501 424.124 725.495 424.268 725.515 424.41C725.536 424.551 725.584 424.687 725.657 424.81C725.729 424.933 725.824 425.041 725.937 425.127C726.05 425.213 726.178 425.276 726.314 425.311L731.378 426.639Z" fill="#80AFCF"/>
<path d="M748.374 413.662L733.624 432.87L721.757 429.757L743.766 412.451L748.374 413.662Z" fill="#80AFCF"/>
<path d="M736.606 461.967L732.422 437.786L720.561 434.671L732 460.762L736.606 461.967Z" fill="#80AFCF"/>
<path d="M756.56 438.952C758.566 439.477 760.094 440.27 759.601 442.314C759.104 444.347 757.391 444.286 755.385 443.761L712.929 434.321C710.922 433.79 708.755 431.467 709.25 429.429L709.4 428.768C709.895 426.73 712.87 425.751 714.872 426.283L756.56 438.952Z" fill="#80AFCF"/>
<path d="M758.513 449.804L756.733 443.333L750.8 441.779L756.213 449.201L758.513 449.804Z" fill="#80AFCF"/>
<path d="M762.078 435.18L757.546 439.999L751.612 438.439L759.772 434.579L762.078 435.18Z" fill="#80AFCF"/>
</g>
<g clip-path="url(#clip1_606_380)">
<path fill-rule="evenodd" clip-rule="evenodd" d="M1477.42 458.455C1481.47 451.839 1485.69 445.285 1489.93 438.75C1490.66 437.712 1491.56 436.764 1492.61 435.934C1493.09 435.591 1493.72 435.417 1494.35 435.45C1494.98 435.483 1495.58 435.72 1496 436.11C1496.72 436.732 1497.32 437.442 1497.78 438.215C1499.01 440.59 1500.07 443.035 1501.25 445.43C1502.1 447.112 1502.38 449.028 1504.3 450.729C1505 449.828 1505.61 449.173 1506.06 448.448C1510.3 441.517 1514.43 434.547 1518.78 427.653C1520.17 425.531 1521.75 423.498 1523.5 421.572C1524.18 420.791 1525.37 420.312 1526.74 419.424C1527.76 421.245 1528.68 422.757 1529.47 424.307C1534.74 434.705 1538.22 445.537 1540.89 456.558C1541.32 457.794 1541.82 459.008 1542.42 460.194C1544.7 457.825 1545.71 455.544 1547.05 453.427C1548.91 450.528 1550.57 447.541 1552.5 444.686C1553.02 443.918 1554.24 443.476 1555.55 442.601C1556.66 446.255 1557.9 449.375 1558.51 452.576C1559.58 458.197 1560.19 463.881 1561.14 469.527C1562.61 478.418 1564.03 487.322 1565.81 496.17C1567.14 502.805 1569.03 509.365 1570.58 515.969C1570.96 517.474 1571.08 519.017 1570.94 520.55C1570.87 521.18 1569.73 521.886 1568.89 522.138C1568.5 522.161 1568.1 522.105 1567.74 521.974C1567.38 521.844 1567.06 521.643 1566.81 521.388C1565.85 520.279 1565.19 518.987 1564.36 517.796C1564.04 517.383 1563.68 516.989 1563.29 516.618L1559.15 515.988C1558.33 516.694 1558.21 517.878 1556.29 517.248C1555.01 514.633 1553.63 511.76 1552.2 508.911C1550.67 505.918 1549.15 502.944 1547.63 499.913L1551.05 497.739C1549.83 494.5 1548.6 491.236 1547.62 488.646L1551.1 483.831C1550.47 481.619 1549.96 479.817 1549.45 478.047C1550.89 477.624 1551.95 479.086 1553.05 478.047V478.065C1552.47 479.779 1552.42 480.082 1553.61 480.706C1553.83 480.889 1554.09 481.038 1554.37 481.147C1554.37 481.147 1554.37 481.216 1554.37 481.248L1553.44 483.327L1554.11 483.466C1554.19 482.735 1554.27 482.004 1554.37 481.248L1554.44 481.103L1553.63 480.706C1552.81 480.013 1552.96 479.042 1553.07 478.065C1553.07 478.034 1553.07 478.002 1553.07 477.971L1553.03 478.002C1552.19 475.545 1551.31 473.112 1550.47 470.674C1550.45 470.595 1550.45 470.514 1550.48 470.437C1550.5 470.36 1550.55 470.288 1550.61 470.226C1550.7 470.138 1550.93 470.132 1551.27 470.05C1551.95 471.241 1552.56 472.495 1553.36 473.654C1553.79 474.285 1554.32 475.142 1555.81 474.53C1554.55 471.38 1553.28 468.298 1552.1 465.198C1551.77 464.484 1551.65 463.714 1551.76 462.954C1551.86 462.194 1552.2 461.467 1552.72 460.837C1554.2 458.947 1553.71 456.943 1552.08 454.624C1551.01 456.269 1550.02 457.737 1549.09 459.23C1545.17 465.532 1541.3 471.802 1537.33 478.053C1535.98 480.183 1534.56 482.319 1531.87 483.529L1527.11 482.899C1526.35 483.712 1525.8 484.373 1525.26 484.978C1524.67 484.84 1524.14 484.858 1523.92 484.651C1520.87 481.897 1519.39 478.519 1518.38 474.997C1518.2 474.366 1518.94 473.554 1519.41 472.476L1523.79 474.997C1523.83 474.997 1523.72 475.123 1523.86 475.053C1523.32 474.118 1522.9 473.146 1522.58 472.148C1521.98 468.734 1520.63 465.439 1518.58 462.431C1518.22 461.921 1518.39 461.171 1518.26 460.112C1519.32 460.283 1520.39 460.382 1521.47 460.409C1522.47 460.28 1523.44 460.08 1524.4 459.81C1523.58 454.139 1522.81 448.801 1522.03 443.426L1525.22 442.796C1525.21 442.844 1525.21 442.893 1525.22 442.941C1525.13 442.993 1525.06 443.062 1525.01 443.142C1524.97 443.224 1525.08 443.357 1525.12 443.464C1525.12 443.294 1525.19 443.117 1525.22 442.941L1525.37 442.84C1523.49 440.912 1522.84 438.612 1522.27 436.242C1523.35 435.77 1524.21 435.392 1525.23 434.938C1524.68 433.136 1524.84 431.188 1522.77 429.374C1521.7 431.176 1520.75 432.65 1519.93 434.182C1514.08 445.071 1508.26 455.966 1501.09 466.319C1500.46 467.41 1499.73 468.463 1498.92 469.47C1498.63 469.688 1498.3 469.855 1497.93 469.964C1497.57 470.072 1497.18 470.118 1496.79 470.1C1496.51 470.023 1496.26 469.888 1496.05 469.707C1495.85 469.527 1495.7 469.306 1495.63 469.067C1495.32 466.685 1495.14 464.297 1494.98 461.902C1494.98 461.675 1495.4 461.436 1495.63 461.203C1496.53 460.869 1497.4 462.4 1498.45 461.058C1498.26 458.298 1494.11 455.941 1496.57 452.236L1500.54 455.456C1500.18 454.387 1499.75 453.336 1499.25 452.305C1497.57 449.538 1495.79 446.835 1495.74 443.577C1495.78 443.306 1495.74 443.032 1495.64 442.773C1495.53 442.514 1495.36 442.275 1495.14 442.072C1494.92 441.87 1494.65 441.707 1494.35 441.595C1494.05 441.483 1493.73 441.424 1493.4 441.422C1492.64 442.336 1491.78 443.313 1491.11 444.327C1488.56 448.285 1486.15 452.311 1483.56 456.25C1481.87 458.821 1479.98 461.291 1478.07 463.767C1477.73 464.19 1476.83 464.316 1475.92 464.694C1475.12 462.142 1476.33 460.232 1477.42 458.455ZM1536.47 469.124C1538.65 467.668 1537.47 466.603 1536.7 465.393C1534.34 466.534 1534.99 467.674 1536.47 469.124ZM1532.44 473.163C1532.78 473.528 1533.18 473.856 1533.63 474.14C1533.98 473.793 1534.39 473.579 1534.43 473.32C1534.56 472.69 1533.54 472.06 1532.91 472.369C1532.58 472.501 1532.33 473.024 1532.44 473.163V473.163ZM1530.23 479.893C1531.09 478.078 1530.94 477.145 1528.29 475.847L1530.23 479.893Z" fill="#1D71B8" fill-opacity="0.05"/>
<path fill-rule="evenodd" clip-rule="evenodd" d="M1553.55 515.956C1553.66 516.685 1553.66 517.421 1553.55 518.149C1550.5 517.519 1550.24 515.408 1549.4 513.814C1544.57 504.645 1543.67 502.017 1544.37 499.768C1546.51 502.169 1552.2 512.131 1553.55 515.956Z" fill="#1D71B8" fill-opacity="0.05"/>
<path fill-rule="evenodd" clip-rule="evenodd" d="M1506.41 505.427C1505.86 505.2 1505.32 505.124 1505.13 504.872C1504 503.416 1502.85 501.942 1501.87 500.417C1500.35 498.085 1498.9 495.697 1497.4 493.347C1497 492.716 1496.47 492.168 1496.04 491.626C1495.85 491.629 1495.66 491.665 1495.48 491.731C1495.31 491.796 1495.15 491.891 1495.02 492.009C1494.89 492.127 1494.79 492.265 1494.72 492.416C1494.66 492.567 1494.63 492.727 1494.65 492.887C1494.65 494.815 1493.57 496.422 1492.57 498.06C1492.3 498.495 1492.2 498.98 1491.81 499.951L1494.17 498.06C1495.62 500.247 1493.16 501.646 1493.05 503.284C1493.67 504.078 1494.19 503.171 1494.72 503.366C1494.85 503.505 1495.11 503.65 1495.1 503.782C1495 505.2 1494.91 506.618 1494.72 508.029C1494.68 508.175 1494.59 508.311 1494.47 508.421C1494.35 508.532 1494.19 508.614 1494.02 508.659C1493.8 508.673 1493.57 508.649 1493.35 508.587C1493.14 508.525 1492.94 508.428 1492.77 508.3C1492.28 507.701 1491.84 507.074 1491.46 506.422C1487.2 500.285 1483.75 493.819 1480.28 487.367C1479.79 486.459 1479.23 485.589 1478.6 484.518C1477.37 485.596 1477.46 486.749 1477.14 487.82L1478.89 488.589C1478.68 489.998 1478.05 491.343 1477.06 492.502C1477.09 492.521 1477.12 492.543 1477.14 492.565C1477.14 492.666 1477.14 492.767 1477.21 492.874C1477.21 492.811 1477.3 492.729 1477.27 492.685C1477.25 492.635 1477.2 492.594 1477.14 492.565V492.471L1479.03 492.849C1478.58 496 1478.11 499.194 1477.63 502.553C1478.19 502.712 1478.77 502.83 1479.36 502.906C1480 502.893 1480.64 502.834 1481.27 502.73C1481.2 503.36 1481.27 503.801 1481.07 504.103C1479.86 505.886 1479.06 507.839 1478.71 509.863C1478.52 510.455 1478.27 511.03 1477.95 511.583C1478.04 511.627 1477.95 511.583 1477.99 511.583L1480.59 510.077C1480.86 510.707 1481.3 511.18 1481.2 511.552C1480.72 513.663 1479.59 515.636 1477.91 517.28C1477.78 517.399 1477.47 517.393 1477.15 517.475L1476.06 516.215L1473.23 516.58C1471.64 515.868 1470.79 514.602 1469.99 513.341C1467.65 509.63 1465.35 505.899 1463.02 502.181C1462.47 501.293 1461.89 500.423 1461.25 499.446C1460.28 500.82 1459.99 502.018 1460.87 503.133C1461.18 503.506 1461.38 503.936 1461.44 504.387C1461.51 504.837 1461.43 505.294 1461.23 505.716C1460.53 507.557 1459.79 509.378 1459.03 511.249C1459.92 511.615 1460.24 511.092 1460.49 510.726C1460.97 510.039 1461.33 509.296 1461.73 508.596C1461.93 508.64 1462.06 508.647 1462.12 508.697C1462.15 508.734 1462.18 508.776 1462.2 508.822C1462.21 508.867 1462.22 508.915 1462.21 508.962C1461.71 510.411 1461.19 511.848 1460.69 513.31C1460.69 513.31 1460.69 513.31 1460.69 513.367C1460.77 513.631 1460.79 513.909 1460.73 514.179C1460.68 514.45 1460.54 514.706 1460.35 514.929C1460.22 514.999 1460.07 515.074 1459.87 515.162L1459.92 515.251C1459.98 515.698 1460.02 516.133 1460.07 516.568L1460.47 516.486C1460.28 516.07 1460.1 515.66 1459.92 515.225C1459.91 515.207 1459.91 515.188 1459.92 515.169C1460.08 515.102 1460.23 515.013 1460.36 514.904C1461.07 514.532 1461.04 514.356 1460.69 513.341V513.304C1461.35 513.934 1461.97 513.064 1462.83 513.304C1462.53 514.356 1462.22 515.421 1461.85 516.732L1463.91 519.586L1461.87 524.98L1463.91 526.241C1462.99 528.036 1462.06 529.801 1461.17 531.578C1460.28 533.355 1459.51 534.968 1458.75 536.518C1457.61 536.922 1457.54 536.203 1457.05 535.787L1454.59 536.172C1454.37 536.393 1454.16 536.627 1453.97 536.871C1453.47 537.577 1453.08 538.339 1452.51 539.001C1452.37 539.151 1452.18 539.27 1451.96 539.347C1451.75 539.423 1451.51 539.456 1451.28 539.442C1450.78 539.297 1450.11 538.862 1450.06 538.503C1449.98 537.594 1450.05 536.68 1450.27 535.787C1451.2 531.868 1452.32 527.986 1453.11 524.048C1454.16 518.805 1455 513.524 1455.88 508.256C1456.44 504.91 1456.79 501.539 1457.4 498.205C1457.76 496.315 1458.5 494.424 1459.15 492.288C1459.92 492.811 1460.68 493.069 1460.98 493.548C1462.12 495.243 1463.11 497.008 1464.2 498.728C1464.94 500.145 1465.86 501.491 1466.95 502.742C1467.3 502.038 1467.59 501.319 1467.83 500.587C1469.32 494.045 1471.6 487.641 1474.62 481.468C1475.09 480.548 1475.63 479.653 1476.24 478.57C1476.94 478.925 1477.58 479.348 1478.16 479.83C1479.19 480.974 1480.13 482.178 1480.95 483.434C1483.52 487.524 1485.98 491.658 1488.49 495.766C1488.76 496.195 1489.12 496.586 1489.54 497.115C1490.68 496.107 1490.84 494.972 1491.34 493.964C1492.05 492.553 1492.67 491.103 1493.4 489.692C1493.67 489.228 1494.02 488.802 1494.46 488.431C1494.71 488.201 1495.06 488.061 1495.43 488.041C1495.81 488.021 1496.17 488.123 1496.46 488.324C1497.08 488.815 1497.62 489.377 1498.05 489.994C1500.56 493.87 1503.07 497.751 1505.47 501.677C1506.12 502.755 1506.84 503.902 1506.41 505.427ZM1470.34 505.817C1469.87 506.542 1469.18 507.166 1470.47 508.029C1471.35 507.166 1471.74 506.492 1470.34 505.792V505.817ZM1472.62 509.951C1472.23 509.756 1471.63 510.128 1471.7 510.518C1471.7 510.669 1471.97 510.796 1472.18 511.003C1472.44 510.833 1472.68 510.638 1472.89 510.424C1472.93 510.335 1472.75 510.027 1472.6 509.951H1472.62ZM1475.35 512.012C1473.77 512.78 1473.69 513.335 1474.2 514.413C1474.59 513.549 1474.83 513.039 1475.32 512.012H1475.35Z" fill="#1D71B8" fill-opacity="0.05"/>
<path fill-rule="evenodd" clip-rule="evenodd" d="M1460.34 535.793C1460.28 536.225 1460.28 536.66 1460.34 537.092C1462.15 536.707 1462.31 535.466 1462.8 534.521C1465.67 529.089 1466.2 527.526 1465.78 526.196C1464.52 527.614 1461.15 533.519 1460.34 535.793Z" fill="#1D71B8" fill-opacity="0.05"/>
</g>
<path d="M1706.76 727.447C1658.23 669.146 1547.12 649.107 1441.6 661.062C1336.08 673.017 1234.69 711.891 1138.9 753.34C1043.12 794.789 948.657 840.057 845.701 867.888C742.744 895.72 627.196 904.136 542.648 870.919C484.471 848.062 441.937 806.452 372.537 799.995C309.758 794.164 243.039 818.872 180.591 840.109C118.144 861.347 45.6227 880.181 -9.90732 862.808C-66.2787 845.156 -83.8891 793.843 -65.7404 747.946C-47.5916 702.049 -1.12145 661.033 48.3287 624.765C97.7789 588.496 152.034 554.72 193.533 514.25C235.032 473.779 262.957 424.067 248.634 381.309C234.31 338.551 69.9999 266.861 -4.50021 362.4" stroke="#1D71B8" stroke-opacity="0.1" stroke-width="1.63" stroke-miterlimit="10" stroke-linecap="round" stroke-dasharray="3.41 6.4"/>
<defs>
<clipPath id="clip0_606_380">
<rect width="103" height="124.051" fill="white" transform="translate(678 788.576)"/>
</clipPath>
<clipPath id="clip1_606_380">
<rect width="121" height="120.05" fill="white" transform="matrix(-1 0 0 1 1571 419.424)"/>
</clipPath>
</defs>
</svg>
