<svg width="1600" height="1096" viewBox="0 0 1600 1096" fill="none" xmlns="http://www.w3.org/2000/svg">
<g clip-path="url(#clip0_606_378)">
<path fill-rule="evenodd" clip-rule="evenodd" d="M1534.66 201.616C1538.01 195 1541.5 188.446 1545 181.912C1545.61 180.874 1546.35 179.926 1547.22 179.095C1547.61 178.752 1548.13 178.579 1548.65 178.612C1549.18 178.645 1549.67 178.881 1550.02 179.271C1550.61 179.894 1551.11 180.603 1551.49 181.376C1552.5 183.752 1553.38 186.197 1554.36 188.591C1555.05 190.274 1555.29 192.189 1556.87 193.891C1557.45 192.99 1557.96 192.334 1558.33 191.61C1561.83 184.678 1565.25 177.709 1568.85 170.815C1569.99 168.692 1571.3 166.66 1572.75 164.734C1573.31 163.952 1574.29 163.473 1575.42 162.585C1576.27 164.406 1577.03 165.918 1577.68 167.469C1582.03 177.866 1584.91 188.698 1587.12 199.72C1587.47 200.955 1587.89 202.169 1588.38 203.356C1590.27 200.986 1591.1 198.705 1592.21 196.588C1593.74 193.689 1595.11 190.702 1596.71 187.848C1597.14 187.079 1598.15 186.638 1599.23 185.762C1600.15 189.417 1601.17 192.536 1601.68 195.737C1602.56 201.358 1603.07 207.042 1603.85 212.688C1605.07 221.58 1606.24 230.484 1607.71 239.331C1608.81 245.966 1610.37 252.526 1611.65 259.13C1611.97 260.636 1612.07 262.178 1611.95 263.711C1611.89 264.342 1610.95 265.047 1610.26 265.299C1609.93 265.322 1609.6 265.266 1609.31 265.135C1609.01 265.005 1608.74 264.804 1608.54 264.549C1607.74 263.44 1607.2 262.149 1606.51 260.958C1606.25 260.544 1605.95 260.15 1605.63 259.779L1602.21 259.149C1601.53 259.855 1601.43 261.04 1599.84 260.409C1598.78 257.794 1597.64 254.921 1596.46 252.073C1595.2 249.079 1593.94 246.105 1592.68 243.074L1595.51 240.9C1594.5 237.661 1593.49 234.397 1592.68 231.807L1595.55 226.993C1595.03 224.781 1594.61 222.978 1594.19 221.208C1595.38 220.786 1596.26 222.248 1597.16 221.208V221.227C1596.69 222.941 1596.64 223.243 1597.63 223.867C1597.81 224.05 1598.02 224.199 1598.26 224.308C1598.26 224.308 1598.26 224.377 1598.26 224.409L1597.48 226.488L1598.05 226.627C1598.11 225.896 1598.18 225.165 1598.26 224.409L1598.32 224.264L1597.65 223.867C1596.97 223.174 1597.09 222.203 1597.18 221.227C1597.18 221.195 1597.18 221.164 1597.18 221.132L1597.15 221.164C1596.45 218.706 1595.73 216.274 1595.03 213.835C1595.02 213.756 1595.02 213.675 1595.04 213.598C1595.06 213.521 1595.1 213.449 1595.15 213.388C1595.23 213.299 1595.41 213.293 1595.7 213.211C1596.26 214.402 1596.76 215.656 1597.42 216.816C1597.77 217.446 1598.22 218.303 1599.45 217.692C1598.4 214.541 1597.36 211.459 1596.38 208.359C1596.11 207.646 1596.01 206.875 1596.1 206.115C1596.19 205.355 1596.46 204.628 1596.89 203.998C1598.11 202.108 1597.71 200.104 1596.36 197.785C1595.48 199.43 1594.66 200.898 1593.89 202.392C1590.65 208.693 1587.45 214.963 1584.17 221.214C1583.06 223.344 1581.88 225.48 1579.66 226.69L1575.73 226.06C1575.1 226.873 1574.64 227.534 1574.2 228.139C1573.71 228.001 1573.28 228.02 1573.09 227.812C1570.57 225.058 1569.35 221.68 1568.51 218.158C1568.37 217.528 1568.98 216.715 1569.36 215.637L1572.98 218.158C1573.02 218.158 1572.92 218.284 1573.04 218.215C1572.6 217.28 1572.25 216.307 1571.98 215.31C1571.49 211.895 1570.37 208.601 1568.68 205.593C1568.38 205.082 1568.52 204.332 1568.41 203.274C1569.29 203.445 1570.18 203.544 1571.07 203.57C1571.89 203.441 1572.7 203.241 1573.48 202.971C1572.81 197.3 1572.17 191.963 1571.53 186.587L1574.16 185.957C1574.16 186.005 1574.16 186.054 1574.16 186.102C1574.09 186.155 1574.03 186.224 1573.99 186.304C1573.96 186.386 1574.05 186.518 1574.08 186.625C1574.08 186.455 1574.14 186.279 1574.16 186.102L1574.29 186.001C1572.74 184.073 1572.2 181.773 1571.73 179.404C1572.62 178.931 1573.33 178.553 1574.17 178.099C1573.72 176.297 1573.85 174.35 1572.14 172.535C1571.26 174.337 1570.47 175.812 1569.8 177.343C1564.96 188.232 1560.15 199.127 1554.22 209.481C1553.7 210.572 1553.1 211.624 1552.43 212.631C1552.19 212.849 1551.92 213.017 1551.62 213.125C1551.31 213.233 1550.99 213.28 1550.67 213.262C1550.44 213.184 1550.23 213.049 1550.06 212.869C1549.89 212.688 1549.77 212.468 1549.71 212.228C1549.45 209.846 1549.31 207.458 1549.17 205.063C1549.17 204.836 1549.52 204.597 1549.71 204.364C1550.45 204.03 1551.17 205.561 1552.04 204.219C1551.89 201.459 1548.46 199.102 1550.48 195.397L1553.77 198.617C1553.47 197.549 1553.12 196.497 1552.71 195.466C1551.32 192.7 1549.84 189.996 1549.8 186.739C1549.83 186.467 1549.8 186.193 1549.71 185.934C1549.63 185.675 1549.49 185.436 1549.31 185.234C1549.13 185.031 1548.9 184.869 1548.66 184.757C1548.41 184.645 1548.14 184.586 1547.87 184.583C1547.24 185.497 1546.53 186.474 1545.98 187.488C1543.87 191.446 1541.88 195.472 1539.73 199.411C1538.34 201.982 1536.77 204.452 1535.19 206.929C1534.92 207.351 1534.18 207.477 1533.42 207.855C1532.76 205.303 1533.76 203.393 1534.66 201.616ZM1583.46 212.285C1585.26 210.829 1584.29 209.764 1583.65 208.554C1581.7 209.695 1582.24 210.836 1583.46 212.285ZM1580.13 216.324C1580.42 216.689 1580.75 217.018 1581.11 217.301C1581.41 216.954 1581.74 216.74 1581.78 216.482C1581.89 215.851 1581.04 215.221 1580.52 215.53C1580.25 215.662 1580.04 216.185 1580.13 216.324ZM1578.31 223.054C1579.02 221.239 1578.89 220.307 1576.7 219.009L1578.31 223.054Z" fill="#1D71B8" fill-opacity="0.1"/>
<path fill-rule="evenodd" clip-rule="evenodd" d="M1597.58 259.118C1597.67 259.846 1597.67 260.582 1597.58 261.31C1595.06 260.68 1594.84 258.569 1594.15 256.975C1590.16 247.806 1589.42 245.179 1589.99 242.929C1591.76 245.33 1596.46 255.292 1597.58 259.118Z" fill="#1D71B8" fill-opacity="0.1"/>
<path fill-rule="evenodd" clip-rule="evenodd" d="M1558.62 248.588C1558.16 248.361 1557.72 248.285 1557.57 248.033C1556.63 246.578 1555.68 245.103 1554.87 243.578C1553.61 241.246 1552.42 238.858 1551.17 236.508C1550.84 235.878 1550.41 235.329 1550.05 234.787C1549.89 234.79 1549.73 234.826 1549.59 234.892C1549.44 234.958 1549.31 235.052 1549.2 235.17C1549.1 235.288 1549.01 235.427 1548.96 235.577C1548.91 235.728 1548.89 235.888 1548.9 236.048C1548.9 237.976 1548 239.583 1547.18 241.221C1546.96 241.656 1546.88 242.141 1546.55 243.112L1548.5 241.221C1549.7 243.408 1547.67 244.807 1547.58 246.445C1548.09 247.239 1548.52 246.332 1548.96 246.527C1549.07 246.666 1549.28 246.811 1549.28 246.943C1549.19 248.361 1549.11 249.779 1548.95 251.19C1548.92 251.336 1548.85 251.472 1548.75 251.582C1548.65 251.693 1548.52 251.775 1548.38 251.82C1548.19 251.834 1548.01 251.81 1547.83 251.748C1547.65 251.686 1547.49 251.589 1547.35 251.461C1546.94 250.862 1546.58 250.235 1546.26 249.583C1542.74 243.446 1539.89 236.98 1537.03 230.528C1536.62 229.62 1536.16 228.751 1535.64 227.679C1534.62 228.757 1534.7 229.91 1534.43 230.981L1535.87 231.75C1535.7 233.159 1535.18 234.504 1534.36 235.663C1534.39 235.683 1534.41 235.704 1534.43 235.726C1534.43 235.827 1534.43 235.928 1534.48 236.035C1534.48 235.972 1534.56 235.89 1534.54 235.846C1534.52 235.796 1534.48 235.755 1534.43 235.726V235.632L1535.99 236.01C1535.62 239.161 1535.23 242.356 1534.84 245.714C1535.3 245.873 1535.78 245.991 1536.27 246.067C1536.8 246.054 1537.32 245.995 1537.85 245.891C1537.78 246.521 1537.85 246.962 1537.68 247.264C1536.68 249.047 1536.02 251 1535.73 253.024C1535.57 253.616 1535.36 254.192 1535.1 254.744C1535.17 254.788 1535.1 254.744 1535.13 254.744L1537.28 253.238C1537.51 253.868 1537.87 254.341 1537.78 254.713C1537.39 256.824 1536.45 258.797 1535.07 260.441C1534.96 260.561 1534.7 260.554 1534.44 260.636L1533.53 259.376L1531.2 259.741C1529.88 259.029 1529.18 257.763 1528.52 256.502C1526.58 252.791 1524.68 249.06 1522.76 245.342C1522.3 244.454 1521.83 243.584 1521.3 242.608C1520.5 243.981 1520.26 245.179 1520.98 246.294C1521.24 246.667 1521.4 247.097 1521.46 247.548C1521.51 247.999 1521.45 248.455 1521.28 248.878C1520.71 250.718 1520.09 252.539 1519.47 254.41C1520.2 254.776 1520.46 254.253 1520.67 253.887C1521.06 253.2 1521.36 252.457 1521.69 251.757C1521.86 251.801 1521.97 251.808 1522.01 251.858C1522.04 251.895 1522.07 251.937 1522.08 251.983C1522.09 252.028 1522.1 252.076 1522.09 252.123C1521.67 253.572 1521.25 255.009 1520.83 256.471C1520.83 256.471 1520.83 256.471 1520.83 256.528C1520.9 256.792 1520.92 257.07 1520.87 257.341C1520.82 257.611 1520.71 257.867 1520.55 258.09C1520.45 258.16 1520.32 258.235 1520.16 258.324L1520.2 258.412C1520.25 258.859 1520.28 259.294 1520.32 259.729L1520.65 259.647C1520.5 259.231 1520.35 258.821 1520.2 258.387C1520.19 258.368 1520.19 258.349 1520.2 258.33C1520.33 258.264 1520.46 258.174 1520.56 258.065C1521.15 257.693 1521.12 257.517 1520.84 256.502V256.465C1521.38 257.095 1521.89 256.225 1522.6 256.465C1522.35 257.517 1522.1 258.582 1521.79 259.893L1523.49 262.747L1521.81 268.141L1523.49 269.402C1522.73 271.197 1521.97 272.962 1521.23 274.739C1520.5 276.516 1519.86 278.129 1519.23 279.679C1518.29 280.083 1518.23 279.364 1517.83 278.948L1515.8 279.333C1515.61 279.554 1515.44 279.788 1515.28 280.032C1514.87 280.738 1514.55 281.5 1514.08 282.162C1513.96 282.312 1513.8 282.431 1513.62 282.508C1513.44 282.584 1513.25 282.617 1513.06 282.603C1512.64 282.458 1512.09 282.023 1512.05 281.664C1511.98 280.755 1512.04 279.841 1512.23 278.948C1512.99 275.029 1513.91 271.147 1514.57 267.209C1515.44 261.966 1516.13 256.685 1516.86 251.417C1517.32 248.071 1517.61 244.7 1518.12 241.366C1518.41 239.476 1519.02 237.585 1519.57 235.449C1520.2 235.972 1520.82 236.23 1521.07 236.709C1522.01 238.404 1522.83 240.169 1523.74 241.889C1524.35 243.306 1525.11 244.653 1526.01 245.903C1526.29 245.199 1526.54 244.48 1526.74 243.748C1527.97 237.206 1529.85 230.802 1532.34 224.629C1532.73 223.709 1533.18 222.815 1533.68 221.731C1534.26 222.087 1534.79 222.51 1535.27 222.991C1536.13 224.135 1536.9 225.339 1537.58 226.595C1539.7 230.685 1541.74 234.819 1543.81 238.928C1544.03 239.356 1544.33 239.747 1544.68 240.276C1545.62 239.268 1545.75 238.134 1546.17 237.125C1546.75 235.714 1547.27 234.264 1547.87 232.853C1548.09 232.389 1548.38 231.964 1548.74 231.593C1548.95 231.362 1549.24 231.223 1549.55 231.202C1549.86 231.182 1550.16 231.284 1550.4 231.485C1550.91 231.976 1551.36 232.538 1551.71 233.155C1553.79 237.031 1555.86 240.912 1557.84 244.838C1558.38 245.916 1558.98 247.063 1558.62 248.588ZM1528.81 248.978C1528.42 249.703 1527.85 250.327 1528.92 251.19C1529.64 250.327 1529.96 249.653 1528.81 248.953V248.978ZM1530.69 253.112C1530.37 252.917 1529.88 253.289 1529.93 253.679C1529.93 253.831 1530.15 253.957 1530.33 254.165C1530.55 253.994 1530.74 253.8 1530.91 253.585C1530.95 253.497 1530.8 253.188 1530.68 253.112H1530.69ZM1532.95 255.173C1531.64 255.942 1531.58 256.496 1532 257.574C1532.32 256.71 1532.52 256.2 1532.93 255.173H1532.95Z" fill="#1D71B8" fill-opacity="0.1"/>
<path fill-rule="evenodd" clip-rule="evenodd" d="M1520.55 278.955C1520.5 279.386 1520.5 279.822 1520.55 280.253C1522.04 279.868 1522.17 278.627 1522.58 277.682C1524.95 272.25 1525.39 270.687 1525.04 269.357C1524 270.775 1521.22 276.68 1520.55 278.955Z" fill="#1D71B8" fill-opacity="0.1"/>
</g>
<g opacity="0.1">
<path d="M1399.9 432.994C1399.74 433.133 1399.53 433.205 1399.32 433.192C1399.11 433.179 1398.91 433.084 1398.76 432.926C1398.62 432.768 1398.55 432.562 1398.56 432.352C1398.57 432.143 1398.66 431.947 1398.82 431.808L1401.73 429.257C1401.81 429.188 1401.9 429.135 1402 429.102C1402.1 429.068 1402.2 429.054 1402.31 429.061C1402.41 429.068 1402.52 429.094 1402.61 429.14C1402.71 429.186 1402.79 429.249 1402.86 429.327C1403 429.485 1403.08 429.69 1403.07 429.899C1403.06 430.107 1402.96 430.302 1402.81 430.441L1399.9 432.994Z" fill="#80AFCF"/>
<path d="M1405.22 433.834C1405.14 433.903 1405.05 433.956 1404.95 433.99C1404.85 434.024 1404.75 434.038 1404.64 434.032C1404.54 434.025 1404.43 433.998 1404.34 433.952C1404.24 433.906 1404.16 433.842 1404.09 433.764C1404.02 433.686 1403.96 433.595 1403.93 433.497C1403.89 433.399 1403.88 433.295 1403.88 433.192C1403.89 433.089 1403.91 432.987 1403.96 432.894C1404 432.801 1404.07 432.718 1404.14 432.649L1407.05 430.097C1407.13 430.028 1407.22 429.976 1407.32 429.942C1407.42 429.908 1407.52 429.895 1407.63 429.901C1407.73 429.908 1407.84 429.935 1407.93 429.98C1408.03 430.026 1408.11 430.089 1408.18 430.167C1408.25 430.245 1408.31 430.335 1408.34 430.433C1408.38 430.531 1408.4 430.635 1408.39 430.739C1408.39 430.842 1408.36 430.944 1408.32 431.037C1408.27 431.131 1408.21 431.214 1408.13 431.283L1405.22 433.834Z" fill="#80AFCF"/>
<path d="M1410.53 435.01C1410.45 435.079 1410.36 435.132 1410.26 435.166C1410.16 435.2 1410.05 435.214 1409.95 435.208C1409.84 435.202 1409.74 435.176 1409.64 435.13C1409.55 435.085 1409.46 435.021 1409.39 434.944C1409.25 434.785 1409.18 434.579 1409.19 434.37C1409.2 434.16 1409.29 433.965 1409.45 433.825L1412.35 431.277C1412.43 431.207 1412.52 431.155 1412.62 431.121C1412.72 431.087 1412.83 431.073 1412.93 431.08C1413.04 431.086 1413.14 431.114 1413.24 431.16C1413.33 431.206 1413.42 431.27 1413.49 431.349C1413.56 431.426 1413.62 431.517 1413.65 431.615C1413.69 431.713 1413.7 431.817 1413.7 431.92C1413.69 432.024 1413.66 432.125 1413.62 432.218C1413.57 432.311 1413.51 432.394 1413.43 432.463L1410.53 435.01Z" fill="#80AFCF"/>
<path d="M1419.31 454.353C1419.24 454.421 1419.17 454.505 1419.13 454.598C1419.08 454.692 1419.06 454.793 1419.05 454.897C1419.05 455 1419.06 455.104 1419.1 455.202C1419.14 455.3 1419.19 455.391 1419.26 455.468C1419.4 455.624 1419.6 455.719 1419.82 455.733C1420.03 455.746 1420.24 455.676 1420.39 455.539L1423.3 452.986C1423.38 452.918 1423.44 452.834 1423.49 452.741C1423.53 452.647 1423.56 452.546 1423.57 452.442C1423.57 452.338 1423.56 452.234 1423.52 452.135C1423.48 452.037 1423.43 451.946 1423.36 451.868C1423.29 451.79 1423.2 451.727 1423.11 451.681C1423.01 451.636 1422.91 451.609 1422.8 451.603C1422.7 451.597 1422.59 451.611 1422.49 451.645C1422.39 451.679 1422.3 451.732 1422.22 451.801L1419.31 454.353Z" fill="#80AFCF"/>
<path d="M1419.06 449.06C1418.98 449.128 1418.92 449.211 1418.88 449.304C1418.83 449.397 1418.8 449.498 1418.8 449.602C1418.79 449.706 1418.81 449.81 1418.84 449.908C1418.88 450.006 1418.94 450.096 1419.01 450.174C1419.08 450.252 1419.16 450.315 1419.26 450.361C1419.35 450.406 1419.46 450.433 1419.56 450.44C1419.67 450.446 1419.77 450.433 1419.87 450.399C1419.97 450.365 1420.06 450.313 1420.14 450.244L1423.06 447.697C1423.14 447.629 1423.2 447.545 1423.25 447.452C1423.29 447.358 1423.32 447.257 1423.32 447.153C1423.33 447.05 1423.31 446.946 1423.28 446.848C1423.24 446.75 1423.18 446.659 1423.11 446.582C1422.97 446.426 1422.77 446.331 1422.56 446.317C1422.35 446.304 1422.14 446.374 1421.98 446.511L1419.06 449.06Z" fill="#80AFCF"/>
<path d="M1418.47 443.746C1418.39 443.815 1418.32 443.898 1418.28 443.991C1418.23 444.085 1418.21 444.186 1418.2 444.29C1418.2 444.394 1418.21 444.499 1418.25 444.597C1418.28 444.696 1418.34 444.786 1418.41 444.864C1418.48 444.942 1418.56 445.006 1418.66 445.051C1418.76 445.096 1418.86 445.123 1418.96 445.129C1419.07 445.135 1419.18 445.121 1419.27 445.087C1419.37 445.053 1419.46 445 1419.54 444.931L1422.45 442.38C1422.53 442.311 1422.59 442.227 1422.64 442.134C1422.68 442.041 1422.71 441.939 1422.71 441.836C1422.72 441.732 1422.7 441.628 1422.67 441.53C1422.63 441.432 1422.58 441.341 1422.5 441.264C1422.43 441.186 1422.35 441.123 1422.25 441.077C1422.16 441.031 1422.05 441.004 1421.95 440.998C1421.84 440.991 1421.74 441.005 1421.64 441.039C1421.54 441.072 1421.45 441.125 1421.37 441.193L1418.47 443.746Z" fill="#80AFCF"/>
<path d="M1419.38 459.518L1413.73 442.547L1420.53 436.566L1422.03 457.196L1419.38 459.518Z" fill="#80AFCF"/>
<path d="M1394.69 432.348L1411.21 439.78L1418.02 433.802L1397.33 430.026L1394.69 432.348Z" fill="#80AFCF"/>
<path d="M1400.53 454.08C1399.38 455.091 1398.26 455.7 1397.21 454.553C1396.17 453.409 1396.92 452.384 1398.07 451.373L1421.39 429.273C1422.54 428.263 1424.86 427.897 1425.9 429.042L1426.25 429.407C1427.29 430.552 1426.66 432.778 1425.51 433.784L1400.53 454.08Z" fill="#80AFCF"/>
<path d="M1393.08 450.791L1397.77 452.376L1401.18 449.384L1394.4 449.632L1393.08 450.791Z" fill="#80AFCF"/>
<path d="M1400.55 459.018L1399.48 454.251L1402.88 451.261L1401.87 457.854L1400.55 459.018Z" fill="#80AFCF"/>
</g>
<g opacity="0.1">
<path d="M956.615 342.136C956.414 342.25 956.174 342.28 955.947 342.219C955.72 342.158 955.526 342.01 955.406 341.809C955.289 341.607 955.256 341.369 955.314 341.146C955.372 340.923 955.517 340.734 955.718 340.619L959.416 338.523C959.515 338.467 959.625 338.43 959.739 338.416C959.853 338.402 959.97 338.411 960.081 338.441C960.193 338.472 960.298 338.524 960.39 338.594C960.482 338.664 960.56 338.752 960.619 338.851C960.736 339.052 960.769 339.29 960.711 339.512C960.653 339.734 960.509 339.923 960.309 340.037L956.615 342.136Z" fill="#80AFCF"/>
<path d="M962.151 344.226C962.052 344.283 961.942 344.319 961.828 344.334C961.713 344.348 961.597 344.34 961.485 344.309C961.373 344.279 961.268 344.226 961.176 344.156C961.084 344.085 961.006 343.997 960.948 343.897C960.889 343.798 960.851 343.688 960.834 343.575C960.818 343.461 960.825 343.346 960.853 343.236C960.882 343.126 960.932 343.023 961.002 342.933C961.071 342.843 961.158 342.768 961.257 342.711L964.951 340.612C965.05 340.556 965.16 340.52 965.275 340.506C965.389 340.492 965.505 340.5 965.617 340.531C965.728 340.561 965.833 340.613 965.926 340.684C966.018 340.754 966.095 340.841 966.154 340.941C966.213 341.04 966.253 341.15 966.269 341.263C966.286 341.377 966.28 341.492 966.252 341.602C966.223 341.713 966.173 341.816 966.104 341.907C966.035 341.997 965.948 342.073 965.849 342.129L962.151 344.226Z" fill="#80AFCF"/>
<path d="M967.596 346.673C967.497 346.73 967.387 346.767 967.273 346.781C967.158 346.796 967.042 346.788 966.93 346.758C966.818 346.727 966.713 346.676 966.62 346.606C966.528 346.536 966.449 346.448 966.39 346.349C966.273 346.147 966.24 345.909 966.299 345.686C966.357 345.463 966.502 345.274 966.702 345.159L970.394 343.064C970.493 343.007 970.604 342.971 970.718 342.957C970.833 342.942 970.95 342.951 971.062 342.982C971.175 343.012 971.28 343.065 971.372 343.136C971.465 343.207 971.543 343.295 971.601 343.395C971.66 343.494 971.698 343.604 971.714 343.717C971.731 343.831 971.724 343.946 971.696 344.056C971.667 344.166 971.616 344.269 971.547 344.359C971.478 344.449 971.391 344.525 971.292 344.581L967.596 346.673Z" fill="#80AFCF"/>
<path d="M972.743 369.441C972.643 369.498 972.557 369.574 972.487 369.664C972.418 369.754 972.368 369.858 972.34 369.968C972.311 370.079 972.305 370.194 972.322 370.307C972.339 370.421 972.378 370.53 972.437 370.63C972.557 370.83 972.75 370.976 972.975 371.038C973.201 371.099 973.44 371.071 973.64 370.958L977.334 368.859C977.434 368.803 977.522 368.728 977.592 368.638C977.662 368.547 977.713 368.444 977.742 368.333C977.771 368.223 977.777 368.107 977.761 367.993C977.744 367.879 977.705 367.769 977.646 367.669C977.587 367.57 977.509 367.483 977.417 367.412C977.324 367.342 977.219 367.291 977.107 367.261C976.995 367.23 976.878 367.222 976.764 367.237C976.65 367.251 976.54 367.288 976.441 367.345L972.743 369.441Z" fill="#80AFCF"/>
<path d="M973.652 363.691C973.552 363.747 973.465 363.822 973.395 363.912C973.325 364.002 973.274 364.105 973.246 364.215C973.217 364.326 973.211 364.441 973.227 364.555C973.244 364.668 973.283 364.778 973.342 364.877C973.401 364.976 973.479 365.064 973.571 365.134C973.663 365.204 973.768 365.256 973.88 365.287C973.991 365.317 974.108 365.326 974.222 365.312C974.336 365.298 974.446 365.262 974.545 365.205L978.256 363.117C978.355 363.06 978.442 362.984 978.511 362.894C978.58 362.804 978.63 362.7 978.659 362.59C978.687 362.479 978.693 362.364 978.676 362.251C978.659 362.137 978.62 362.028 978.561 361.928C978.442 361.728 978.248 361.582 978.023 361.52C977.798 361.459 977.559 361.487 977.358 361.6L973.652 363.691Z" fill="#80AFCF"/>
<path d="M974.193 357.842C974.093 357.898 974.006 357.974 973.936 358.064C973.866 358.154 973.815 358.258 973.786 358.368C973.757 358.479 973.75 358.595 973.767 358.709C973.783 358.823 973.822 358.933 973.881 359.032C973.94 359.132 974.018 359.219 974.111 359.289C974.203 359.359 974.309 359.411 974.421 359.441C974.533 359.471 974.649 359.479 974.763 359.465C974.878 359.45 974.988 359.414 975.087 359.357L978.785 357.26C978.884 357.204 978.971 357.128 979.04 357.038C979.109 356.947 979.159 356.844 979.188 356.733C979.216 356.623 979.222 356.508 979.205 356.394C979.188 356.281 979.149 356.171 979.09 356.072C979.031 355.972 978.954 355.885 978.862 355.815C978.769 355.744 978.664 355.692 978.553 355.662C978.441 355.631 978.325 355.623 978.21 355.637C978.096 355.651 977.986 355.687 977.887 355.743L974.193 357.842Z" fill="#80AFCF"/>
<path d="M971.667 375.013L969.36 355.495L978.017 350.578L975.03 373.106L971.667 375.013Z" fill="#80AFCF"/>
<path d="M951.151 340.279L967.274 351.958L975.93 347.045L954.509 338.369L951.151 340.279Z" fill="#80AFCF"/>
<path d="M952.591 364.959C951.128 365.791 949.791 366.196 948.92 364.729C948.058 363.267 949.088 362.331 950.55 361.499L980.562 342.923C982.029 342.094 984.603 342.216 985.47 343.681L985.757 344.15C986.624 345.614 985.449 347.869 983.985 348.694L952.591 364.959Z" fill="#80AFCF"/>
<path d="M945.311 359.761L950.009 362.512L954.336 360.053L946.989 358.808L945.311 359.761Z" fill="#80AFCF"/>
<path d="M951.52 370.278L951.425 364.91L955.756 362.453L953.2 369.32L951.52 370.278Z" fill="#80AFCF"/>
</g>
<path d="M1706.76 727.447C1658.23 669.146 1547.12 649.107 1441.6 661.062C1336.08 673.017 1234.69 711.891 1138.9 753.34C1043.12 794.789 948.657 840.057 845.701 867.888C742.744 895.72 627.196 904.136 542.648 870.919C484.471 848.062 441.937 806.452 372.537 799.995C309.758 794.164 243.039 818.872 180.591 840.109C118.144 861.347 45.6227 880.181 -9.90732 862.808C-66.2787 845.156 -83.8891 793.843 -65.7404 747.946C-47.5916 702.049 -1.12145 661.033 48.3287 624.765C97.7789 588.496 152.034 554.72 193.533 514.25C235.032 473.779 262.957 424.067 248.634 381.309C234.31 338.551 69.9999 266.861 -4.50021 362.4" stroke="#1D71B8" stroke-opacity="0.1" stroke-width="1.63" stroke-miterlimit="10" stroke-linecap="round" stroke-dasharray="3.41 6.4"/>
<g clip-path="url(#clip1_606_378)">
<path fill-rule="evenodd" clip-rule="evenodd" d="M1477.42 458.455C1481.47 451.839 1485.69 445.285 1489.93 438.75C1490.66 437.712 1491.56 436.764 1492.61 435.934C1493.09 435.591 1493.72 435.417 1494.35 435.45C1494.98 435.483 1495.58 435.72 1496 436.11C1496.72 436.732 1497.32 437.442 1497.78 438.215C1499.01 440.59 1500.07 443.035 1501.25 445.43C1502.1 447.112 1502.38 449.028 1504.3 450.729C1505 449.828 1505.61 449.173 1506.06 448.448C1510.3 441.517 1514.43 434.547 1518.78 427.653C1520.17 425.531 1521.75 423.498 1523.5 421.572C1524.18 420.791 1525.37 420.312 1526.74 419.424C1527.76 421.245 1528.68 422.757 1529.47 424.307C1534.74 434.705 1538.22 445.537 1540.89 456.558C1541.32 457.794 1541.82 459.008 1542.42 460.194C1544.7 457.825 1545.71 455.544 1547.05 453.427C1548.91 450.528 1550.57 447.541 1552.5 444.686C1553.02 443.918 1554.24 443.476 1555.55 442.601C1556.66 446.255 1557.9 449.375 1558.51 452.576C1559.58 458.197 1560.19 463.881 1561.14 469.527C1562.61 478.418 1564.03 487.322 1565.81 496.17C1567.14 502.805 1569.03 509.365 1570.58 515.969C1570.96 517.474 1571.08 519.017 1570.94 520.55C1570.87 521.18 1569.73 521.886 1568.89 522.138C1568.5 522.161 1568.1 522.105 1567.74 521.974C1567.38 521.844 1567.06 521.643 1566.81 521.388C1565.85 520.279 1565.19 518.987 1564.36 517.796C1564.04 517.383 1563.68 516.989 1563.29 516.618L1559.15 515.988C1558.33 516.694 1558.21 517.878 1556.29 517.248C1555.01 514.633 1553.63 511.76 1552.2 508.911C1550.67 505.918 1549.15 502.944 1547.63 499.913L1551.05 497.739C1549.83 494.5 1548.6 491.236 1547.62 488.646L1551.1 483.831C1550.47 481.619 1549.96 479.817 1549.45 478.047C1550.89 477.624 1551.95 479.086 1553.05 478.047V478.065C1552.47 479.779 1552.42 480.082 1553.61 480.706C1553.83 480.889 1554.09 481.038 1554.37 481.147C1554.37 481.147 1554.37 481.216 1554.37 481.248L1553.44 483.327L1554.11 483.466C1554.19 482.735 1554.27 482.004 1554.37 481.248L1554.44 481.103L1553.63 480.706C1552.81 480.013 1552.96 479.042 1553.07 478.065C1553.07 478.034 1553.07 478.002 1553.07 477.971L1553.03 478.002C1552.19 475.545 1551.31 473.112 1550.47 470.674C1550.45 470.595 1550.45 470.514 1550.48 470.437C1550.5 470.36 1550.55 470.288 1550.61 470.226C1550.7 470.138 1550.93 470.132 1551.27 470.05C1551.95 471.241 1552.56 472.495 1553.36 473.654C1553.79 474.285 1554.32 475.142 1555.81 474.53C1554.55 471.38 1553.28 468.298 1552.1 465.198C1551.77 464.484 1551.65 463.714 1551.76 462.954C1551.86 462.194 1552.2 461.467 1552.72 460.837C1554.2 458.947 1553.71 456.943 1552.08 454.624C1551.01 456.269 1550.02 457.737 1549.09 459.23C1545.17 465.532 1541.3 471.802 1537.33 478.053C1535.98 480.183 1534.56 482.319 1531.87 483.529L1527.11 482.899C1526.35 483.712 1525.8 484.373 1525.26 484.978C1524.67 484.84 1524.14 484.858 1523.92 484.651C1520.87 481.897 1519.39 478.519 1518.38 474.997C1518.2 474.366 1518.94 473.554 1519.41 472.476L1523.79 474.997C1523.83 474.997 1523.72 475.123 1523.86 475.053C1523.32 474.118 1522.9 473.146 1522.58 472.148C1521.98 468.734 1520.63 465.439 1518.58 462.431C1518.22 461.921 1518.39 461.171 1518.26 460.112C1519.32 460.283 1520.39 460.382 1521.47 460.409C1522.47 460.28 1523.44 460.08 1524.4 459.81C1523.58 454.139 1522.81 448.801 1522.03 443.426L1525.22 442.796C1525.21 442.844 1525.21 442.893 1525.22 442.941C1525.13 442.993 1525.06 443.062 1525.01 443.142C1524.97 443.224 1525.08 443.357 1525.12 443.464C1525.12 443.294 1525.19 443.117 1525.22 442.941L1525.37 442.84C1523.49 440.912 1522.84 438.612 1522.27 436.242C1523.35 435.77 1524.21 435.392 1525.23 434.938C1524.68 433.136 1524.84 431.188 1522.77 429.374C1521.7 431.176 1520.75 432.65 1519.93 434.182C1514.08 445.071 1508.26 455.966 1501.09 466.319C1500.46 467.41 1499.73 468.463 1498.92 469.47C1498.63 469.688 1498.3 469.855 1497.93 469.964C1497.57 470.072 1497.18 470.118 1496.79 470.1C1496.51 470.023 1496.26 469.888 1496.05 469.707C1495.85 469.527 1495.7 469.306 1495.63 469.067C1495.32 466.685 1495.14 464.297 1494.98 461.902C1494.98 461.675 1495.4 461.436 1495.63 461.203C1496.53 460.869 1497.4 462.4 1498.45 461.058C1498.26 458.298 1494.11 455.941 1496.57 452.236L1500.54 455.456C1500.18 454.387 1499.75 453.336 1499.25 452.305C1497.57 449.538 1495.79 446.835 1495.74 443.577C1495.78 443.306 1495.74 443.032 1495.64 442.773C1495.53 442.514 1495.36 442.275 1495.14 442.072C1494.92 441.87 1494.65 441.707 1494.35 441.595C1494.05 441.483 1493.73 441.424 1493.4 441.422C1492.64 442.336 1491.78 443.313 1491.11 444.327C1488.56 448.285 1486.15 452.311 1483.56 456.25C1481.87 458.821 1479.98 461.291 1478.07 463.767C1477.73 464.19 1476.83 464.316 1475.92 464.694C1475.12 462.142 1476.33 460.232 1477.42 458.455ZM1536.47 469.124C1538.65 467.668 1537.47 466.603 1536.7 465.393C1534.34 466.534 1534.99 467.674 1536.47 469.124ZM1532.44 473.163C1532.78 473.528 1533.18 473.856 1533.63 474.14C1533.98 473.793 1534.39 473.579 1534.43 473.32C1534.56 472.69 1533.54 472.06 1532.91 472.369C1532.58 472.501 1532.33 473.024 1532.44 473.163ZM1530.23 479.893C1531.09 478.078 1530.94 477.145 1528.29 475.847L1530.23 479.893Z" fill="#1D71B8" fill-opacity="0.05"/>
<path fill-rule="evenodd" clip-rule="evenodd" d="M1553.55 515.956C1553.66 516.685 1553.66 517.421 1553.55 518.149C1550.5 517.519 1550.24 515.408 1549.4 513.814C1544.57 504.645 1543.67 502.017 1544.37 499.768C1546.51 502.169 1552.2 512.131 1553.55 515.956Z" fill="#1D71B8" fill-opacity="0.05"/>
<path fill-rule="evenodd" clip-rule="evenodd" d="M1506.41 505.427C1505.86 505.2 1505.32 505.124 1505.13 504.872C1504 503.416 1502.85 501.942 1501.87 500.417C1500.35 498.085 1498.9 495.697 1497.4 493.347C1497 492.716 1496.47 492.168 1496.04 491.626C1495.85 491.629 1495.66 491.665 1495.48 491.731C1495.31 491.796 1495.15 491.891 1495.02 492.009C1494.89 492.127 1494.79 492.265 1494.72 492.416C1494.66 492.567 1494.63 492.727 1494.65 492.887C1494.65 494.815 1493.57 496.422 1492.57 498.06C1492.3 498.495 1492.2 498.98 1491.81 499.951L1494.17 498.06C1495.62 500.247 1493.16 501.646 1493.05 503.284C1493.67 504.078 1494.19 503.171 1494.72 503.366C1494.85 503.505 1495.11 503.65 1495.1 503.782C1495 505.2 1494.91 506.618 1494.72 508.029C1494.68 508.175 1494.59 508.311 1494.47 508.421C1494.35 508.532 1494.19 508.614 1494.02 508.659C1493.8 508.673 1493.57 508.649 1493.35 508.587C1493.14 508.525 1492.94 508.428 1492.77 508.3C1492.28 507.701 1491.84 507.074 1491.46 506.422C1487.2 500.285 1483.75 493.819 1480.28 487.367C1479.79 486.459 1479.23 485.589 1478.6 484.518C1477.37 485.596 1477.46 486.749 1477.14 487.82L1478.89 488.589C1478.68 489.998 1478.05 491.343 1477.06 492.502C1477.09 492.521 1477.12 492.543 1477.14 492.565C1477.14 492.666 1477.14 492.767 1477.21 492.874C1477.21 492.811 1477.3 492.729 1477.27 492.685C1477.25 492.635 1477.2 492.594 1477.14 492.565V492.471L1479.03 492.849C1478.58 496 1478.11 499.194 1477.63 502.553C1478.19 502.712 1478.77 502.83 1479.36 502.906C1480 502.893 1480.64 502.834 1481.27 502.73C1481.2 503.36 1481.27 503.801 1481.07 504.103C1479.86 505.886 1479.06 507.839 1478.71 509.863C1478.52 510.455 1478.27 511.03 1477.95 511.583C1478.04 511.627 1477.95 511.583 1477.99 511.583L1480.59 510.077C1480.86 510.707 1481.3 511.18 1481.2 511.552C1480.72 513.663 1479.59 515.636 1477.91 517.28C1477.78 517.399 1477.47 517.393 1477.15 517.475L1476.06 516.215L1473.23 516.58C1471.64 515.868 1470.79 514.602 1469.99 513.341C1467.65 509.63 1465.35 505.899 1463.02 502.181C1462.47 501.293 1461.89 500.423 1461.25 499.446C1460.28 500.82 1459.99 502.018 1460.87 503.133C1461.18 503.506 1461.38 503.936 1461.44 504.387C1461.51 504.837 1461.43 505.294 1461.23 505.716C1460.53 507.557 1459.79 509.378 1459.03 511.249C1459.92 511.615 1460.24 511.092 1460.49 510.726C1460.97 510.039 1461.33 509.296 1461.73 508.596C1461.93 508.64 1462.06 508.647 1462.12 508.697C1462.15 508.734 1462.18 508.776 1462.2 508.822C1462.21 508.867 1462.22 508.915 1462.21 508.962C1461.71 510.411 1461.19 511.848 1460.69 513.31C1460.69 513.31 1460.69 513.31 1460.69 513.367C1460.77 513.631 1460.79 513.909 1460.73 514.179C1460.68 514.45 1460.54 514.706 1460.35 514.929C1460.22 514.999 1460.07 515.074 1459.87 515.162L1459.92 515.251C1459.98 515.698 1460.02 516.133 1460.07 516.568L1460.47 516.486C1460.28 516.07 1460.1 515.66 1459.92 515.225C1459.91 515.207 1459.91 515.188 1459.92 515.169C1460.08 515.102 1460.23 515.013 1460.36 514.904C1461.07 514.532 1461.04 514.356 1460.69 513.341V513.304C1461.35 513.934 1461.97 513.064 1462.83 513.304C1462.53 514.356 1462.22 515.421 1461.85 516.732L1463.91 519.586L1461.87 524.98L1463.91 526.241C1462.99 528.036 1462.06 529.801 1461.17 531.578C1460.28 533.355 1459.51 534.968 1458.75 536.518C1457.61 536.922 1457.54 536.203 1457.05 535.787L1454.59 536.172C1454.37 536.393 1454.16 536.627 1453.97 536.871C1453.47 537.577 1453.08 538.339 1452.51 539.001C1452.37 539.151 1452.18 539.27 1451.96 539.347C1451.75 539.423 1451.51 539.456 1451.28 539.442C1450.78 539.297 1450.11 538.862 1450.06 538.503C1449.98 537.594 1450.05 536.68 1450.27 535.787C1451.2 531.868 1452.32 527.986 1453.11 524.048C1454.16 518.805 1455 513.524 1455.88 508.256C1456.44 504.91 1456.79 501.539 1457.4 498.205C1457.76 496.315 1458.5 494.424 1459.15 492.288C1459.92 492.811 1460.68 493.069 1460.98 493.548C1462.12 495.243 1463.11 497.008 1464.2 498.728C1464.94 500.145 1465.86 501.491 1466.95 502.742C1467.3 502.038 1467.59 501.319 1467.83 500.587C1469.32 494.045 1471.6 487.641 1474.62 481.468C1475.09 480.548 1475.63 479.653 1476.24 478.57C1476.94 478.925 1477.58 479.348 1478.16 479.83C1479.19 480.974 1480.13 482.178 1480.95 483.434C1483.52 487.524 1485.98 491.658 1488.49 495.766C1488.76 496.195 1489.12 496.586 1489.54 497.115C1490.68 496.107 1490.84 494.972 1491.34 493.964C1492.05 492.553 1492.67 491.103 1493.4 489.692C1493.67 489.228 1494.02 488.802 1494.46 488.431C1494.71 488.201 1495.06 488.061 1495.43 488.041C1495.81 488.021 1496.17 488.123 1496.46 488.324C1497.08 488.815 1497.62 489.377 1498.05 489.994C1500.56 493.87 1503.07 497.751 1505.47 501.677C1506.12 502.755 1506.84 503.902 1506.41 505.427ZM1470.34 505.817C1469.87 506.542 1469.18 507.166 1470.47 508.029C1471.35 507.166 1471.74 506.492 1470.34 505.792V505.817ZM1472.62 509.951C1472.23 509.756 1471.63 510.128 1471.7 510.518C1471.7 510.669 1471.97 510.796 1472.18 511.003C1472.44 510.833 1472.68 510.638 1472.89 510.424C1472.93 510.335 1472.75 510.027 1472.6 509.951H1472.62ZM1475.35 512.012C1473.77 512.78 1473.69 513.335 1474.2 514.413C1474.59 513.549 1474.83 513.039 1475.32 512.012H1475.35Z" fill="#1D71B8" fill-opacity="0.05"/>
<path fill-rule="evenodd" clip-rule="evenodd" d="M1460.34 535.793C1460.28 536.225 1460.28 536.66 1460.34 537.092C1462.15 536.707 1462.31 535.466 1462.8 534.521C1465.67 529.089 1466.2 527.526 1465.78 526.196C1464.52 527.614 1461.15 533.519 1460.34 535.793Z" fill="#1D71B8" fill-opacity="0.05"/>
</g>
<defs>
<clipPath id="clip0_606_378">
<rect width="100" height="120.05" fill="white" transform="matrix(-1 0 0 1 1612 162.585)"/>
</clipPath>
<clipPath id="clip1_606_378">
<rect width="121" height="120.05" fill="white" transform="matrix(-1 0 0 1 1571 419.424)"/>
</clipPath>
</defs>
</svg>
