<svg width="102" height="208" viewBox="0 0 102 208" fill="none" xmlns="http://www.w3.org/2000/svg">
<path d="M81.2479 128.603C92.6855 128.603 101.958 119.132 101.958 107.448C101.958 95.7636 92.6855 86.2918 81.2479 86.2918C69.8102 86.2918 60.5382 95.7636 60.5382 107.448C60.5382 119.132 69.8102 128.603 81.2479 128.603Z" fill="white"/>
<path d="M37.9124 116.618C37.9124 118.093 38.3404 119.534 39.1424 120.76C39.9444 121.986 41.0842 122.942 42.4179 123.506C43.7515 124.071 45.219 124.218 46.6348 123.931C48.0506 123.643 49.3512 122.933 50.3719 121.89C51.3926 120.847 52.0878 119.519 52.3694 118.073C52.651 116.626 52.5064 115.127 51.954 113.765C51.4016 112.403 50.4662 111.238 49.2659 110.419C48.0657 109.6 46.6545 109.162 45.211 109.162C43.2753 109.162 41.4188 109.948 40.0501 111.346C38.6813 112.744 37.9124 114.641 37.9124 116.618Z" fill="white"/>
<path d="M302.918 104.442C358.683 47.4751 358.683 -44.886 302.917 -101.853C247.152 -158.819 156.738 -158.819 100.973 -101.853C45.2069 -44.8861 45.2069 47.4751 100.973 104.442C156.738 161.408 247.152 161.408 302.918 104.442Z" fill="white"/>
</svg>
