<svg width="1600" height="1174" viewBox="0 0 1600 1174" fill="none" xmlns="http://www.w3.org/2000/svg">
<g clip-path="url(#clip0_606_381)">
<path fill-rule="evenodd" clip-rule="evenodd" d="M69.6603 272.641C66.2112 265.804 62.6194 259.032 59.0082 252.28C58.3866 251.207 57.6184 250.228 56.7261 249.369C56.3168 249.015 55.7857 248.836 55.2466 248.87C54.7074 248.904 54.203 249.149 53.8411 249.551C53.228 250.195 52.7164 250.928 52.324 251.726C51.2802 254.181 50.379 256.708 49.3741 259.182C48.6544 260.921 48.4145 262.9 46.7808 264.658C46.1843 263.727 45.6591 263.05 45.2831 262.301C41.6719 255.138 38.1515 247.937 34.4495 240.813C33.269 238.62 31.9253 236.519 30.4299 234.529C29.8529 233.722 28.8415 233.227 27.6745 232.309C26.8057 234.191 26.0213 235.753 25.3535 237.355C20.8671 248.099 17.9042 259.293 15.6286 270.681C15.2684 271.958 14.8355 273.212 14.3319 274.439C12.3869 271.99 11.5246 269.633 10.3836 267.445C8.80812 264.45 7.39475 261.363 5.74799 258.414C5.30713 257.619 4.2698 257.163 3.15468 256.258C2.20812 260.035 1.15137 263.258 0.632708 266.566C-0.281437 272.374 -0.800107 278.248 -1.60403 284.082C-2.86179 293.27 -4.06769 302.471 -5.57829 311.613C-6.71287 318.47 -8.32074 325.248 -9.64333 332.072C-9.96733 333.628 -10.0699 335.222 -9.94802 336.806C-9.88968 337.457 -8.91718 338.187 -8.20402 338.447C-7.86868 338.471 -7.53267 338.412 -7.22452 338.278C-6.91637 338.143 -6.6452 337.935 -6.43409 337.672C-5.6172 336.526 -5.05313 335.191 -4.34645 333.961C-4.07384 333.533 -3.77051 333.126 -3.43882 332.743L0.0880938 332.092C0.788289 332.821 0.885545 334.045 2.52582 333.394C3.61501 330.692 4.78848 327.723 6.00734 324.779C7.304 321.686 8.60065 318.613 9.89731 315.481L6.97983 313.234C8.02364 309.887 9.06746 306.514 9.9038 303.838L6.94094 298.863C7.47905 296.578 7.91342 294.716 8.3478 292.886C7.11597 292.449 6.21481 293.96 5.28121 292.886V292.905C5.77394 294.676 5.81933 294.989 4.80146 295.634C4.61377 295.823 4.39429 295.977 4.15313 296.089C4.15313 296.089 4.15313 296.161 4.15313 296.194L4.95056 298.342L4.37354 298.486C4.30871 297.73 4.23741 296.975 4.15313 296.194L4.09476 296.044L4.78199 295.634C5.48218 294.917 5.35251 293.915 5.26175 292.905C5.26468 292.873 5.26468 292.84 5.26175 292.808L5.29419 292.84C6.01384 290.301 6.75941 287.787 7.47906 285.267C7.49292 285.186 7.48908 285.102 7.46782 285.023C7.44656 284.943 7.40837 284.869 7.35588 284.805C7.27808 284.714 7.08358 284.707 6.79183 284.623C6.21482 285.853 5.69612 287.149 5.01538 288.347C4.65231 288.998 4.1985 289.884 2.92778 289.252C4.004 285.997 5.08023 282.812 6.08514 279.609C6.37043 278.872 6.47172 278.076 6.38018 277.29C6.28864 276.505 6.00705 275.754 5.55999 275.103C4.30223 273.149 4.71718 271.079 6.1046 268.682C7.01226 270.382 7.85509 271.899 8.65253 273.442C11.9914 279.954 15.2849 286.433 18.6627 292.892C19.8103 295.093 21.0226 297.301 23.3112 298.551L27.3568 297.9C28.0051 298.74 28.4784 299.423 28.9322 300.048C29.4379 299.905 29.8853 299.925 30.0798 299.71C32.6731 296.864 33.9309 293.374 34.7932 289.734C34.9423 289.083 34.3134 288.243 33.9179 287.13L30.19 289.734C30.1511 289.734 30.2484 289.864 30.1317 289.793C30.583 288.827 30.9475 287.822 31.2209 286.791C31.7282 283.263 32.8799 279.859 34.6181 276.75C34.9293 276.223 34.7867 275.448 34.8969 274.354C33.9947 274.53 33.0797 274.633 32.1609 274.66C31.3147 274.527 30.4816 274.32 29.6713 274.041C30.3651 268.181 31.0199 262.666 31.6812 257.111L28.9711 256.46C28.9742 256.51 28.9742 256.56 28.9711 256.61C29.047 256.664 29.1092 256.736 29.1527 256.818C29.1851 256.903 29.0878 257.04 29.0554 257.15C29.0554 256.975 28.9971 256.792 28.9711 256.61L28.8415 256.506C30.4428 254.513 30.9939 252.137 31.4802 249.688C30.5595 249.2 29.8269 248.809 28.9646 248.34C29.4314 246.478 29.2953 244.466 31.0588 242.591C31.9664 244.453 32.7768 245.977 33.4705 247.559C38.4497 258.811 43.4029 270.069 49.5102 280.768C50.0498 281.895 50.6672 282.983 51.358 284.024C51.6007 284.248 51.8858 284.422 52.1965 284.534C52.5073 284.645 52.8372 284.693 53.1668 284.675C53.4082 284.595 53.6257 284.455 53.7991 284.269C53.9725 284.082 54.0962 283.854 54.1587 283.607C54.4246 281.145 54.5737 278.678 54.7098 276.203C54.7098 275.969 54.3532 275.721 54.1587 275.48C53.3937 275.135 52.6546 276.718 51.7599 275.331C51.9155 272.479 55.4489 270.043 53.3613 266.214L49.977 269.542C50.285 268.438 50.6508 267.351 51.0727 266.286C52.5055 263.428 54.0226 260.634 54.0615 257.268C54.0345 256.987 54.0659 256.704 54.1538 256.436C54.2416 256.168 54.384 255.922 54.5718 255.713C54.7596 255.503 54.9888 255.335 55.2447 255.22C55.5006 255.104 55.7777 255.043 56.0583 255.041C56.7067 255.985 57.4328 256.994 58.0033 258.042C60.1752 262.132 62.2239 266.293 64.4347 270.362C65.874 273.019 67.4819 275.572 69.1092 278.131C69.3945 278.567 70.1595 278.697 70.9375 279.088C71.6182 276.451 70.5874 274.478 69.6603 272.641ZM19.3953 283.665C17.5411 282.161 18.5395 281.061 19.2008 279.811C21.2042 280.989 20.6531 282.168 19.3953 283.665ZM22.825 287.839C22.5312 288.217 22.1914 288.556 21.8136 288.849C21.5089 288.49 21.1653 288.269 21.1264 288.002C21.0162 287.351 21.8914 286.7 22.423 287.019C22.7018 287.156 22.9158 287.696 22.825 287.839ZM24.7052 294.794C23.9725 292.918 24.1022 291.955 26.3584 290.613L24.7052 294.794Z" fill="#1D71B8" fill-opacity="0.05"/>
<path fill-rule="evenodd" clip-rule="evenodd" d="M4.85321 332.059C4.75938 332.812 4.75938 333.573 4.85321 334.325C7.44653 333.674 7.67345 331.493 8.38661 329.845C12.497 320.371 13.2621 317.656 12.6656 315.331C10.8438 317.812 6.00724 328.107 4.85321 332.059Z" fill="#1D71B8" fill-opacity="0.05"/>
<path fill-rule="evenodd" clip-rule="evenodd" d="M44.9848 321.178C45.4516 320.944 45.9054 320.866 46.0675 320.605C47.0335 319.101 48.0125 317.578 48.8423 316.002C50.139 313.593 51.3708 311.125 52.6545 308.696C52.9916 308.045 53.439 307.478 53.8085 306.918C53.9729 306.921 54.1349 306.958 54.2847 307.026C54.4345 307.094 54.569 307.192 54.68 307.314C54.791 307.435 54.8761 307.579 54.9303 307.735C54.9844 307.89 55.0064 308.056 54.995 308.221C54.995 310.213 55.9156 311.873 56.7649 313.566C56.9918 314.016 57.0761 314.517 57.4132 315.52L55.4034 313.566C54.1651 315.826 56.2592 317.272 56.3564 318.965C55.8248 319.785 55.384 318.847 54.9302 319.049C54.8199 319.192 54.5995 319.342 54.606 319.479C54.6903 320.944 54.7745 322.409 54.9366 323.868C54.9693 324.019 55.041 324.159 55.1446 324.273C55.2482 324.387 55.3799 324.472 55.5266 324.519C55.7197 324.534 55.9137 324.508 56.0966 324.444C56.2795 324.38 56.4474 324.279 56.5899 324.148C57.01 323.529 57.3849 322.881 57.7115 322.207C61.3356 315.865 64.2725 309.184 67.2224 302.516C67.6374 301.579 68.1171 300.68 68.6553 299.573C69.6991 300.687 69.6213 301.878 69.8935 302.985L68.4089 303.78C68.5873 305.236 69.1219 306.625 69.9649 307.823C69.9395 307.843 69.9157 307.865 69.8935 307.888C69.8935 307.993 69.8936 308.097 69.8417 308.207C69.8417 308.142 69.7639 308.058 69.7833 308.012C69.8071 307.961 69.8455 307.918 69.8935 307.888V307.791L68.2857 308.181C68.6747 311.437 69.0702 314.739 69.4786 318.209C68.9994 318.373 68.507 318.495 68.0069 318.574C67.4603 318.56 66.9158 318.499 66.3796 318.392C66.4445 319.043 66.3796 319.499 66.5482 319.811C67.5783 321.653 68.2598 323.671 68.558 325.763C68.719 326.374 68.9361 326.969 69.2063 327.54C69.135 327.586 69.2063 327.54 69.1739 327.54L66.9566 325.984C66.7297 326.635 66.3537 327.124 66.4444 327.508C66.8532 329.689 67.8158 331.728 69.2388 333.427C69.349 333.55 69.6148 333.544 69.8871 333.629L70.8207 332.326L73.226 332.704C74.581 331.968 75.3006 330.659 75.9814 329.357C77.9782 325.522 79.9362 321.667 81.9136 317.825C82.3869 316.907 82.8796 316.008 83.4242 314.999C84.2475 316.419 84.4939 317.656 83.7483 318.808C83.482 319.193 83.3142 319.638 83.2599 320.104C83.2057 320.57 83.2665 321.042 83.4371 321.478C84.0336 323.379 84.669 325.261 85.3108 327.195C84.5523 327.573 84.2864 327.032 84.0725 326.655C83.6641 325.945 83.3594 325.177 83.0158 324.454C82.8407 324.499 82.7305 324.506 82.6851 324.558C82.6542 324.596 82.6314 324.64 82.618 324.687C82.6046 324.734 82.601 324.783 82.6073 324.832C83.0352 326.329 83.4761 327.814 83.904 329.324C83.904 329.324 83.904 329.324 83.904 329.383C83.828 329.657 83.8142 329.944 83.8636 330.223C83.913 330.503 84.0243 330.767 84.1892 330.998C84.2994 331.07 84.4291 331.148 84.5976 331.239L84.5587 331.33C84.5069 331.792 84.468 332.242 84.4291 332.691L84.0855 332.606C84.2476 332.176 84.4031 331.753 84.5587 331.304C84.5619 331.285 84.5619 331.265 84.5587 331.245C84.4185 331.177 84.2913 331.084 84.1827 330.972C83.5733 330.588 83.6057 330.405 83.8975 329.357V329.318C83.3399 329.969 82.8083 329.07 82.0822 329.318C82.335 330.405 82.5943 331.506 82.912 332.86L81.1615 335.81L82.8926 341.384L81.1615 342.686C81.946 344.542 82.7305 346.365 83.489 348.201C84.2476 350.038 84.9089 351.705 85.5507 353.307C86.5232 353.723 86.5815 352.981 86.9965 352.551L89.0906 352.948C89.2832 353.177 89.4608 353.419 89.6222 353.671C90.0436 354.4 90.3743 355.188 90.8605 355.872C90.9862 356.027 91.1473 356.15 91.3301 356.229C91.513 356.308 91.7122 356.342 91.9108 356.328C92.3387 356.178 92.9092 355.729 92.9481 355.358C93.0172 354.418 92.9561 353.474 92.7666 352.551C91.9821 348.501 91.0291 344.49 90.3548 340.42C89.4601 335.003 88.747 329.546 87.9949 324.102C87.5216 320.645 87.2169 317.161 86.6983 313.716C86.3935 311.763 85.7646 309.809 85.2071 307.602C84.5587 308.142 83.9104 308.409 83.6576 308.904C82.6851 310.656 81.8423 312.479 80.9087 314.257C80.282 315.721 79.4972 317.112 78.5682 318.405C78.2771 317.677 78.0281 316.934 77.8226 316.178C76.5504 309.417 74.6154 302.8 72.046 296.422C71.644 295.471 71.1837 294.546 70.6651 293.426C70.0711 293.794 69.5227 294.231 69.0313 294.729C68.1491 295.91 67.3538 297.155 66.6519 298.453C64.467 302.679 62.373 306.951 60.2335 311.196C60.0066 311.639 59.6954 312.043 59.3388 312.59C58.3728 311.548 58.2366 310.376 57.8087 309.334C57.2058 307.875 56.6741 306.378 56.0582 304.919C55.8284 304.44 55.5242 304 55.157 303.617C54.9431 303.379 54.6453 303.234 54.3269 303.214C54.0085 303.193 53.6946 303.298 53.4519 303.506C52.9203 304.013 52.464 304.594 52.097 305.232C49.9575 309.236 47.8244 313.247 45.7822 317.304C45.2246 318.418 44.6152 319.603 44.9848 321.178ZM75.6896 321.582C76.0851 322.331 76.6751 322.976 75.5729 323.868C74.8273 322.976 74.4967 322.279 75.6896 321.556V321.582ZM73.7446 325.854C74.0753 325.652 74.5875 326.036 74.5291 326.44C74.5291 326.596 74.3022 326.726 74.1207 326.941C73.8978 326.765 73.6955 326.564 73.5177 326.342C73.4853 326.251 73.6344 325.932 73.7641 325.854H73.7446ZM71.4236 327.983C72.7657 328.777 72.837 329.35 72.4026 330.464C72.0719 329.572 71.8645 329.044 71.4431 327.983H71.4236Z" fill="#1D71B8" fill-opacity="0.05"/>
<path fill-rule="evenodd" clip-rule="evenodd" d="M84.1957 352.558C84.2491 353.003 84.2491 353.454 84.1957 353.899C82.6591 353.502 82.523 352.219 82.1016 351.242C79.6639 345.629 79.2101 344.015 79.5666 342.641C80.6429 344.106 83.5085 350.207 84.1957 352.558Z" fill="#1D71B8" fill-opacity="0.05"/>
</g>
<path d="M1.00001 959.61C45.553 875.338 150.869 831.523 251.797 830.645C352.724 829.767 450.497 864.926 543.004 904.351C635.512 943.775 726.866 988.429 825.81 1008.83C924.754 1029.22 1035.13 1022.11 1114.75 965.153C1169.54 925.957 1208.86 864.569 1274.82 845.168C1334.49 827.63 1398.8 849.618 1458.95 867.716C1519.09 885.814 1588.76 899.169 1641.18 867.599C1694.4 835.53 1709.68 765.306 1691.05 707.825C1672.41 650.344 1626.92 603.733 1578.73 563.832C1530.54 523.931 1477.84 488.062 1437.1 441.386C1396.37 394.711 1368.3 333.752 1380.71 275.291C1393.11 216.831 1456.76 167.569 1518.71 182.585" stroke="#1D71B8" stroke-opacity="0.1" stroke-width="1.63" stroke-miterlimit="10" stroke-linecap="round" stroke-dasharray="3.41 6.4"/>
<g clip-path="url(#clip1_606_381)">
<path fill-rule="evenodd" clip-rule="evenodd" d="M1534.66 939.616C1538.01 933 1541.5 926.446 1545 919.912C1545.61 918.874 1546.35 917.926 1547.22 917.095C1547.61 916.752 1548.13 916.579 1548.65 916.612C1549.18 916.645 1549.67 916.881 1550.02 917.271C1550.61 917.894 1551.11 918.603 1551.49 919.376C1552.5 921.752 1553.38 924.197 1554.36 926.591C1555.05 928.274 1555.29 930.189 1556.87 931.891C1557.45 930.99 1557.96 930.334 1558.33 929.61C1561.83 922.678 1565.25 915.709 1568.85 908.815C1569.99 906.692 1571.3 904.66 1572.75 902.734C1573.31 901.952 1574.29 901.473 1575.42 900.585C1576.27 902.406 1577.03 903.918 1577.68 905.469C1582.03 915.866 1584.91 926.698 1587.12 937.72C1587.47 938.955 1587.89 940.169 1588.38 941.356C1590.27 938.986 1591.1 936.705 1592.21 934.588C1593.74 931.689 1595.11 928.702 1596.71 925.848C1597.14 925.079 1598.15 924.638 1599.23 923.762C1600.15 927.417 1601.17 930.536 1601.68 933.737C1602.56 939.358 1603.07 945.042 1603.85 950.688C1605.07 959.58 1606.24 968.484 1607.71 977.331C1608.81 983.966 1610.37 990.526 1611.65 997.13C1611.97 998.636 1612.07 1000.18 1611.95 1001.71C1611.89 1002.34 1610.95 1003.05 1610.26 1003.3C1609.93 1003.32 1609.6 1003.27 1609.31 1003.14C1609.01 1003 1608.74 1002.8 1608.54 1002.55C1607.74 1001.44 1607.2 1000.15 1606.51 998.958C1606.25 998.544 1605.95 998.15 1605.63 997.779L1602.21 997.149C1601.53 997.855 1601.43 999.04 1599.84 998.409C1598.78 995.794 1597.64 992.921 1596.46 990.073C1595.2 987.079 1593.94 984.105 1592.68 981.074L1595.51 978.9C1594.5 975.661 1593.49 972.397 1592.68 969.807L1595.55 964.993C1595.03 962.781 1594.61 960.978 1594.19 959.208C1595.38 958.786 1596.26 960.248 1597.16 959.208V959.227C1596.69 960.941 1596.64 961.243 1597.63 961.867C1597.81 962.05 1598.02 962.199 1598.26 962.308C1598.26 962.308 1598.26 962.377 1598.26 962.409L1597.48 964.488L1598.05 964.627C1598.11 963.896 1598.18 963.165 1598.26 962.409L1598.32 962.264L1597.65 961.867C1596.97 961.174 1597.09 960.203 1597.18 959.227C1597.18 959.195 1597.18 959.164 1597.18 959.132L1597.15 959.164C1596.45 956.706 1595.73 954.274 1595.03 951.835C1595.02 951.756 1595.02 951.675 1595.04 951.598C1595.06 951.521 1595.1 951.449 1595.15 951.388C1595.23 951.299 1595.41 951.293 1595.7 951.211C1596.26 952.402 1596.76 953.656 1597.42 954.816C1597.77 955.446 1598.22 956.303 1599.45 955.692C1598.4 952.541 1597.36 949.459 1596.38 946.359C1596.11 945.646 1596.01 944.875 1596.1 944.115C1596.19 943.355 1596.46 942.628 1596.89 941.998C1598.11 940.108 1597.71 938.104 1596.36 935.785C1595.48 937.43 1594.66 938.898 1593.89 940.392C1590.65 946.693 1587.45 952.963 1584.17 959.214C1583.06 961.344 1581.88 963.48 1579.66 964.69L1575.73 964.06C1575.1 964.873 1574.64 965.534 1574.2 966.139C1573.71 966.001 1573.28 966.02 1573.09 965.812C1570.57 963.058 1569.35 959.68 1568.51 956.158C1568.37 955.528 1568.98 954.715 1569.36 953.637L1572.98 956.158C1573.02 956.158 1572.92 956.284 1573.04 956.215C1572.6 955.28 1572.25 954.307 1571.98 953.31C1571.49 949.895 1570.37 946.601 1568.68 943.593C1568.38 943.082 1568.52 942.332 1568.41 941.274C1569.29 941.445 1570.18 941.544 1571.07 941.57C1571.89 941.441 1572.7 941.241 1573.48 940.971C1572.81 935.3 1572.17 929.963 1571.53 924.587L1574.16 923.957C1574.16 924.005 1574.16 924.054 1574.16 924.102C1574.09 924.155 1574.03 924.224 1573.99 924.304C1573.96 924.386 1574.05 924.518 1574.08 924.625C1574.08 924.455 1574.14 924.279 1574.16 924.102L1574.29 924.001C1572.74 922.073 1572.2 919.773 1571.73 917.404C1572.62 916.931 1573.33 916.553 1574.17 916.099C1573.72 914.297 1573.85 912.35 1572.14 910.535C1571.26 912.337 1570.47 913.812 1569.8 915.343C1564.96 926.232 1560.15 937.127 1554.22 947.481C1553.7 948.572 1553.1 949.624 1552.43 950.631C1552.19 950.849 1551.92 951.017 1551.62 951.125C1551.31 951.233 1550.99 951.28 1550.67 951.262C1550.44 951.184 1550.23 951.049 1550.06 950.869C1549.89 950.688 1549.77 950.468 1549.71 950.228C1549.45 947.846 1549.31 945.458 1549.17 943.063C1549.17 942.836 1549.52 942.597 1549.71 942.364C1550.45 942.03 1551.17 943.561 1552.04 942.219C1551.89 939.459 1548.46 937.102 1550.48 933.397L1553.77 936.617C1553.47 935.549 1553.12 934.497 1552.71 933.466C1551.32 930.7 1549.84 927.996 1549.8 924.739C1549.83 924.467 1549.8 924.193 1549.71 923.934C1549.63 923.675 1549.49 923.436 1549.31 923.234C1549.13 923.031 1548.9 922.869 1548.66 922.757C1548.41 922.645 1548.14 922.586 1547.87 922.583C1547.24 923.497 1546.53 924.474 1545.98 925.488C1543.87 929.446 1541.88 933.472 1539.73 937.411C1538.34 939.982 1536.77 942.452 1535.19 944.929C1534.92 945.351 1534.18 945.477 1533.42 945.855C1532.76 943.303 1533.76 941.393 1534.66 939.616ZM1583.46 950.285C1585.26 948.829 1584.29 947.764 1583.65 946.554C1581.7 947.695 1582.24 948.836 1583.46 950.285ZM1580.13 954.324C1580.42 954.689 1580.75 955.018 1581.11 955.301C1581.41 954.954 1581.74 954.74 1581.78 954.482C1581.89 953.851 1581.04 953.221 1580.52 953.53C1580.25 953.662 1580.04 954.185 1580.13 954.324V954.324ZM1578.31 961.054C1579.02 959.239 1578.89 958.307 1576.7 957.009L1578.31 961.054Z" fill="#1D71B8" fill-opacity="0.1"/>
<path fill-rule="evenodd" clip-rule="evenodd" d="M1597.58 997.118C1597.67 997.846 1597.67 998.582 1597.58 999.31C1595.06 998.68 1594.84 996.569 1594.15 994.975C1590.16 985.806 1589.42 983.179 1589.99 980.929C1591.76 983.33 1596.46 993.292 1597.58 997.118Z" fill="#1D71B8" fill-opacity="0.1"/>
<path fill-rule="evenodd" clip-rule="evenodd" d="M1558.62 986.588C1558.16 986.361 1557.72 986.285 1557.57 986.033C1556.63 984.578 1555.68 983.103 1554.87 981.578C1553.61 979.246 1552.42 976.858 1551.17 974.508C1550.84 973.878 1550.41 973.329 1550.05 972.787C1549.89 972.79 1549.73 972.826 1549.59 972.892C1549.44 972.958 1549.31 973.052 1549.2 973.17C1549.1 973.288 1549.01 973.427 1548.96 973.577C1548.91 973.728 1548.89 973.888 1548.9 974.048C1548.9 975.976 1548 977.583 1547.18 979.221C1546.96 979.656 1546.88 980.141 1546.55 981.112L1548.5 979.221C1549.7 981.408 1547.67 982.807 1547.58 984.445C1548.09 985.239 1548.52 984.332 1548.96 984.527C1549.07 984.666 1549.28 984.811 1549.28 984.943C1549.19 986.361 1549.11 987.779 1548.95 989.19C1548.92 989.336 1548.85 989.472 1548.75 989.582C1548.65 989.693 1548.52 989.775 1548.38 989.82C1548.19 989.834 1548.01 989.81 1547.83 989.748C1547.65 989.686 1547.49 989.589 1547.35 989.461C1546.94 988.862 1546.58 988.235 1546.26 987.583C1542.74 981.446 1539.89 974.98 1537.03 968.528C1536.62 967.62 1536.16 966.751 1535.64 965.679C1534.62 966.757 1534.7 967.91 1534.43 968.981L1535.87 969.75C1535.7 971.159 1535.18 972.504 1534.36 973.663C1534.39 973.683 1534.41 973.704 1534.43 973.726C1534.43 973.827 1534.43 973.928 1534.48 974.035C1534.48 973.972 1534.56 973.89 1534.54 973.846C1534.52 973.796 1534.48 973.755 1534.43 973.726V973.632L1535.99 974.01C1535.62 977.161 1535.23 980.356 1534.84 983.714C1535.3 983.873 1535.78 983.991 1536.27 984.067C1536.8 984.054 1537.32 983.995 1537.85 983.891C1537.78 984.521 1537.85 984.962 1537.68 985.264C1536.68 987.047 1536.02 989 1535.73 991.024C1535.57 991.616 1535.36 992.192 1535.1 992.744C1535.17 992.788 1535.1 992.744 1535.13 992.744L1537.28 991.238C1537.51 991.868 1537.87 992.341 1537.78 992.713C1537.39 994.824 1536.45 996.797 1535.07 998.441C1534.96 998.561 1534.7 998.554 1534.44 998.636L1533.53 997.376L1531.2 997.741C1529.88 997.029 1529.18 995.763 1528.52 994.502C1526.58 990.791 1524.68 987.06 1522.76 983.342C1522.3 982.454 1521.83 981.584 1521.3 980.608C1520.5 981.981 1520.26 983.179 1520.98 984.294C1521.24 984.667 1521.4 985.097 1521.46 985.548C1521.51 985.999 1521.45 986.455 1521.28 986.878C1520.71 988.718 1520.09 990.539 1519.47 992.41C1520.2 992.776 1520.46 992.253 1520.67 991.887C1521.06 991.2 1521.36 990.457 1521.69 989.757C1521.86 989.801 1521.97 989.808 1522.01 989.858C1522.04 989.895 1522.07 989.937 1522.08 989.983C1522.09 990.028 1522.1 990.076 1522.09 990.123C1521.67 991.572 1521.25 993.009 1520.83 994.471C1520.83 994.471 1520.83 994.471 1520.83 994.528C1520.9 994.792 1520.92 995.07 1520.87 995.341C1520.82 995.611 1520.71 995.867 1520.55 996.09C1520.45 996.16 1520.32 996.235 1520.16 996.324L1520.2 996.412C1520.25 996.859 1520.28 997.294 1520.32 997.729L1520.65 997.647C1520.5 997.231 1520.35 996.821 1520.2 996.387C1520.19 996.368 1520.19 996.349 1520.2 996.33C1520.33 996.264 1520.46 996.174 1520.56 996.065C1521.15 995.693 1521.12 995.517 1520.84 994.502V994.465C1521.38 995.095 1521.89 994.225 1522.6 994.465C1522.35 995.517 1522.1 996.582 1521.79 997.893L1523.49 1000.75L1521.81 1006.14L1523.49 1007.4C1522.73 1009.2 1521.97 1010.96 1521.23 1012.74C1520.5 1014.52 1519.86 1016.13 1519.23 1017.68C1518.29 1018.08 1518.23 1017.36 1517.83 1016.95L1515.8 1017.33C1515.61 1017.55 1515.44 1017.79 1515.28 1018.03C1514.87 1018.74 1514.55 1019.5 1514.08 1020.16C1513.96 1020.31 1513.8 1020.43 1513.62 1020.51C1513.44 1020.58 1513.25 1020.62 1513.06 1020.6C1512.64 1020.46 1512.09 1020.02 1512.05 1019.66C1511.98 1018.76 1512.04 1017.84 1512.23 1016.95C1512.99 1013.03 1513.91 1009.15 1514.57 1005.21C1515.44 999.966 1516.13 994.685 1516.86 989.417C1517.32 986.071 1517.61 982.7 1518.12 979.366C1518.41 977.476 1519.02 975.585 1519.57 973.449C1520.2 973.972 1520.82 974.23 1521.07 974.709C1522.01 976.404 1522.83 978.169 1523.74 979.889C1524.35 981.306 1525.11 982.653 1526.01 983.903C1526.29 983.199 1526.54 982.48 1526.74 981.748C1527.97 975.206 1529.85 968.802 1532.34 962.629C1532.73 961.709 1533.18 960.815 1533.68 959.731C1534.26 960.087 1534.79 960.51 1535.27 960.991C1536.13 962.135 1536.9 963.339 1537.58 964.595C1539.7 968.685 1541.74 972.819 1543.81 976.928C1544.03 977.356 1544.33 977.747 1544.68 978.276C1545.62 977.268 1545.75 976.134 1546.17 975.125C1546.75 973.714 1547.27 972.264 1547.87 970.853C1548.09 970.389 1548.38 969.964 1548.74 969.593C1548.95 969.362 1549.24 969.223 1549.55 969.202C1549.86 969.182 1550.16 969.284 1550.4 969.485C1550.91 969.976 1551.36 970.538 1551.71 971.155C1553.79 975.031 1555.86 978.912 1557.84 982.838C1558.38 983.916 1558.98 985.063 1558.62 986.588ZM1528.81 986.978C1528.42 987.703 1527.85 988.327 1528.92 989.19C1529.64 988.327 1529.96 987.653 1528.81 986.953V986.978ZM1530.69 991.112C1530.37 990.917 1529.88 991.289 1529.93 991.679C1529.93 991.831 1530.15 991.957 1530.33 992.165C1530.55 991.994 1530.74 991.8 1530.91 991.585C1530.95 991.497 1530.8 991.188 1530.68 991.112H1530.69ZM1532.95 993.173C1531.64 993.942 1531.58 994.496 1532 995.574C1532.32 994.71 1532.52 994.2 1532.93 993.173H1532.95Z" fill="#1D71B8" fill-opacity="0.1"/>
<path fill-rule="evenodd" clip-rule="evenodd" d="M1520.55 1016.95C1520.5 1017.39 1520.5 1017.82 1520.55 1018.25C1522.04 1017.87 1522.17 1016.63 1522.58 1015.68C1524.95 1010.25 1525.39 1008.69 1525.04 1007.36C1524 1008.78 1521.22 1014.68 1520.55 1016.95Z" fill="#1D71B8" fill-opacity="0.1"/>
</g>
<defs>
<clipPath id="clip0_606_381">
<rect width="103" height="124.052" fill="white" transform="translate(-10 232.309)"/>
</clipPath>
<clipPath id="clip1_606_381">
<rect width="100" height="120.05" fill="white" transform="matrix(-1 0 0 1 1612 900.585)"/>
</clipPath>
</defs>
</svg>
