<svg width="55" height="38" viewBox="0 0 55 38" fill="none" xmlns="http://www.w3.org/2000/svg">
<rect x="0.5" y="0.5" width="54" height="37" rx="5.8" fill="white" stroke="#D9D9D9"/>
<path fill-rule="evenodd" clip-rule="evenodd" d="M33.1636 26.6705C33.4732 25.8783 34.1623 24.1032 33.8346 23.673H33.837C33.5108 23.2419 31.6795 23.4682 30.8558 23.5699L30.854 23.5701C30.6034 23.6011 30.5649 23.3767 30.7902 23.2144C32.2528 22.1569 34.649 22.4594 34.9273 22.8164C35.2056 23.1734 34.8514 25.6453 33.4816 26.8254C33.2708 27.0064 33.0696 26.9097 33.1636 26.6705ZM23.3218 27.8921C26.5072 27.8921 30.2166 26.857 32.7719 24.917V24.9207C33.1948 24.5935 32.8321 24.1125 32.4008 24.3009C29.6116 25.5115 26.6176 26.1434 23.5905 26.1604C19.3907 26.1604 15.3282 24.9753 12.0417 23.008C11.7537 22.8357 11.5393 23.1394 11.7802 23.3613C14.9443 26.2987 19.0603 27.9145 23.3218 27.8921Z" fill="#FF9900"/>
<path fill-rule="evenodd" clip-rule="evenodd" d="M44.1508 22.0841H45.5073H45.5085C45.6504 22.0868 45.7683 21.9721 45.7736 21.8262V17.9573C45.7736 17.4713 45.7989 17.0325 45.9892 16.5937C46.1199 16.2598 46.4278 16.0351 46.7771 16.0185C47.6449 16.0185 47.6365 16.9969 47.63 17.7655C47.6294 17.8303 47.6289 17.8936 47.6289 17.9548V21.8584C47.6457 21.9836 47.7471 22.0786 47.8698 22.0841H49.2384C49.3682 22.0868 49.48 21.9904 49.4999 21.8584V17.335C49.4999 16.6395 49.4999 15.6714 49.1445 15.0962C48.7602 14.4764 48.165 14.2495 47.5554 14.2495C46.6157 14.2495 46.082 14.7181 45.7013 15.7011H45.6748V14.6016C45.6473 14.4866 45.5488 14.4045 45.4338 14.4007H44.1712C44.0378 14.3974 43.9242 14.4998 43.9098 14.6363V21.8262C43.9115 21.964 44.017 22.0768 44.1508 22.0841ZM42.8741 18.3133C42.8741 16.0448 41.7814 14.2597 39.761 14.2597C37.7924 14.2597 36.6997 16.015 36.6997 18.2377C36.6997 20.4603 37.7792 22.2454 39.761 22.2454C41.6693 22.2454 42.8741 20.5062 42.8741 18.3133ZM38.7067 18.0107C38.7067 17.1331 38.7706 15.7273 39.7741 15.7273C40.2054 15.7273 40.5102 15.9269 40.6632 16.4227C40.8415 16.9967 40.8668 17.7231 40.8668 18.3281C40.8668 19.2504 40.8271 20.7627 39.7609 20.7627C38.7063 20.7627 38.7066 18.9291 38.7067 18.0398L38.7067 18.0107ZM13.2502 22.0983H14.6104H14.6116C14.6798 22.0999 14.7459 22.0735 14.7952 22.0249C14.8445 21.9762 14.8729 21.9094 14.8742 21.8391V18.0297L14.8742 17.9701C14.8736 17.1418 14.8729 16.0463 15.8139 16.0463C16.6839 16.0463 16.6704 17.0089 16.6596 17.7861C16.6584 17.87 16.6572 17.9517 16.6572 18.0297V21.8404C16.6596 21.978 16.7647 22.0905 16.8982 22.0983H18.262C18.33 22.0995 18.3958 22.073 18.4449 22.0244C18.4939 21.9758 18.5221 21.9092 18.5234 21.8391V18.0297L18.5233 17.9392C18.5225 17.5356 18.5214 16.9909 18.6511 16.6525C18.7834 16.3066 19.1032 16.075 19.4643 16.0637C19.8583 16.0637 20.1631 16.2 20.2643 16.6835C20.3159 16.9162 20.3092 17.4556 20.3048 17.8132V17.8133C20.3038 17.8977 20.3028 17.972 20.3028 18.0297V21.8404C20.3046 21.9782 20.41 22.091 20.5438 22.0983H21.904C21.9722 22.0999 22.0383 22.0735 22.0876 22.0249C22.1369 21.9762 22.1653 21.9094 22.1666 21.8391V17.3033C22.1666 17.1927 22.1684 17.0797 22.1703 16.9655C22.1815 16.2882 22.1933 15.5673 21.8232 15.0497C21.3746 14.4625 20.6532 14.1699 19.9359 14.2843C19.2186 14.3986 18.6169 14.902 18.362 15.6013C17.9801 14.6926 17.4343 14.2699 16.5958 14.2699C15.7573 14.2699 15.1344 14.6926 14.8043 15.6013H14.779V14.6629C14.7719 14.5291 14.6681 14.4224 14.5381 14.415H13.2695C13.1294 14.4135 13.0138 14.5275 13.0092 14.6716V21.8615C13.0216 21.9908 13.124 22.0915 13.2502 22.0983ZM10.8828 22.1527C10.7933 22.2327 10.6645 22.2461 10.5612 22.1862C10.1757 21.8562 10.0595 21.6778 9.88101 21.4038C9.85031 21.3567 9.81777 21.3068 9.7817 21.2527C9.03355 22.0362 8.50466 22.2705 7.53724 22.2705C6.39152 22.2705 5.5 21.5428 5.5 20.0875C5.5 18.9507 6.10238 18.1784 6.94571 17.7991C7.56843 17.5179 8.39931 17.4307 9.11764 17.3552C9.25121 17.3412 9.38088 17.3276 9.5046 17.3132V17.1322C9.5046 17.0977 9.50488 17.0625 9.50515 17.0269L9.50515 17.0268C9.50753 16.7182 9.51018 16.3746 9.33955 16.1157C9.1733 15.8578 8.85765 15.7525 8.57574 15.7525C8.05649 15.7525 7.59386 16.0264 7.48062 16.5929C7.46626 16.7251 7.36744 16.8309 7.23967 16.8508L5.9313 16.7033C5.86602 16.6937 5.80741 16.6569 5.76917 16.6016C5.73092 16.5463 5.71637 16.4773 5.7289 16.4107C6.0313 14.7645 7.477 14.2674 8.77211 14.2674C9.43473 14.2674 10.2997 14.4484 10.8202 14.9641C11.4312 15.5526 11.4274 16.3232 11.4233 17.1652C11.4229 17.2347 11.4226 17.3047 11.4226 17.3752V19.5557C11.4226 20.1429 11.6343 20.435 11.8574 20.7427C11.8839 20.7793 11.9105 20.8161 11.937 20.8536C12.0237 20.9775 12.043 21.1325 11.937 21.2255C11.6587 21.4647 11.1648 21.906 10.8937 22.1552L10.8828 22.1527ZM9.51063 18.7389L9.51067 18.8068C9.51115 19.3224 9.51155 19.7596 9.25642 20.2265C9.03957 20.6207 8.69621 20.8636 8.3131 20.8636C7.79144 20.8636 7.48664 20.4546 7.48664 19.8471C7.48664 18.6546 8.52634 18.4377 9.51063 18.4377V18.7389ZM29.6951 20.7387C29.7216 20.7753 29.7483 20.8122 29.7748 20.8497C29.8664 20.9786 29.8857 21.1299 29.7688 21.2154C29.4905 21.4547 28.9965 21.8972 28.7255 22.1451C28.6353 22.224 28.507 22.2368 28.4038 22.1774C28.0167 21.846 27.902 21.6702 27.721 21.3927L27.7209 21.3925C27.6907 21.3462 27.6586 21.2971 27.6231 21.2439C26.8762 22.0274 26.3437 22.2617 25.3799 22.2617C24.2341 22.2617 23.3426 21.534 23.3426 20.0799C23.3426 18.9419 23.9414 18.1696 24.7944 17.7903C25.4184 17.5081 26.254 17.4212 26.9744 17.3463L26.9744 17.3463L26.9745 17.3463L26.9745 17.3463L26.9747 17.3463C27.1053 17.3327 27.2321 17.3195 27.3533 17.3056V17.1283C27.3533 17.094 27.3535 17.0589 27.3538 17.0234C27.3562 16.7147 27.3588 16.371 27.187 16.1131C27.0256 15.8552 26.7039 15.7486 26.4232 15.7486C25.9039 15.7486 25.4437 16.0226 25.3293 16.5891C25.3145 16.7211 25.2159 16.8266 25.0883 16.8469L23.7691 16.7007C23.7034 16.6914 23.6442 16.6546 23.6057 16.599C23.5672 16.5434 23.5526 16.4739 23.5655 16.4069C23.8691 14.7594 25.3148 14.2635 26.6099 14.2635C27.2713 14.2635 28.1364 14.4445 28.658 14.9602C29.2702 15.5458 29.2659 16.3103 29.2612 17.148V17.1484V17.1487V17.149V17.1493C29.2608 17.2228 29.2604 17.2968 29.2604 17.3713V19.5531C29.2604 20.1391 29.4721 20.4311 29.6951 20.7387ZM26.158 20.8573C26.5399 20.8573 26.8845 20.6143 27.1001 20.2213C27.3561 19.752 27.3559 19.3127 27.3555 18.7906L27.3555 18.735V18.4325C26.3712 18.4325 25.3315 18.6482 25.3315 19.842C25.3315 20.4482 25.6363 20.8573 26.158 20.8573ZM30.9262 14.6472V15.6712C30.9255 15.7414 30.9528 15.8089 31.0018 15.8578C31.0507 15.9068 31.117 15.933 31.1853 15.9302H33.5273L30.8419 19.8971C30.7193 20.1099 30.6614 20.3555 30.6756 20.6024V21.6499C30.6756 21.8011 30.8383 21.9735 30.9937 21.8879C32.4748 21.0977 34.2361 21.0945 35.72 21.8792C35.8898 21.9697 36.0501 21.7949 36.0501 21.6437V20.5429C36.0455 20.3746 35.9535 20.2217 35.8091 20.1425C35.0272 19.69 34.1176 19.5574 33.2574 19.5785L35.5754 16.1744C35.791 15.8695 35.9115 15.6761 35.9115 15.5286V14.6472C35.9122 14.5772 35.8851 14.5099 35.8364 14.461C35.7877 14.4121 35.7217 14.3858 35.6537 14.3881H31.1804C31.1123 14.3842 31.0458 14.4101 30.9974 14.4595C30.9489 14.5089 30.9231 14.5771 30.9262 14.6472Z" fill="black"/>
</svg>
