<svg width="55" height="38" viewBox="0 0 55 38" fill="none" xmlns="http://www.w3.org/2000/svg">
<rect x="0.5" y="0.5" width="54" height="37" rx="5.5" fill="#1F72CD" stroke="#D9D9D9"/>
<path fill-rule="evenodd" clip-rule="evenodd" d="M9.86003 13.4575L4.71411 24.9315H10.8745L11.6382 23.1021H13.3839L14.1476 24.9315H20.9284V23.5353L21.5326 24.9315H25.0402L25.6444 23.5057V24.9315H39.7468L41.4615 23.1496L43.0672 24.9315L50.3104 24.9463L45.1483 19.2266L50.3104 13.4575H43.1795L41.5103 15.2065L39.9552 13.4575H24.6137L23.2963 16.4191L21.9481 13.4575H15.8005V14.8063L15.1167 13.4575H9.86003ZM30.9189 15.0866H39.0171L41.494 17.7824L44.0507 15.0866H46.5276L42.7642 19.2247L46.5276 23.3151H43.9384L41.4615 20.5881L38.8918 23.3151H30.9189V15.0866ZM32.9188 18.2951V16.7921V16.7906H37.9718L40.1767 19.1943L37.8741 21.6111H32.9188V19.9703H37.3367V18.2951H32.9188ZM11.0519 15.0866H14.0548L17.4681 22.8672V15.0866H20.7576L23.394 20.6653L25.8237 15.0866H29.0968V23.32H27.1052L27.0889 16.8684L24.1854 23.32H22.4038L19.484 16.8684V23.32H15.3868L14.6101 21.4742H10.4136L9.63848 23.3184H7.44327L11.0519 15.0866ZM11.1304 19.7675L12.513 16.4793L13.8939 19.7675H11.1304Z" fill="white"/>
</svg>
