<svg width="55" height="38" viewBox="0 0 55 38" fill="none" xmlns="http://www.w3.org/2000/svg">
<rect x="0.5" y="0.5" width="54" height="37" rx="5.5" fill="white" stroke="#D9D9D9"/>
<path fill-rule="evenodd" clip-rule="evenodd" d="M13.1154 14.1435C13.8541 14.2063 14.5927 13.7668 15.0544 13.2097C15.5083 12.6368 15.8084 11.8678 15.7315 11.083C15.0774 11.1144 14.2696 11.5225 13.8079 12.0953C13.3847 12.5897 13.0231 13.3902 13.1154 14.1435ZM21.9021 24.2513V12.0171H26.4031C28.7268 12.0171 30.3502 13.6493 30.3502 16.035C30.3502 18.4206 28.696 20.0686 26.3416 20.0686H23.764V24.2513H21.9021ZM15.7236 14.2923C15.0729 14.2541 14.4791 14.4919 13.9996 14.684C13.6909 14.8076 13.4296 14.9123 13.2307 14.9123C13.0076 14.9123 12.7355 14.802 12.4299 14.6782C12.0295 14.516 11.5718 14.3305 11.0918 14.3394C9.99151 14.3551 8.96819 14.9907 8.40652 16.0031C7.2524 18.0277 8.10645 21.0254 9.2221 22.6734C9.76838 23.4896 10.4224 24.3842 11.2841 24.3528C11.6632 24.3382 11.9359 24.2202 12.2182 24.098C12.5431 23.9574 12.8807 23.8113 13.4077 23.8113C13.9165 23.8113 14.2393 23.9536 14.5491 24.0902C14.8437 24.22 15.1267 24.3447 15.5467 24.3371C16.4392 24.3214 17.0009 23.5209 17.5471 22.7048C18.1367 21.8289 18.3957 20.974 18.435 20.8443L18.4397 20.8293C18.4387 20.8283 18.4314 20.8249 18.4186 20.8189C18.2215 20.7269 16.7152 20.0236 16.7008 18.1376C16.6863 16.5546 17.8955 15.7525 18.0859 15.6263C18.0975 15.6186 18.1053 15.6134 18.1088 15.6107C17.3394 14.4493 16.1391 14.3237 15.7236 14.2923ZM33.7512 24.3458C34.9207 24.3458 36.0056 23.7416 36.498 22.7842H36.5365V24.2517H38.26V18.162C38.26 16.3963 36.875 15.2585 34.7437 15.2585C32.7664 15.2585 31.3045 16.412 31.2506 17.9972H32.9279C33.0664 17.2439 33.7512 16.7495 34.6899 16.7495C35.8286 16.7495 36.4672 17.291 36.4672 18.2876V18.9625L34.1436 19.1037C31.9816 19.2371 30.812 20.1396 30.812 21.7091C30.812 23.2943 32.02 24.3458 33.7512 24.3458ZM34.251 22.8938C33.2584 22.8938 32.6275 22.4073 32.6275 21.6618C32.6275 20.8927 33.2353 20.4454 34.3971 20.3748L36.4669 20.2414V20.9319C36.4669 22.0777 35.5128 22.8938 34.251 22.8938ZM43.9766 24.7302C43.2302 26.8726 42.3762 27.5788 40.5604 27.5788C40.4219 27.5788 39.9602 27.5631 39.8525 27.5318V26.0643C39.9679 26.08 40.2526 26.0957 40.3988 26.0957C41.2221 26.0957 41.6837 25.7425 41.9684 24.8244L42.1377 24.2829L38.9831 15.376H40.9297L43.1225 22.6035H43.161L45.3538 15.376H47.2466L43.9766 24.7302ZM23.764 13.6177H25.9107C27.5265 13.6177 28.4498 14.4967 28.4498 16.0426C28.4498 17.5886 27.5265 18.4753 25.903 18.4753H23.764V13.6177Z" fill="black"/>
</svg>
