<svg width="50" height="60" viewBox="0 0 50 60" fill="none" xmlns="http://www.w3.org/2000/svg">
<g clip-path="url(#clip0_16_665)">
<path d="M33.146 0.981559C33.0336 1.54036 33.2879 2.17656 35.4713 3.40059L35.6939 3.52154L35.8259 5.13988L35.6645 5.03828C35.6327 5.0184 35.5943 5.01182 35.5576 5.01998C35.5209 5.02815 35.489 5.05039 35.4689 5.08182L35.3784 5.22454C35.3686 5.24025 35.362 5.25773 35.359 5.27598C35.356 5.29422 35.3567 5.31287 35.361 5.33085C35.3653 5.34884 35.3732 5.3658 35.3842 5.38077C35.3951 5.39573 35.409 5.40841 35.4249 5.41806L35.8723 5.69625L36.0068 7.3291L35.909 7.26621C35.8772 7.24633 35.8388 7.23975 35.8021 7.24791C35.7654 7.25608 35.7335 7.27832 35.7134 7.30975L35.6229 7.45247C35.6029 7.48391 35.5962 7.52196 35.6045 7.55825C35.6127 7.59453 35.6352 7.6261 35.667 7.64599L36.0533 7.8879L36.1633 9.19659L37.1022 9.77958L37.7869 4.63914C38.9679 5.25115 40.1293 5.83414 40.9435 6.23812L41.0291 7.93144L41.6551 8.31848L42.0927 6.6808L42.6184 6.79933L42.2834 6.38326L43.5818 5.28018L42.9583 4.89313L41.3714 5.55353C40.6501 5.00441 39.6158 4.22306 38.5449 3.43688L42.9265 0.592095L41.99 0.0139465L40.7504 0.497753L40.364 0.25585C40.3323 0.235972 40.2938 0.229393 40.2571 0.237558C40.2204 0.245723 40.1885 0.267964 40.1684 0.299392L40.0779 0.442114C40.0579 0.473554 40.0512 0.511601 40.0595 0.54789C40.0677 0.584179 40.0902 0.615742 40.122 0.635638L40.2222 0.696113L38.6769 1.28636L38.2221 0.981559C38.2062 0.971825 38.1886 0.96529 38.1701 0.962332C38.1517 0.959374 38.1328 0.960051 38.1146 0.964322C38.0965 0.968593 38.0793 0.976374 38.0642 0.98722C38.0491 0.998066 38.0363 1.01176 38.0265 1.02752L37.936 1.16782C37.9159 1.19926 37.9093 1.23731 37.9175 1.2736C37.9258 1.30989 37.9483 1.34145 37.98 1.36135L38.1439 1.46295L36.6132 2.04593L36.4054 1.90079C34.3515 0.483239 33.662 0.534038 33.2023 0.875121C33.17 0.901841 33.1498 0.940116 33.146 0.981559V0.981559Z" fill="white"/>
<path d="M44.5452 11.6809C44.4867 13.493 43.8103 15.2323 42.6258 16.6157C39.8995 19.8379 33.772 22.598 23.9255 26.0693C13.4579 29.7583 2.36443 33.5683 1.73359 41.2971C0.249233 37.5802 -0.293883 33.5605 0.151567 29.5884C0.597018 25.6162 2.01752 21.8121 4.2893 18.5074C6.56108 15.2028 9.61523 12.4979 13.1856 10.6284C16.756 8.75888 20.7343 7.78151 24.7739 7.78143C25.263 7.78143 25.752 7.79837 26.241 7.8274C32.1907 8.16836 37.8145 10.6285 42.0732 14.7531C43.039 14.1072 44.1173 13.1033 44.5452 11.6809Z" fill="white"/>
<path d="M19.7737 59.4882C3.03685 50.9442 10.47 40.3416 27.2313 32.9321C9.48706 44.1516 13.947 53.6729 19.7737 59.4882Z" fill="white"/>
<path d="M40.1317 21.6062C39.985 21.732 39.831 21.8481 39.6769 21.9763C29.8965 30.0051 16.6928 33.0531 9.86361 40.6851C4.58949 46.5875 6.35486 50.7072 7.24978 52.2819C2.05145 47.8043 2.22506 40.5351 10.3477 35.5737C18.4704 30.6123 28.9306 28.1303 40.1317 21.6062Z" fill="white"/>
<path d="M44.5452 11.6809C44.4867 13.493 43.8103 15.2323 42.6258 16.6157C39.8995 19.8379 33.772 22.598 23.9255 26.0693C13.4579 29.7583 2.36443 33.5683 1.73359 41.2971C0.249233 37.5802 -0.293883 33.5605 0.151567 29.5884C0.597018 25.6162 2.01752 21.8121 4.2893 18.5074C6.56108 15.2028 9.61523 12.4979 13.1856 10.6284C16.756 8.75888 20.7343 7.78151 24.7739 7.78143C25.263 7.78143 25.752 7.79837 26.241 7.8274C15.1133 7.84675 4.41833 18.326 5.51619 28.827C8.53102 19.8766 30.7718 21.0861 42.0732 14.7531C43.039 14.1072 44.1173 13.1033 44.5452 11.6809Z" fill="white"/>
<path d="M47.4035 22.3174C49.724 16.011 47.9464 10.3045 43.3569 7.43793C52.7901 18.2462 36.2978 28.0771 24.0037 38.1814C17.6098 43.4379 16.5192 52.1561 23.1528 55.5041C25.1931 56.5 27.5143 56.7822 29.7375 56.3048C33.3696 55.5699 36.7886 54.0381 39.7426 51.822C42.6966 49.606 45.1103 46.7623 46.8056 43.5007C48.501 40.239 49.4348 36.6425 49.5383 32.9763C49.6418 29.31 48.9123 25.6676 47.4035 22.3174V22.3174Z" fill="white"/>
<path d="M47.4035 22.3174C43.8752 30.7187 27.2191 41.7204 25.263 45.7989C22.2457 52.0739 30.5175 54.6502 36.9604 49.9113C24.7348 49.1856 47.2446 39.0716 49.4305 29.8067" fill="white" fill-opacity="0.5"/>
<path d="M19.7737 59.4882C5.34748 48.2349 13.876 40.8206 27.2313 32.9321C9.48706 44.1516 13.947 53.6729 19.7737 59.4882Z" fill="white"/>
<path d="M39.6892 21.9763C29.9087 30.0051 16.7051 33.0531 9.87584 40.6851C4.60171 46.5875 6.36709 50.7072 7.262 52.282C-3.93909 35.9753 28.2216 31.0041 39.6892 21.9763Z" fill="white"/>
</g>
<defs>
<clipPath id="clip0_16_665">
<rect width="49.5455" height="59.4791" fill="white" transform="translate(0 0.00909424)"/>
</clipPath>
</defs>
</svg>
