<svg width="44" height="44" viewBox="0 0 44 44" fill="none" xmlns="http://www.w3.org/2000/svg">
<circle cx="22" cy="22" r="22" fill="#1D71B8"/>
<path d="M28.97 31H14.97C11.97 31 11.97 29.65 11.97 28V27C11.97 26.45 12.42 26 12.97 26H30.97C31.52 26 31.97 26.45 31.97 27V28C31.97 29.65 31.97 31 28.97 31Z" stroke="white" stroke-width="1.5" stroke-linecap="round" stroke-linejoin="round"/>
<path d="M30.72 22V26H13.27V22C13.27 18.16 15.98 14.95 19.59 14.18C20.13 14.06 20.69 14 21.27 14H22.72C23.3 14 23.87 14.06 24.41 14.18C28.02 14.96 30.72 18.16 30.72 22Z" stroke="white" stroke-width="1.5" stroke-linecap="round" stroke-linejoin="round"/>
<path d="M24.5 13.5C24.5 13.74 24.47 13.96 24.41 14.18C23.87 14.06 23.3 14 22.72 14H21.27C20.69 14 20.13 14.06 19.59 14.18C19.53 13.96 19.5 13.74 19.5 13.5C19.5 12.12 20.62 11 22 11C23.38 11 24.5 12.12 24.5 13.5Z" stroke="white" stroke-width="1.5" stroke-linecap="round" stroke-linejoin="round"/>
<path d="M25 20H19" stroke="white" stroke-width="1.5" stroke-linecap="round" stroke-linejoin="round"/>
</svg>
