<svg width="55" height="38" viewBox="0 0 55 38" fill="none" xmlns="http://www.w3.org/2000/svg">
<rect x="0.5" y="0.5" width="54" height="37" rx="5.5" fill="white" stroke="#D9D9D9"/>
<path fill-rule="evenodd" clip-rule="evenodd" d="M25.976 24.951V20.1679H28.4262C29.4302 20.1679 30.2776 19.8289 30.9684 19.1604L31.1342 18.9909C32.3961 17.6068 32.3132 15.4506 30.9684 14.1701C30.296 13.4921 29.3749 13.1249 28.4262 13.1438H24.493V24.951H25.976ZM25.9761 18.718V14.5939H28.4635C28.9978 14.5939 29.5045 14.8011 29.8822 15.1777C30.6837 15.9686 30.7021 17.2868 29.9283 18.106C29.5506 18.5108 29.0162 18.7368 28.4635 18.718H25.9761ZM38.0516 17.5038C37.416 16.9106 36.5502 16.6093 35.4541 16.6093C34.0448 16.6093 32.9855 17.1366 32.2855 18.1817L33.5934 19.0197C34.0724 18.3041 34.7264 17.9463 35.5554 17.9463C36.0804 17.9463 36.587 18.1441 36.9831 18.5019C37.3699 18.8408 37.591 19.3304 37.591 19.8483V20.1967C37.0199 19.8765 36.3015 19.7071 35.4172 19.7071C34.3856 19.7071 33.5566 19.9519 32.9394 20.4509C32.3223 20.9499 32.0091 21.609 32.0091 22.447C31.9907 23.2097 32.3131 23.9347 32.8842 24.4243C33.4645 24.9516 34.2014 25.2152 35.0672 25.2152C36.0896 25.2152 36.9002 24.7539 37.5173 23.8311H37.5818V24.9516H39.0003V19.9707C39.0003 18.9256 38.6871 18.097 38.0516 17.5038ZM34.0265 23.4638C33.7225 23.2378 33.5383 22.8706 33.5383 22.4752C33.5383 22.0326 33.741 21.6654 34.1371 21.3735C34.5424 21.0816 35.0491 20.931 35.6479 20.931C36.4771 20.9216 37.1219 21.1099 37.5826 21.4865C37.5826 22.1268 37.3338 22.6823 36.8456 23.1531C36.4034 23.605 35.8046 23.8593 35.1781 23.8593C34.7635 23.8687 34.3582 23.7275 34.0265 23.4638ZM42.1875 28.5012L47.1431 16.8728H45.5311L43.2376 22.6729H43.21L40.8611 16.8728H39.2492L42.5007 24.4337L40.6585 28.5012H42.1875Z" fill="#3C4043"/>
<path d="M20.8563 19.131C20.8563 18.6697 20.8194 18.2083 20.7457 17.7563H14.4915V20.3645H18.0745C17.9272 21.2025 17.4482 21.9558 16.7482 22.4265V24.1214H18.8851C20.1378 22.9444 20.8563 21.2025 20.8563 19.131Z" fill="#4285F4"/>
<path d="M14.4917 25.7607C16.2786 25.7607 17.7892 25.1581 18.8853 24.1224L16.7484 22.4275C16.1496 22.8418 15.3851 23.0772 14.4917 23.0772C12.76 23.0772 11.2954 21.8814 10.7704 20.2808H8.56897V22.0321C9.69271 24.3201 11.9863 25.7607 14.4917 25.7607Z" fill="#34A853"/>
<path d="M10.7706 20.2806C10.4943 19.4426 10.4943 18.5293 10.7706 17.6818V15.9399H8.56884C7.61996 17.8513 7.61996 20.1111 8.56884 22.0225L10.7706 20.2806Z" fill="#FBBC04"/>
<path d="M14.4917 14.8851C15.4404 14.8662 16.3523 15.2334 17.0339 15.902L18.9314 13.9623C17.7247 12.8136 16.1404 12.1828 14.4917 12.2016C11.9863 12.2016 9.69271 13.6516 8.56897 15.9396L10.7704 17.6909C11.2954 16.0809 12.76 14.8851 14.4917 14.8851Z" fill="#EA4335"/>
</svg>
