<svg width="16" height="16" viewBox="0 0 16 16" fill="none" xmlns="http://www.w3.org/2000/svg">
<g clip-path="url(#clip0_85_1492)">
<path d="M11.9999 0H4.00011C1.80036 0 0.000213623 1.80015 0.000213623 3.9999V12.0001C0.000213623 14.1993 1.80036 16 4.00011 16H11.9999C14.1997 16 15.9998 14.1993 15.9998 12.0001V3.9999C15.9998 1.80015 14.1997 0 11.9999 0ZM14.6665 12.0001C14.6665 13.4701 13.4707 14.6666 11.9999 14.6666H4.00011C2.52996 14.6666 1.33358 13.4701 1.33358 12.0001V3.9999C1.33358 2.52955 2.52996 1.33337 4.00011 1.33337H11.9999C13.4707 1.33337 14.6665 2.52955 14.6665 3.9999V12.0001Z" fill="white"/>
<path d="M12.3339 4.66646C12.8861 4.66646 13.3339 4.21875 13.3339 3.66648C13.3339 3.11421 12.8861 2.6665 12.3339 2.6665C11.7816 2.6665 11.3339 3.11421 11.3339 3.66648C11.3339 4.21875 11.7816 4.66646 12.3339 4.66646Z" fill="white"/>
<path d="M7.99999 4C5.79044 4 4.00009 5.79054 4.00009 7.9999C4.00009 10.2084 5.79044 12.0002 7.99999 12.0002C10.2089 12.0002 11.9999 10.2084 11.9999 7.9999C11.9999 5.79054 10.2089 4 7.99999 4ZM7.99999 10.6668C6.52741 10.6668 5.33346 9.47287 5.33346 7.9999C5.33346 6.52693 6.52741 5.33336 7.99999 5.33336C9.47257 5.33336 10.6665 6.52693 10.6665 7.9999C10.6665 9.47287 9.47257 10.6668 7.99999 10.6668Z" fill="white"/>
</g>
<defs>
<clipPath id="clip0_85_1492">
<rect width="16" height="16" fill="white"/>
</clipPath>
</defs>
</svg>
