<svg width="218" height="60" viewBox="0 0 218 60" fill="none" xmlns="http://www.w3.org/2000/svg">
<g clip-path="url(#clip0_16_664)">
<path d="M33.146 0.981559C33.0336 1.54036 33.2879 2.17656 35.4713 3.40059L35.6939 3.52154L35.8259 5.13988L35.6645 5.03828C35.6327 5.0184 35.5943 5.01182 35.5576 5.01998C35.5209 5.02815 35.489 5.05039 35.4689 5.08182L35.3784 5.22454C35.3686 5.24025 35.362 5.25773 35.359 5.27598C35.356 5.29422 35.3567 5.31287 35.361 5.33085C35.3653 5.34884 35.3732 5.3658 35.3842 5.38077C35.3951 5.39573 35.409 5.40841 35.4249 5.41806L35.8723 5.69625L36.0068 7.3291L35.909 7.26621C35.8772 7.24633 35.8388 7.23975 35.8021 7.24791C35.7654 7.25608 35.7335 7.27832 35.7134 7.30975L35.6229 7.45247C35.6029 7.48391 35.5962 7.52196 35.6045 7.55825C35.6127 7.59453 35.6352 7.6261 35.667 7.64599L36.0533 7.8879L36.1633 9.19659L37.1022 9.77958L37.7869 4.63914C38.9679 5.25115 40.1293 5.83414 40.9435 6.23812L41.0291 7.93144L41.6551 8.31848L42.0927 6.6808L42.6184 6.79933L42.2834 6.38326L43.5818 5.28018L42.9583 4.89313L41.3714 5.55353C40.6501 5.00441 39.6158 4.22306 38.5449 3.43688L42.9265 0.592095L41.99 0.0139465L40.7504 0.497753L40.364 0.25585C40.3323 0.235972 40.2938 0.229393 40.2571 0.237558C40.2204 0.245723 40.1885 0.267964 40.1684 0.299392L40.0779 0.442114C40.0579 0.473554 40.0512 0.511601 40.0595 0.54789C40.0677 0.584179 40.0902 0.615742 40.122 0.635638L40.2222 0.696113L38.6769 1.28636L38.2221 0.981559C38.2062 0.971825 38.1886 0.96529 38.1701 0.962332C38.1517 0.959374 38.1328 0.960051 38.1146 0.964322C38.0965 0.968593 38.0793 0.976374 38.0642 0.98722C38.0491 0.998066 38.0363 1.01176 38.0265 1.02752L37.936 1.16782C37.9159 1.19926 37.9093 1.23731 37.9175 1.2736C37.9258 1.30989 37.9483 1.34145 37.98 1.36135L38.1439 1.46295L36.6132 2.04593L36.4054 1.90079C34.3515 0.483239 33.662 0.534038 33.2023 0.875121C33.17 0.901841 33.1498 0.940116 33.146 0.981559Z" fill="white"/>
<path d="M44.5452 11.6809C44.4867 13.493 43.8103 15.2323 42.6258 16.6157C39.8995 19.8379 33.772 22.598 23.9255 26.0693C13.4579 29.7583 2.36443 33.5683 1.73359 41.2971C0.249233 37.5802 -0.293883 33.5605 0.151567 29.5884C0.597018 25.6162 2.01752 21.8121 4.2893 18.5074C6.56108 15.2028 9.61522 12.4979 13.1856 10.6284C16.756 8.75888 20.7343 7.78151 24.7739 7.78143C25.263 7.78143 25.752 7.79837 26.241 7.8274C32.1907 8.16836 37.8145 10.6285 42.0732 14.7531C43.039 14.1072 44.1173 13.1033 44.5452 11.6809Z" fill="white"/>
<path d="M19.7737 59.4882C3.03685 50.9442 10.47 40.3416 27.2313 32.9321C9.48706 44.1516 13.947 53.6729 19.7737 59.4882Z" fill="white"/>
<path d="M40.1317 21.6062C39.985 21.732 39.831 21.8481 39.6769 21.9763C29.8965 30.0051 16.6928 33.0531 9.86361 40.6851C4.58949 46.5875 6.35486 50.7072 7.24978 52.2819C2.05145 47.8043 2.22506 40.5351 10.3477 35.5737C18.4704 30.6123 28.9306 28.1303 40.1317 21.6062Z" fill="white"/>
<path d="M44.5452 11.6809C44.4867 13.493 43.8103 15.2323 42.6258 16.6157C39.8995 19.8379 33.772 22.598 23.9255 26.0693C13.4579 29.7583 2.36443 33.5683 1.73359 41.2971C0.249233 37.5802 -0.293883 33.5605 0.151567 29.5884C0.597018 25.6162 2.01752 21.8121 4.2893 18.5074C6.56108 15.2028 9.61522 12.4979 13.1856 10.6284C16.756 8.75888 20.7343 7.78151 24.7739 7.78143C25.263 7.78143 25.752 7.79837 26.241 7.8274C15.1133 7.84675 4.41833 18.326 5.51619 28.827C8.53102 19.8766 30.7718 21.0861 42.0732 14.7531C43.039 14.1072 44.1173 13.1033 44.5452 11.6809Z" fill="white"/>
<path d="M47.4035 22.3174C49.724 16.011 47.9464 10.3045 43.3569 7.43793C52.7901 18.2462 36.2978 28.0771 24.0037 38.1814C17.6098 43.4379 16.5192 52.1561 23.1528 55.5041C25.1931 56.5 27.5143 56.7822 29.7375 56.3048C33.3696 55.57 36.7886 54.0381 39.7426 51.822C42.6966 49.606 45.1103 46.7623 46.8056 43.5007C48.501 40.239 49.4348 36.6425 49.5383 32.9763C49.6418 29.31 48.9123 25.6676 47.4035 22.3174Z" fill="white"/>
<path d="M47.4035 22.3174C43.8752 30.7187 27.2191 41.7204 25.263 45.7989C22.2457 52.0739 30.5175 54.6502 36.9604 49.9113C24.7348 49.1856 47.2446 39.0716 49.4305 29.8067" fill="white" fill-opacity="0.5"/>
<path d="M19.7737 59.4882C5.34748 48.2349 13.876 40.8206 27.2313 32.9321C9.48706 44.1516 13.947 53.6729 19.7737 59.4882Z" fill="white"/>
<path d="M39.6892 21.9763C29.9087 30.0051 16.7051 33.0531 9.87584 40.6851C4.60171 46.5875 6.36709 50.7072 7.262 52.282C-3.93909 35.9753 28.2216 31.0041 39.6892 21.9763Z" fill="white"/>
</g>
<path d="M69.662 42.104C69.662 42.58 69.492 42.9767 69.152 43.294C68.812 43.6113 68.404 43.77 67.928 43.77C67.452 43.77 67.0553 43.6 66.738 43.26C66.4207 42.92 66.262 42.512 66.262 42.036C66.2847 41.2427 66.2733 38.0353 66.228 32.414C66.2053 28.3113 66.2733 25.138 66.432 22.894C63.9613 22.8713 61.876 22.894 60.176 22.962C59.7 22.9847 59.292 22.8373 58.952 22.52C58.612 22.18 58.4307 21.7833 58.408 21.33C58.3853 20.854 58.5327 20.446 58.85 20.106C59.19 19.766 59.5867 19.5847 60.04 19.562C61.9893 19.494 64.698 19.4713 68.166 19.494C71.634 19.5167 74.3427 19.5167 76.292 19.494C76.768 19.494 77.176 19.6527 77.516 19.97C77.856 20.2873 78.026 20.684 78.026 21.16C78.026 21.636 77.8673 22.044 77.55 22.384C77.2327 22.724 76.836 22.894 76.36 22.894C74.7507 22.9167 72.5747 22.928 69.832 22.928C69.6733 25.104 69.6053 28.2547 69.628 32.38C69.6733 38.024 69.6847 41.2653 69.662 42.104ZM80.7386 43.804C80.2852 43.804 79.8886 43.6567 79.5486 43.362C79.2086 43.0447 79.0386 42.6253 79.0386 42.104L78.9706 35.168C78.9479 33.604 78.9366 31.6547 78.9366 29.32V27.314C78.9366 26.7927 79.0952 26.3847 79.4126 26.09C79.7299 25.7953 80.1152 25.648 80.5686 25.648C81.0446 25.648 81.4526 25.8067 81.7926 26.124C82.1552 26.4187 82.3366 26.838 82.3366 27.382V28.402C82.5859 27.858 83.0506 27.3933 83.7306 27.008C84.6599 26.4413 85.6799 26.158 86.7906 26.158C87.6292 26.158 88.2752 26.294 88.7286 26.566C89.1819 26.838 89.4086 27.3253 89.4086 28.028C89.4086 28.4813 89.2726 28.8667 89.0006 29.184C88.7286 29.4787 88.3319 29.626 87.8106 29.626C85.9066 29.626 84.5919 29.8867 83.8666 30.408C83.4586 30.68 83.0959 31.0087 82.7786 31.394C82.4839 31.7793 82.3366 32.1533 82.3366 32.516L82.4046 36.766L82.4386 42.104C82.4386 42.6253 82.2686 43.0447 81.9286 43.362C81.5886 43.6567 81.1919 43.804 80.7386 43.804ZM100.01 43.26C99.1937 43.5773 98.2643 43.7587 97.2217 43.804C96.2017 43.8493 95.2497 43.736 94.3657 43.464C93.4817 43.1693 92.6997 42.7273 92.0197 42.138C90.841 41.1633 90.0817 39.9507 89.7417 38.5C89.4017 37.0493 89.3903 35.746 89.7077 34.59C90.025 33.434 90.501 32.312 91.1357 31.224C91.793 30.1133 92.4957 29.184 93.2437 28.436C94.0143 27.6653 94.8983 27.0193 95.8957 26.498C96.893 25.9767 97.9357 25.7273 99.0237 25.75C100.112 25.75 101.256 26.0447 102.458 26.634C102.639 26.7247 102.832 26.8607 103.036 27.042C103.262 27.2233 103.455 27.382 103.614 27.518L104.056 27.96C104.192 28.096 104.26 28.1753 104.26 28.198C104.622 28.5153 104.815 28.9233 104.838 29.422C105.132 30.782 105.325 32.21 105.416 33.706C105.506 35.202 105.529 36.6073 105.484 37.922C105.461 39.2367 105.484 40.6307 105.552 42.104C105.574 42.5573 105.427 42.954 105.11 43.294C104.792 43.634 104.396 43.8153 103.92 43.838C103.444 43.8607 103.036 43.7133 102.696 43.396C102.356 43.0787 102.174 42.6933 102.152 42.24V41.73C101.472 42.4327 100.758 42.9427 100.01 43.26ZM98.4797 40.2C98.8197 40.1093 99.0917 40.0187 99.2957 39.928C99.4997 39.8373 99.749 39.7013 100.044 39.52C100.361 39.3387 100.69 39.112 101.03 38.84C101.37 38.568 101.676 38.228 101.948 37.82C101.993 37.7747 102.05 37.7293 102.118 37.684C102.118 34.624 101.925 32.1647 101.54 30.306C101.472 30.2153 101.392 30.136 101.302 30.068C101.234 29.9773 101.177 29.9093 101.132 29.864C101.109 29.8187 101.064 29.7847 100.996 29.762C100.95 29.7167 100.894 29.6713 100.826 29.626C99.7377 29.0367 98.593 29.0253 97.3917 29.592C96.1903 30.136 95.1363 31.1673 94.2297 32.686C93.323 34.2273 92.8697 35.576 92.8697 36.732C92.8923 37.8653 93.3343 38.806 94.1957 39.554C94.717 39.9847 95.363 40.2567 96.1337 40.37C96.9043 40.4833 97.6863 40.4267 98.4797 40.2ZM115.323 43.804C114.893 43.8267 114.507 43.7133 114.167 43.464C114.054 43.3733 113.952 43.2713 113.861 43.158C113.771 43.0673 113.691 42.9653 113.623 42.852L113.351 42.376C113.215 42.104 113.045 41.73 112.841 41.254L112.161 39.724C111.799 38.84 111.005 36.8227 109.781 33.672C108.58 30.4987 107.866 28.6287 107.639 28.062C107.481 27.6313 107.492 27.2007 107.673 26.77C107.877 26.3393 108.195 26.0447 108.625 25.886C109.056 25.7047 109.487 25.716 109.917 25.92C110.348 26.1013 110.654 26.4073 110.835 26.838C111.017 27.3367 111.719 29.1953 112.943 32.414C114.19 35.6327 114.972 37.6387 115.289 38.432L115.425 38.738C115.516 38.5793 115.595 38.4207 115.663 38.262C115.731 38.0807 115.788 37.9447 115.833 37.854C115.879 37.7407 115.913 37.6387 115.935 37.548L116.003 37.412C116.162 37.0493 116.763 35.508 117.805 32.788C118.871 30.068 119.777 28.028 120.525 26.668C120.752 26.26 121.092 25.988 121.545 25.852C121.999 25.716 122.429 25.7613 122.837 25.988C123.245 26.2147 123.517 26.5547 123.653 27.008C123.789 27.4613 123.744 27.892 123.517 28.3C122.792 29.6147 121.953 31.496 121.001 33.944C120.072 36.392 119.449 38.0013 119.131 38.772L118.179 40.846C117.862 41.4807 117.567 42.002 117.295 42.41C117.091 42.7047 116.887 42.9427 116.683 43.124C116.275 43.532 115.822 43.7587 115.323 43.804ZM134.184 43.974C132.507 43.8607 131.045 43.5207 129.798 42.954C128.552 42.3873 127.6 41.6733 126.942 40.812C126.285 39.9507 125.809 39.1573 125.514 38.432C125.22 37.7067 125.038 36.9927 124.97 36.29C124.902 35.5647 124.936 34.6353 125.072 33.502C125.231 32.55 125.56 31.6093 126.058 30.68C126.58 29.7507 127.26 28.9233 128.098 28.198C128.96 27.45 129.991 26.8833 131.192 26.498C132.394 26.09 133.674 25.9653 135.034 26.124C136.349 26.2827 137.471 26.6453 138.4 27.212C139.33 27.756 140.123 28.4587 140.78 29.32C141.347 30.0453 141.687 30.5893 141.8 30.952C141.936 31.3147 142.05 31.6547 142.14 31.972C142.254 32.2893 142.344 32.5613 142.412 32.788C142.48 33.0147 142.537 33.2527 142.582 33.502C142.65 33.7287 142.696 34.0007 142.718 34.318C142.741 34.7487 142.662 35.1453 142.48 35.508C142.299 35.8707 142.027 36.154 141.664 36.358C141.37 36.4713 141.052 36.528 140.712 36.528L134.898 36.63C130.818 36.6527 128.778 36.698 128.778 36.766H128.676C128.971 37.922 129.583 38.8287 130.512 39.486C131.464 40.1433 132.756 40.5287 134.388 40.642C135.272 40.6873 136.009 40.642 136.598 40.506C137.256 40.3247 137.732 40.166 138.026 40.03C138.321 39.8713 138.684 39.6673 139.114 39.418C139.545 39.2593 139.976 39.282 140.406 39.486C140.837 39.69 141.132 40.0073 141.29 40.438C141.449 40.8687 141.426 41.288 141.222 41.696C141.041 42.104 140.746 42.4213 140.338 42.648C139.976 42.852 139.602 43.0333 139.216 43.192C138.831 43.328 138.264 43.498 137.516 43.702C136.768 43.906 135.658 43.9967 134.184 43.974ZM128.744 33.434C130.059 33.366 133.47 33.298 138.978 33.23C138.774 32.55 138.446 31.904 137.992 31.292C137.086 30.2493 135.964 29.6487 134.626 29.49C133.221 29.3087 131.986 29.6147 130.92 30.408C129.855 31.1787 129.13 32.1873 128.744 33.434ZM151.72 43.804C149.975 43.8267 148.592 43.804 147.572 43.736C146.915 43.6907 146.382 43.6227 145.974 43.532C145.68 43.464 145.419 43.3847 145.192 43.294C144.694 43.0447 144.342 42.682 144.138 42.206C144.002 41.8207 144.002 41.424 144.138 41.016C144.184 40.88 144.24 40.7667 144.308 40.676C144.354 40.5853 144.422 40.4833 144.512 40.37L144.886 39.894L145.94 38.806L147.504 37.242C149.363 35.3153 150.916 33.6493 152.162 32.244C153.137 31.02 153.828 30 154.236 29.184C153.375 29.1613 152.57 29.15 151.822 29.15C148.83 29.218 146.915 29.2067 146.076 29.116C145.623 29.048 145.249 28.8327 144.954 28.47C144.66 28.1073 144.535 27.6993 144.58 27.246C144.648 26.77 144.864 26.3847 145.226 26.09C145.589 25.7953 146.008 25.6707 146.484 25.716C147.21 25.8067 148.502 25.8407 150.36 25.818C152.242 25.7727 153.715 25.7613 154.78 25.784H156.242C156.288 25.8067 156.333 25.818 156.378 25.818L156.582 25.886C156.832 25.954 157.047 26.0787 157.228 26.26C157.84 26.8493 158.09 27.6313 157.976 28.606C157.908 29.1727 157.704 29.8187 157.364 30.544C156.866 31.5867 156.027 32.7427 154.848 34.012C153.534 35.7347 151.902 37.6047 149.952 39.622L149.17 40.404C149.828 40.4267 150.666 40.4267 151.686 40.404C152.865 40.3813 154.248 40.336 155.834 40.268C157.466 40.2 158.373 40.166 158.554 40.166C159.03 40.166 159.427 40.336 159.744 40.676C160.084 40.9933 160.254 41.39 160.254 41.866C160.254 42.342 160.084 42.75 159.744 43.09C159.427 43.4073 159.03 43.566 158.554 43.566C158.373 43.566 157.466 43.6 155.834 43.668C154.225 43.736 152.854 43.7813 151.72 43.804ZM162.211 42.172C162.165 40.472 162.165 37.8653 162.211 34.352C162.279 30.8387 162.313 28.538 162.313 27.45C162.313 26.974 162.471 26.5773 162.789 26.26C163.129 25.92 163.537 25.75 164.013 25.75C164.489 25.75 164.885 25.92 165.203 26.26C165.543 26.5773 165.713 26.974 165.713 27.45C165.713 28.538 165.679 30.8273 165.611 34.318C165.565 37.8087 165.565 40.404 165.611 42.104C165.611 42.58 165.452 42.988 165.135 43.328C164.817 43.668 164.421 43.838 163.945 43.838C163.469 43.838 163.061 43.6793 162.721 43.362C162.381 43.0447 162.211 42.648 162.211 42.172ZM165.373 19.868C165.758 20.2533 165.951 20.7293 165.951 21.296C165.951 21.8627 165.758 22.3387 165.373 22.724C164.987 23.1093 164.511 23.302 163.945 23.302C163.378 23.302 162.902 23.1093 162.517 22.724C162.131 22.3387 161.939 21.8627 161.939 21.296C161.939 20.7293 162.131 20.2533 162.517 19.868C162.902 19.4827 163.378 19.29 163.945 19.29C164.534 19.2673 165.01 19.46 165.373 19.868ZM171.948 43.804C171.494 43.804 171.098 43.6567 170.758 43.362C170.418 43.0447 170.248 42.6253 170.248 42.104C170.248 40.3133 170.236 38.772 170.214 37.48C170.168 33.6267 170.146 30.2833 170.146 27.45C170.146 26.9287 170.304 26.5207 170.622 26.226C170.939 25.9313 171.324 25.784 171.778 25.784C172.254 25.784 172.662 25.9427 173.002 26.26C173.364 26.5547 173.546 26.974 173.546 27.518V28.572C174.951 26.736 176.798 25.818 179.088 25.818C181.06 25.818 182.567 26.5093 183.61 27.892C184.675 29.2747 185.208 31.1333 185.208 33.468C185.208 36.052 185.174 37.752 185.106 38.568L184.936 40.846L184.834 42.308C184.788 42.7613 184.607 43.124 184.29 43.396C183.972 43.668 183.598 43.804 183.168 43.804C182.714 43.804 182.318 43.6567 181.978 43.362C181.638 43.0447 181.468 42.6253 181.468 42.104C181.468 41.7413 181.547 40.4833 181.706 38.33C181.819 36.8567 181.876 35.7007 181.876 34.862C181.876 32.9353 181.604 31.5187 181.06 30.612C180.516 29.6827 179.677 29.218 178.544 29.218C177.728 29.218 176.878 29.4673 175.994 29.966C175.132 30.4647 174.316 31.0993 173.546 31.87L173.614 36.698L173.648 42.104C173.648 42.6253 173.478 43.0447 173.138 43.362C172.798 43.6567 172.401 43.804 171.948 43.804ZM197.055 50.774C195.74 50.8873 194.471 50.74 193.247 50.332C192.046 49.924 191.048 49.21 190.255 48.19C189.96 47.8047 189.711 47.3287 189.507 46.762C189.326 46.1953 189.348 45.6967 189.575 45.266C189.802 44.858 190.13 44.586 190.561 44.45C191.014 44.314 191.445 44.3593 191.853 44.586C192.284 44.8127 192.567 45.1413 192.703 45.572C192.748 45.7533 192.805 45.9913 192.873 46.286C192.941 46.6033 193.19 46.9093 193.621 47.204C194.641 47.5667 195.763 47.7253 196.987 47.68C198.098 47.6347 198.948 47.3967 199.537 46.966C200.126 46.558 200.5 46.082 200.659 45.538C200.886 44.7673 201.067 43.5433 201.203 41.866C200.342 42.7727 199.038 43.3167 197.293 43.498C195.797 43.566 194.448 43.362 193.247 42.886C192.068 42.3873 191.128 41.6847 190.425 40.778C189.745 39.8713 189.246 38.8627 188.929 37.752C188.612 36.6867 188.498 35.3493 188.589 33.74C188.77 31.2467 189.745 29.2407 191.513 27.722C193.485 26.158 195.865 25.6027 198.653 26.056C199.673 26.396 200.478 26.804 201.067 27.28C201.09 26.3733 201.52 25.818 202.359 25.614C202.903 25.5687 203.334 25.6933 203.651 25.988C203.991 26.2827 204.195 26.6567 204.263 27.11C204.512 29.8753 204.66 33.2527 204.705 37.242C204.728 39.5087 204.66 41.4013 204.501 42.92C204.32 45.1867 203.787 46.8753 202.903 47.986C202.019 49.1193 201.135 49.8333 200.251 50.128C199.367 50.4453 198.302 50.6607 197.055 50.774ZM197.055 40.03C197.894 40.0527 198.54 39.9507 198.993 39.724C200.308 39.316 201.067 38.2393 201.271 36.494C201.384 35.1567 201.328 33.876 201.101 32.652C200.942 31.8813 200.478 31.2127 199.707 30.646C199.254 30.2833 198.676 30.0453 197.973 29.932C196.16 29.6147 194.766 29.8867 193.791 30.748C192.862 31.496 192.329 32.5953 192.193 34.046C192.08 35.95 192.454 37.4347 193.315 38.5C194.199 39.5427 195.446 40.0527 197.055 40.03Z" fill="white"/>
<ellipse cx="215.027" cy="43.8871" rx="2.97272" ry="2.9252" fill="white"/>
<defs>
<clipPath id="clip0_16_664">
<rect width="49.5455" height="59.4791" fill="white" transform="translate(0 0.00909424)"/>
</clipPath>
</defs>
</svg>
