<svg width="55" height="38" viewBox="0 0 55 38" fill="none" xmlns="http://www.w3.org/2000/svg">
<rect x="0.5" y="0.5" width="54" height="37" rx="5.5" fill="white" stroke="#D9D9D9"/>
<path fill-rule="evenodd" clip-rule="evenodd" d="M27.8928 27.165C26.0203 28.7931 23.5914 29.776 20.9373 29.776C15.0151 29.776 10.2142 24.8826 10.2142 18.8462C10.2142 12.8099 15.0151 7.9165 20.9373 7.9165C23.5914 7.9165 26.0203 8.89935 27.8928 10.5275C29.7653 8.89935 32.1942 7.9165 34.8483 7.9165C40.7705 7.9165 45.5713 12.8099 45.5713 18.8462C45.5713 24.8826 40.7705 29.776 34.8483 29.776C32.1942 29.776 29.7653 28.7931 27.8928 27.165Z" fill="#ED0006"/>
<path fill-rule="evenodd" clip-rule="evenodd" d="M27.8927 27.165C30.1983 25.1603 31.6603 22.1773 31.6603 18.8462C31.6603 15.5152 30.1983 12.5322 27.8927 10.5275C29.7652 8.89935 32.1941 7.9165 34.8482 7.9165C40.7704 7.9165 45.5713 12.8099 45.5713 18.8462C45.5713 24.8826 40.7704 29.776 34.8482 29.776C32.1941 29.776 29.7652 28.7931 27.8927 27.165Z" fill="#F9A000"/>
<path fill-rule="evenodd" clip-rule="evenodd" d="M27.8927 27.1654C30.1983 25.1607 31.6603 22.1777 31.6603 18.8466C31.6603 15.5156 30.1983 12.5325 27.8927 10.5278C25.5871 12.5325 24.1251 15.5156 24.1251 18.8466C24.1251 22.1777 25.5871 25.1607 27.8927 27.1654Z" fill="#FF5E00"/>
</svg>
