<svg width="62" height="26" viewBox="0 0 62 26" fill="none" xmlns="http://www.w3.org/2000/svg">
<path d="M26.716 17.084C25.94 17.084 25.232 16.904 24.592 16.544C23.952 16.176 23.444 15.668 23.068 15.02C22.7 14.364 22.516 13.628 22.516 12.812C22.516 11.996 22.7 11.264 23.068 10.616C23.444 9.96 23.952 9.452 24.592 9.092C25.232 8.724 25.94 8.54 26.716 8.54C27.5 8.54 28.212 8.724 28.852 9.092C29.492 9.452 29.996 9.956 30.364 10.604C30.732 11.252 30.916 11.988 30.916 12.812C30.916 13.636 30.732 14.372 30.364 15.02C29.996 15.668 29.492 16.176 28.852 16.544C28.212 16.904 27.5 17.084 26.716 17.084ZM26.716 16.136C27.3 16.136 27.824 16 28.288 15.728C28.76 15.456 29.128 15.068 29.392 14.564C29.664 14.06 29.8 13.476 29.8 12.812C29.8 12.14 29.664 11.556 29.392 11.06C29.128 10.556 28.764 10.168 28.3 9.896C27.836 9.624 27.308 9.488 26.716 9.488C26.124 9.488 25.596 9.624 25.132 9.896C24.668 10.168 24.3 10.556 24.028 11.06C23.764 11.556 23.632 12.14 23.632 12.812C23.632 13.476 23.764 14.06 24.028 14.564C24.3 15.068 24.668 15.456 25.132 15.728C25.604 16 26.132 16.136 26.716 16.136ZM35.7536 11.324H34.3736V17H33.2816V11.324H32.4296V10.424H33.2816V9.956C33.2816 9.22 33.4696 8.684 33.8456 8.348C34.2296 8.004 34.8416 7.832 35.6816 7.832V8.744C35.2016 8.744 34.8616 8.84 34.6616 9.032C34.4696 9.216 34.3736 9.524 34.3736 9.956V10.424H35.7536V11.324ZM40.4228 11.324H39.0428V17H37.9508V11.324H37.0988V10.424H37.9508V9.956C37.9508 9.22 38.1388 8.684 38.5148 8.348C38.8988 8.004 39.5108 7.832 40.3508 7.832V8.744C39.8708 8.744 39.5308 8.84 39.3308 9.032C39.1388 9.216 39.0428 9.524 39.0428 9.956V10.424H40.4228V11.324ZM48.416 13.46C48.416 13.668 48.404 13.888 48.38 14.12H43.124C43.164 14.768 43.384 15.276 43.784 15.644C44.192 16.004 44.684 16.184 45.26 16.184C45.732 16.184 46.124 16.076 46.436 15.86C46.756 15.636 46.98 15.34 47.108 14.972H48.284C48.108 15.604 47.756 16.12 47.228 16.52C46.7 16.912 46.044 17.108 45.26 17.108C44.636 17.108 44.076 16.968 43.58 16.688C43.092 16.408 42.708 16.012 42.428 15.5C42.148 14.98 42.008 14.38 42.008 13.7C42.008 13.02 42.144 12.424 42.416 11.912C42.688 11.4 43.068 11.008 43.556 10.736C44.052 10.456 44.62 10.316 45.26 10.316C45.884 10.316 46.436 10.452 46.916 10.724C47.396 10.996 47.764 11.372 48.02 11.852C48.284 12.324 48.416 12.86 48.416 13.46ZM47.288 13.232C47.288 12.816 47.196 12.46 47.012 12.164C46.828 11.86 46.576 11.632 46.256 11.48C45.944 11.32 45.596 11.24 45.212 11.24C44.66 11.24 44.188 11.416 43.796 11.768C43.412 12.12 43.192 12.608 43.136 13.232H47.288ZM51.6694 11.492C51.8614 11.116 52.1334 10.824 52.4854 10.616C52.8454 10.408 53.2814 10.304 53.7934 10.304V11.432H53.5054C52.2814 11.432 51.6694 12.096 51.6694 13.424V17H50.5774V10.424H51.6694V11.492ZM58.102 17.108C57.598 17.108 57.146 17.024 56.746 16.856C56.346 16.68 56.03 16.44 55.798 16.136C55.566 15.824 55.438 15.468 55.414 15.068H56.542C56.574 15.396 56.726 15.664 56.998 15.872C57.278 16.08 57.642 16.184 58.09 16.184C58.506 16.184 58.834 16.092 59.074 15.908C59.314 15.724 59.434 15.492 59.434 15.212C59.434 14.924 59.306 14.712 59.05 14.576C58.794 14.432 58.398 14.292 57.862 14.156C57.374 14.028 56.974 13.9 56.662 13.772C56.358 13.636 56.094 13.44 55.87 13.184C55.654 12.92 55.546 12.576 55.546 12.152C55.546 11.816 55.646 11.508 55.846 11.228C56.046 10.948 56.33 10.728 56.698 10.568C57.066 10.4 57.486 10.316 57.958 10.316C58.686 10.316 59.274 10.5 59.722 10.868C60.17 11.236 60.41 11.74 60.442 12.38H59.35C59.326 12.036 59.186 11.76 58.93 11.552C58.682 11.344 58.346 11.24 57.922 11.24C57.53 11.24 57.218 11.324 56.986 11.492C56.754 11.66 56.638 11.88 56.638 12.152C56.638 12.368 56.706 12.548 56.842 12.692C56.986 12.828 57.162 12.94 57.37 13.028C57.586 13.108 57.882 13.2 58.258 13.304C58.73 13.432 59.114 13.56 59.41 13.688C59.706 13.808 59.958 13.992 60.166 14.24C60.382 14.488 60.494 14.812 60.502 15.212C60.502 15.572 60.402 15.896 60.202 16.184C60.002 16.472 59.718 16.7 59.35 16.868C58.99 17.028 58.574 17.108 58.102 17.108Z" fill="#1D71B8"/>
<path d="M2.99167 14.9953L1.85168 13.8553C1.38668 13.3903 1.38668 12.6253 1.85168 12.1603L2.99167 11.0203C3.18667 10.8253 3.34417 10.4428 3.34417 10.1728V8.56027C3.34417 7.90027 3.88418 7.36029 4.54418 7.36029H6.15667C6.42667 7.36029 6.80917 7.20281 7.00417 7.00781L8.14417 5.86779C8.60917 5.40279 9.37417 5.40279 9.83917 5.86779L10.9792 7.00781C11.1742 7.20281 11.5567 7.36029 11.8267 7.36029H13.4392C14.0992 7.36029 14.6392 7.90027 14.6392 8.56027V10.1728C14.6392 10.4428 14.7967 10.8253 14.9917 11.0203L16.1317 12.1603C16.5967 12.6253 16.5967 13.3903 16.1317 13.8553L14.9917 14.9953C14.7967 15.1903 14.6392 15.5728 14.6392 15.8428V17.4553C14.6392 18.1153 14.0992 18.6553 13.4392 18.6553H11.8267C11.5567 18.6553 11.1742 18.8128 10.9792 19.0078L9.83917 20.1478C9.37417 20.6128 8.60917 20.6128 8.14417 20.1478L7.00417 19.0078C6.80917 18.8128 6.42667 18.6553 6.15667 18.6553H4.54418C3.88418 18.6553 3.34417 18.1153 3.34417 17.4553V15.8428C3.34417 15.5653 3.18667 15.1828 2.99167 14.9953Z" stroke="#1D71B8" stroke-width="1.2" stroke-linecap="round" stroke-linejoin="round"/>
<path d="M6.75 15.25L11.25 10.75" stroke="#1D71B8" stroke-width="1.2" stroke-linecap="round" stroke-linejoin="round"/>
<path d="M10.8709 14.875H10.8776" stroke="#1D71B8" stroke-width="1.5" stroke-linecap="round" stroke-linejoin="round"/>
<path d="M7.12088 11.125H7.12762" stroke="#1D71B8" stroke-width="1.5" stroke-linecap="round" stroke-linejoin="round"/>
</svg>
