<svg width="55" height="38" viewBox="0 0 55 38" fill="none" xmlns="http://www.w3.org/2000/svg">
<rect x="0.65" y="0.65" width="53.7" height="36.7" rx="5.35" fill="white" stroke="#D9D9D9" stroke-width="1.3"/>
<path fill-rule="evenodd" clip-rule="evenodd" d="M15.5572 24.1299H13.1127C12.9454 24.1299 12.8031 24.2524 12.777 24.4187L11.7883 30.7347C11.7687 30.8594 11.8645 30.9717 11.9899 30.9717H13.157C13.3243 30.9717 13.4665 30.8492 13.4926 30.6826L13.7593 28.9791C13.785 28.8122 13.9276 28.6899 14.0946 28.6899H14.8684C16.4787 28.6899 17.408 27.9047 17.6508 26.3489C17.7602 25.6682 17.6555 25.1334 17.339 24.7587C16.9917 24.3475 16.3753 24.1299 15.5572 24.1299ZM15.8392 26.4367C15.7056 27.3206 15.0354 27.3206 14.3873 27.3206H14.0184L14.2772 25.6699C14.2926 25.5702 14.3784 25.4967 14.4785 25.4967H14.6475C15.089 25.4967 15.5054 25.4967 15.7206 25.7502C15.8488 25.9016 15.8882 26.1262 15.8392 26.4367ZM22.8645 26.4084H21.6939C21.5941 26.4084 21.508 26.4819 21.4926 26.5817L21.4408 26.9116L21.3589 26.7921C21.1055 26.4214 20.5405 26.2976 19.9764 26.2976C18.6827 26.2976 17.5779 27.2847 17.3627 28.6696C17.2509 29.3602 17.4098 30.0207 17.7987 30.4814C18.1555 30.9049 18.666 31.0814 19.2732 31.0814C20.3155 31.0814 20.8936 30.4061 20.8936 30.4061L20.8414 30.7339C20.8217 30.8592 20.9174 30.9716 21.0422 30.9716H22.0967C22.2644 30.9716 22.4058 30.8491 22.4323 30.6824L23.065 26.6454C23.085 26.5212 22.9896 26.4084 22.8645 26.4084ZM21.2327 28.7041C21.1197 29.3779 20.5889 29.8302 19.9121 29.8302C19.5721 29.8302 19.3004 29.7204 19.126 29.5122C18.953 29.3056 18.8872 29.0112 18.9422 28.6836C19.0478 28.0154 19.5875 27.5484 20.2541 27.5484C20.5864 27.5484 20.8567 27.6596 21.0347 27.8696C21.213 28.0817 21.2838 28.3777 21.2327 28.7041ZM27.9227 26.4082H29.0991C29.2639 26.4082 29.36 26.5944 29.2664 26.7306L25.3538 32.4209C25.2905 32.5131 25.1861 32.5679 25.0746 32.5679H23.8997C23.7343 32.5679 23.6377 32.3802 23.7334 32.2437L24.9517 30.5111L23.656 26.6797C23.6112 26.5466 23.7088 26.4082 23.8494 26.4082H25.0053C25.1555 26.4082 25.288 26.5076 25.3313 26.6524L26.019 28.9664L27.6415 26.5584C27.705 26.4644 27.8106 26.4082 27.9227 26.4082Z" fill="#253B80"/>
<path fill-rule="evenodd" clip-rule="evenodd" d="M40.6773 30.7351L41.6805 24.3036C41.6959 24.2037 41.7817 24.1302 41.8815 24.1299H43.0109C43.1356 24.1299 43.2314 24.2425 43.2117 24.3672L42.2224 30.6829C42.1966 30.8496 42.0543 30.9721 41.8868 30.9721H40.8781C40.7533 30.9721 40.6576 30.8597 40.6773 30.7351ZM32.9939 24.1302H30.549C30.3821 24.1302 30.2398 24.2527 30.2137 24.4191L29.225 30.7351C29.2053 30.8597 29.3011 30.9721 29.426 30.9721H30.6805C30.7971 30.9721 30.8968 30.8864 30.915 30.7697L31.1956 28.9794C31.2214 28.8126 31.364 28.6902 31.5309 28.6902H32.3043C33.915 28.6902 34.8441 27.9051 35.0871 26.3492C35.1968 25.6686 35.0914 25.1337 34.7751 24.7591C34.4279 24.3479 33.8121 24.1302 32.9939 24.1302ZM33.276 26.4371C33.1426 27.3209 32.4724 27.3209 31.824 27.3209H31.4554L31.7146 25.6702C31.73 25.5706 31.815 25.4971 31.9154 25.4971H32.0845C32.5257 25.4971 32.9425 25.4971 33.1575 25.7506C33.2859 25.9019 33.3249 26.1266 33.276 26.4371ZM40.3006 26.4087H39.1308C39.0302 26.4087 38.9449 26.4822 38.9298 26.5821L38.878 26.9119L38.7958 26.7924C38.5424 26.4217 37.9777 26.2979 37.4136 26.2979C36.1199 26.2979 35.0155 27.2851 34.8003 28.6699C34.6888 29.3606 34.8471 30.0211 35.236 30.4817C35.5934 30.9052 36.1032 31.0817 36.7105 31.0817C37.7527 31.0817 38.3307 30.4064 38.3307 30.4064L38.2786 30.7342C38.2589 30.8596 38.3547 30.9719 38.4802 30.9719H39.5342C39.7011 30.9719 39.8434 30.8494 39.8695 30.6827L40.5026 26.6457C40.5219 26.5216 40.4262 26.4087 40.3006 26.4087ZM38.669 28.7044C38.5566 29.3782 38.0252 29.8306 37.3481 29.8306C37.0089 29.8306 36.7366 29.7207 36.5621 29.5126C36.3891 29.3059 36.3241 29.0116 36.3785 28.6839C36.4845 28.0157 37.0236 27.5487 37.6902 27.5487C38.0227 27.5487 38.2928 27.6599 38.471 27.8699C38.6499 28.0821 38.7207 28.3781 38.669 28.7044Z" fill="#179BD7"/>
<path d="M24.6039 21.8714L24.9045 19.948L24.2351 19.9324H21.0385L23.26 5.73964C23.2667 5.69679 23.2892 5.65684 23.322 5.62847C23.3547 5.60011 23.3968 5.58447 23.4404 5.58447H28.8304C30.6199 5.58447 31.8547 5.95966 32.4995 6.70018C32.8017 7.04758 32.9942 7.41059 33.0874 7.81009C33.185 8.22929 33.1868 8.73011 33.0913 9.34095L33.0844 9.38553V9.77691L33.3868 9.94947C33.6413 10.0855 33.8435 10.2413 33.9986 10.4196C34.2573 10.7166 34.4246 11.0941 34.4952 11.5417C34.5682 12.002 34.544 12.5497 34.4246 13.1698C34.2866 13.8831 34.0636 14.5044 33.7626 15.0127C33.4855 15.4811 33.1327 15.8695 32.7139 16.1707C32.3139 16.4567 31.8387 16.6739 31.3014 16.8129C30.7807 16.9494 30.1872 17.0184 29.5361 17.0184H29.1166C28.8167 17.0184 28.5253 17.1272 28.2966 17.3224C28.0674 17.5215 27.9155 17.7935 27.8691 18.0912L27.8375 18.2644L27.3065 21.6542L27.2823 21.7787C27.276 21.8182 27.2651 21.8379 27.2491 21.8512C27.2347 21.8632 27.214 21.8714 27.1938 21.8714H24.6039Z" fill="#253B80"/>
<path d="M33.6728 9.43066C33.6567 9.5343 33.6384 9.64025 33.6177 9.7491C32.9067 13.4263 30.475 14.6966 27.369 14.6966H25.7877C25.4079 14.6966 25.0878 14.9745 25.0286 15.352L24.2189 20.5259L23.9896 21.9924C23.9511 22.2402 24.1408 22.4637 24.3889 22.4637H27.1938C27.526 22.4637 27.808 22.2205 27.8603 21.8905L27.8879 21.7469L28.4161 18.3702L28.45 18.185C28.5016 17.8538 28.7843 17.6107 29.1164 17.6107H29.5359C32.2534 17.6107 34.3807 16.499 35.0025 13.2821C35.2622 11.9383 35.1277 10.8162 34.4405 10.027C34.2325 9.78905 33.9745 9.59161 33.6728 9.43066Z" fill="#179BD7"/>
<path d="M32.9291 9.13207C32.8206 9.10022 32.7084 9.07127 32.5935 9.04522C32.478 9.01975 32.3596 8.99717 32.2378 8.97748C31.8114 8.908 31.3443 8.875 30.8437 8.875H26.6191C26.515 8.875 26.4163 8.89873 26.3278 8.94158C26.1329 9.03595 25.9882 9.22182 25.9531 9.44935L25.0542 15.1848L25.0284 15.3521C25.0877 14.9746 25.4077 14.6967 25.7875 14.6967H27.3689C30.4749 14.6967 32.9068 13.4258 33.6176 9.74927C33.6387 9.64042 33.6566 9.53447 33.6726 9.43083C33.4928 9.33472 33.298 9.2525 33.0882 9.18243C33.0366 9.16507 32.9832 9.14828 32.9291 9.13207Z" fill="#222D65"/>
<path d="M25.9532 9.44933C25.9882 9.22178 26.1331 9.03593 26.3278 8.94213C26.417 8.89928 26.5152 8.87554 26.6191 8.87554H30.844C31.3445 8.87554 31.8116 8.90854 32.2379 8.97803C32.3598 8.99771 32.4782 9.02029 32.5937 9.04576C32.7087 9.07183 32.8207 9.10078 32.9293 9.13261C32.9833 9.14883 33.0367 9.16561 33.089 9.18241C33.2987 9.25246 33.4936 9.33526 33.6734 9.43079C33.8849 8.07191 33.6717 7.14669 32.9426 6.30889C32.1387 5.38657 30.6876 4.9917 28.831 4.9917H23.4409C23.0616 4.9917 22.7382 5.2696 22.6795 5.64768L20.4345 19.9863C20.3901 20.27 20.6073 20.526 20.8912 20.526H24.219L25.0545 15.1848L25.9532 9.44933Z" fill="#253B80"/>
</svg>
