<svg width="44" height="44" viewBox="0 0 44 44" fill="none" xmlns="http://www.w3.org/2000/svg">
<circle cx="22" cy="22" r="22" fill="#1D71B8"/>
<path d="M19.67 23H15C13.9 23 13 23.9 13 25V31H19.67V23Z" stroke="white" stroke-width="1.5" stroke-miterlimit="10" stroke-linecap="round" stroke-linejoin="round"/>
<path d="M24.33 19H21.66C20.56 19 19.66 19.9 19.66 21V31H26.33V21C26.33 19.9 25.44 19 24.33 19Z" stroke="white" stroke-width="1.5" stroke-miterlimit="10" stroke-linecap="round" stroke-linejoin="round"/>
<path d="M31 26H26.33V31H33V28C33 26.9 32.1 26 31 26Z" stroke="white" stroke-width="1.5" stroke-miterlimit="10" stroke-linecap="round" stroke-linejoin="round"/>
<path d="M23.52 11.0701L24.05 12.1301C24.12 12.2801 24.31 12.4201 24.47 12.4401L25.43 12.6001C26.04 12.7001 26.19 13.15 25.75 13.58L25 14.33C24.87 14.46 24.8 14.7001 24.84 14.8701L25.05 15.7901C25.22 16.5201 24.83 16.8001 24.19 16.4201L23.29 15.8901C23.13 15.7901 22.86 15.7901 22.7 15.8901L21.8 16.4201C21.16 16.8001 20.77 16.5201 20.94 15.7901L21.15 14.8701C21.19 14.7001 21.12 14.45 20.99 14.33L20.25 13.5901C19.81 13.1501 19.95 12.71 20.57 12.61L21.53 12.4501C21.69 12.4201 21.88 12.2801 21.95 12.1401L22.48 11.08C22.77 10.5 23.23 10.5001 23.52 11.0701Z" stroke="white" stroke-width="1.5" stroke-linecap="round" stroke-linejoin="round"/>
</svg>
